<svg width="431" height="290" viewBox="0 0 431 290" fill="none" xmlns="http://www.w3.org/2000/svg">
<path d="M125.264 169.723C153.147 169.723 175.751 147.099 175.751 119.191C175.751 91.2833 153.147 68.6594 125.264 68.6594C97.381 68.6594 74.7773 91.2833 74.7773 119.191C74.7773 147.099 97.381 169.723 125.264 169.723Z" fill="#E6E6E6"/>
<path d="M111.624 192.981L124.043 200.684V148.618L110.122 139.984C108.971 139.27 108.131 138.15 107.766 136.845V136.845C109.096 136.59 110.473 136.845 111.624 137.559L124.043 145.262V125.072C124.043 121.166 124.521 117.275 125.468 113.486C126.414 117.275 126.893 121.166 126.893 125.072V158.026L145.214 146.662C146.677 145.755 148.37 145.287 150.091 145.316C149.35 146.87 148.178 148.18 146.715 149.087L126.893 161.381V284.514H124.043V204.04L110.122 195.406C108.971 194.692 108.131 193.572 107.766 192.267V192.267C109.096 192.013 110.473 192.268 111.624 192.981Z" fill="#CCCCCC"/>
<path d="M50.4866 174.014C78.3696 174.014 100.973 151.39 100.973 123.482C100.973 95.5739 78.3696 72.95 50.4866 72.95C22.6036 72.95 0 95.5739 0 123.482C0 151.39 22.6036 174.014 50.4866 174.014Z" fill="#E6E6E6"/>
<path d="M64.127 197.272L51.7079 204.974V152.908L65.6282 144.275C66.779 143.561 67.62 142.44 67.9844 141.135V141.135C66.6545 140.881 65.2778 141.136 64.1269 141.85L51.7079 149.552V129.363C51.7079 125.457 51.2293 121.566 50.2829 117.777C49.3364 121.566 48.8578 125.457 48.8578 129.363V162.316L30.5364 150.953C29.0734 150.045 27.3808 149.578 25.6599 149.606C26.4006 151.161 27.5722 152.47 29.0352 153.377L48.8579 165.672V284.786H51.7079V208.33L65.6282 199.697C66.779 198.983 67.62 197.862 67.9844 196.557V196.557C66.6546 196.303 65.2778 196.558 64.127 197.272V197.272Z" fill="#CCCCCC"/>
<path d="M87 104C115.719 104 139 80.7188 139 52C139 23.2812 115.719 0 87 0C58.2812 0 35 23.2812 35 52C35 80.7188 58.2812 104 87 104Z" fill="#E6E6E6"/>
<path d="M110.646 145.051L89.2639 158.313V68.668L113.231 53.803C115.212 52.5741 116.66 50.6449 117.288 48.3979L117.288 48.3978H117.288C114.998 47.9601 112.628 48.3992 110.646 49.6281L89.2639 62.89V28.1284C89.2639 21.4036 88.4399 14.7042 86.8104 8.18018C85.1808 14.7042 84.3569 21.4036 84.3569 28.1284V84.8658L52.8118 65.3008C50.293 63.7386 47.3786 62.9338 44.4158 62.9824C45.6911 65.6595 47.7083 67.9134 50.2271 69.4757L84.3568 90.6438V284.977H89.2639V164.091L113.231 149.226C115.212 147.997 116.66 146.068 117.288 143.821L117.288 143.821H117.288C114.998 143.383 112.628 143.822 110.646 145.051V145.051Z" fill="#CCCCCC"/>
<path d="M339.324 87.9674L318.958 99.7358L330.716 120.119L351.082 108.351L339.324 87.9674Z" fill="#00CD9C"/>
<path d="M339.582 124.368L327.305 103.084L348.57 90.7952L360.848 112.08L339.582 124.368ZM328.724 103.464L339.963 122.947L359.428 111.699L348.19 92.2157L328.724 103.464Z" fill="#2F2E41"/>
<path d="M320.53 181.563C325.981 181.563 330.399 177.14 330.399 171.685C330.399 166.23 325.981 161.807 320.53 161.807C315.08 161.807 310.662 166.23 310.662 171.685C310.662 177.14 315.08 181.563 320.53 181.563Z" fill="#F6DE02"/>
<path d="M327.802 182.083C325.748 182.083 323.739 181.473 322.031 180.33C320.323 179.188 318.991 177.564 318.205 175.664C317.419 173.764 317.213 171.674 317.614 169.657C318.015 167.64 319.004 165.787 320.457 164.333C321.909 162.879 323.76 161.889 325.776 161.487C327.791 161.086 329.879 161.292 331.778 162.079C333.676 162.866 335.298 164.199 336.44 165.909C337.581 167.618 338.19 169.629 338.19 171.685C338.19 174.443 337.096 177.087 335.148 179.037C333.2 180.987 330.557 182.083 327.802 182.083V182.083ZM327.802 162.327C325.953 162.327 324.145 162.876 322.608 163.904C321.07 164.933 319.872 166.394 319.165 168.104C318.457 169.814 318.272 171.695 318.633 173.511C318.993 175.326 319.884 176.993 321.191 178.302C322.499 179.611 324.165 180.502 325.978 180.863C327.792 181.224 329.672 181.039 331.38 180.33C333.088 179.622 334.549 178.423 335.576 176.884C336.603 175.345 337.152 173.536 337.152 171.685C337.152 169.203 336.167 166.823 334.413 165.068C332.66 163.313 330.282 162.327 327.802 162.327V162.327Z" fill="#2F2E41"/>
<path d="M382.788 286.879H287.217C286.046 286.877 284.924 286.411 284.096 285.583C283.269 284.755 282.803 283.631 282.802 282.46V193.562C282.803 192.39 283.269 191.267 284.096 190.438C284.924 189.61 286.046 189.144 287.217 189.143H382.788C383.958 189.144 385.08 189.61 385.908 190.438C386.736 191.267 387.201 192.39 387.203 193.562V282.46C387.201 283.631 386.736 284.755 385.908 285.583C385.08 286.411 383.958 286.877 382.788 286.879V286.879Z" fill="#00A67E"/>
<path d="M341.754 290H328.249C327.078 289.999 325.956 289.533 325.129 288.704C324.301 287.876 323.835 286.753 323.834 285.581V190.92C323.835 189.749 324.301 188.626 325.129 187.797C325.956 186.969 327.078 186.503 328.249 186.501H341.754C342.924 186.503 344.046 186.969 344.874 187.797C345.702 188.626 346.167 189.749 346.168 190.92V285.581C346.167 286.753 345.702 287.876 344.874 288.704C344.046 289.533 342.924 289.999 341.754 290V290Z" fill="#3F3D56"/>
<path opacity="0.1" d="M386.943 200.018V233.956L353.218 189.403H378.907L386.943 200.018Z" fill="black"/>
<path d="M415.574 258.112C414.891 258.113 414.218 257.956 413.606 257.652C412.995 257.349 412.462 256.908 412.05 256.363L341.787 163.544C341.437 163.082 341.181 162.555 341.035 161.993C340.888 161.432 340.853 160.847 340.932 160.272C341.012 159.697 341.203 159.144 341.496 158.643C341.789 158.142 342.178 157.704 342.64 157.354L352.99 149.505C353.452 149.154 353.979 148.898 354.539 148.752C355.1 148.605 355.685 148.57 356.259 148.649C356.833 148.729 357.387 148.92 357.887 149.214C358.387 149.507 358.825 149.896 359.175 150.359L429.437 243.177C429.787 243.639 430.043 244.166 430.19 244.728C430.336 245.289 430.371 245.874 430.292 246.449C430.213 247.024 430.021 247.578 429.728 248.078C429.435 248.579 429.047 249.017 428.585 249.368L418.235 257.217C417.469 257.798 416.535 258.113 415.574 258.112V258.112Z" fill="#00A67E"/>
<path d="M387.449 185.988L369.647 199.488L383.135 217.306L400.937 203.806L387.449 185.988Z" fill="#3F3D56"/>
<path d="M295.873 118.089L289.787 140.824L312.501 146.916L318.588 124.181L295.873 118.089Z" fill="#80DFD3"/>
<path d="M302.866 150.314L279.148 143.953L285.503 120.214L309.221 126.575L302.866 150.314ZM280.42 143.218L302.131 149.041L307.949 127.31L286.238 121.487L280.42 143.218Z" fill="#2F2E41"/>
<path d="M202.958 205.493C203.582 204.894 204.067 204.166 204.38 203.36C204.693 202.553 204.825 201.688 204.767 200.825C204.709 199.962 204.463 199.122 204.046 198.364C203.629 197.606 203.051 196.95 202.353 196.44L192.814 119.483L180.491 123.15L193.795 198.042C193.017 199.273 192.717 200.747 192.952 202.184C193.187 203.622 193.941 204.923 195.07 205.841C196.2 206.759 197.626 207.231 199.08 207.167C200.534 207.103 201.914 206.507 202.958 205.493Z" fill="#FFB8B8"/>
<path d="M214.381 279.05H221.589L225.02 251.223H214.381V279.05Z" fill="#FFB8B8"/>
<path d="M235.49 285.749H212.837V276.988H227.538C229.647 276.988 231.67 277.827 233.161 279.319C234.652 280.812 235.49 282.836 235.49 284.947V285.749V285.749Z" fill="#2F2E41"/>
<path d="M164.537 267.813L171.293 270.328L184.201 245.444L174.23 241.732L164.537 267.813Z" fill="#FFB8B8"/>
<path d="M181.988 281.457L160.756 273.553L163.808 265.342L177.587 270.472C179.563 271.208 181.167 272.7 182.045 274.619C182.923 276.538 183.003 278.728 182.267 280.706L181.988 281.457L181.988 281.457Z" fill="#2F2E41"/>
<path d="M201.451 99.5049C208.978 99.5049 215.08 93.3976 215.08 85.864C215.08 78.3304 208.978 72.2231 201.451 72.2231C193.924 72.2231 187.823 78.3304 187.823 85.864C187.823 93.3976 193.924 99.5049 201.451 99.5049Z" fill="#FFB8B8"/>
<path d="M180.134 120.873C179.707 108.309 192.901 99.5924 204.001 105.475C205.415 106.225 220.018 118.642 220.569 126.354C221.119 134.065 222.22 146.734 222.22 146.734L237.629 261.857L204.609 260.204L208.597 226.621L187.134 260.772L161.133 252.493L193.052 160.505C193.052 160.505 180.781 139.914 180.134 120.873Z" fill="#2F2E41"/>
<path d="M180.394 125.247L182.514 152.836C182.536 153.124 182.666 153.393 182.878 153.59C183.09 153.786 183.368 153.895 183.657 153.895H192.986C193.175 153.895 193.36 153.849 193.527 153.76C193.693 153.671 193.835 153.542 193.939 153.385C194.044 153.228 194.108 153.048 194.127 152.86C194.145 152.672 194.117 152.483 194.044 152.308L182.595 124.719C182.49 124.467 182.299 124.261 182.056 124.137C181.813 124.014 181.534 123.98 181.269 124.044C181.004 124.108 180.771 124.264 180.61 124.484C180.45 124.705 180.373 124.975 180.394 125.247V125.247Z" fill="#2F2E41"/>
<path d="M228.305 200.712C228.855 200.045 229.251 199.265 229.468 198.428C229.684 197.59 229.714 196.715 229.556 195.865C229.397 195.014 229.055 194.209 228.552 193.505C228.049 192.802 227.398 192.217 226.645 191.792L208.174 116.481L196.364 121.567L218.334 194.386C217.705 195.7 217.579 197.199 217.981 198.599C218.382 199.999 219.283 201.202 220.512 201.982C221.741 202.762 223.213 203.063 224.649 202.829C226.086 202.595 227.386 201.842 228.305 200.712V200.712Z" fill="#FFB8B8"/>
<path d="M198.005 109.829C198.005 109.829 194.153 117.541 198.005 131.311C201.857 145.082 204.609 156.649 204.609 156.649C204.609 156.649 213.414 151.141 217.267 152.794C221.119 154.446 211.173 116.085 211.173 116.085C211.173 116.085 205.159 103.219 198.005 109.829Z" fill="#2F2E41"/>
<path d="M204.649 87.9925C204.833 85.1621 208.401 85.0651 211.235 85.0383C214.068 85.0115 217.456 85.1128 219.06 82.774C220.119 81.2284 219.917 79.0828 219.041 77.4257C218.166 75.7686 216.726 74.4941 215.309 73.268C211.652 70.1026 207.883 66.9623 203.492 64.9362C199.101 62.9101 193.955 62.0915 189.401 63.7179C183.807 65.7158 176.245 76.0004 175.592 81.9092C174.939 87.818 177.298 93.8416 181.275 98.2571C185.252 102.673 194.355 100.891 200.084 102.462C196.601 97.5284 198.896 88.5642 204.476 86.2604L204.649 87.9925Z" fill="#2F2E41"/>
</svg>
