<svg width="1440" height="127" viewBox="0 0 1440 127" fill="none" xmlns="http://www.w3.org/2000/svg">
<path d="M0 127C0 106.013 17.0132 89 38 89H1402C1422.99 89 1440 106.013 1440 127V127H0V127Z" fill="#00A67E"/>
<path d="M178.888 83.6569C177.202 82.2187 175.618 80.5221 175.126 78.4609C174.634 76.3998 175.596 73.9211 177.752 73.1589C180.161 72.3106 182.743 73.8217 184.697 75.3924C186.65 76.9631 188.892 78.7061 191.446 78.3748C190.13 77.2819 189.147 75.8956 188.59 74.3509C188.034 72.8061 187.923 71.1556 188.27 69.5602C188.382 68.9016 188.687 68.2831 189.153 67.7708C190.491 66.4453 192.921 67.0218 194.52 68.0557C199.584 71.3695 201.031 77.6855 201.067 83.3984C201.58 81.3373 201.146 79.19 201.161 77.0758C201.175 74.9616 201.805 72.6221 203.75 71.4822C204.974 70.882 206.35 70.5914 207.736 70.6405C210.029 70.561 212.583 70.773 214.146 72.3106C216.091 74.2193 215.592 77.4204 213.892 79.5214C212.192 81.6223 209.624 82.9411 207.259 84.3925C205.36 85.4296 203.74 86.8454 202.521 88.5347C202.376 88.7708 202.257 89.0195 202.166 89.277H187.771C184.547 87.7796 181.558 85.889 178.888 83.6569V83.6569Z" fill="#00BFA6"/>
<path d="M1178.89 83.6569C1177.2 82.2187 1175.62 80.5221 1175.13 78.4609C1174.63 76.3998 1175.6 73.9211 1177.75 73.1589C1180.16 72.3106 1182.74 73.8217 1184.7 75.3924C1186.65 76.9631 1188.89 78.7061 1191.45 78.3748C1190.13 77.2819 1189.15 75.8956 1188.59 74.3509C1188.03 72.8061 1187.92 71.1556 1188.27 69.5602C1188.38 68.9016 1188.69 68.2831 1189.15 67.7708C1190.49 66.4453 1192.92 67.0218 1194.52 68.0557C1199.58 71.3695 1201.03 77.6855 1201.07 83.3984C1201.58 81.3373 1201.15 79.19 1201.16 77.0758C1201.18 74.9616 1201.8 72.6221 1203.75 71.4822C1204.97 70.882 1206.35 70.5914 1207.74 70.6405C1210.03 70.561 1212.58 70.773 1214.15 72.3106C1216.09 74.2193 1215.59 77.4204 1213.89 79.5214C1212.19 81.6223 1209.62 82.9411 1207.26 84.3925C1205.36 85.4296 1203.74 86.8454 1202.52 88.5347C1202.38 88.7708 1202.26 89.0195 1202.17 89.277H1187.77C1184.55 87.7796 1181.56 85.889 1178.89 83.6569V83.6569Z" fill="#00BFA6"/>
<path d="M833.888 85.6569C832.202 84.2187 830.618 82.5221 830.126 80.4609C829.634 78.3998 830.596 75.9211 832.752 75.1589C835.161 74.3106 837.743 75.8217 839.697 77.3924C841.65 78.9631 843.892 80.7061 846.446 80.3748C845.13 79.2819 844.147 77.8956 843.59 76.3509C843.034 74.8061 842.923 73.1556 843.27 71.5602C843.382 70.9016 843.687 70.2831 844.153 69.7708C845.491 68.4453 847.921 69.0218 849.52 70.0557C854.584 73.3695 856.031 79.6855 856.067 85.3984C856.58 83.3373 856.146 81.19 856.161 79.0758C856.175 76.9616 856.805 74.6221 858.75 73.4822C859.974 72.882 861.35 72.5914 862.736 72.6405C865.029 72.561 867.583 72.773 869.146 74.3106C871.091 76.2193 870.592 79.4204 868.892 81.5214C867.192 83.6223 864.624 84.9411 862.259 86.3925C860.36 87.4296 858.74 88.8454 857.521 90.5347C857.376 90.7708 857.257 91.0195 857.166 91.277H842.771C839.547 89.7796 836.558 87.889 833.888 85.6569V85.6569Z" fill="#00BFA6"/>
<path d="M93.181 89C93.181 89 100.342 66.1344 91.837 49.3047C88.2666 42.2424 87.0823 34.3121 88.7311 26.6466C89.5195 23.0071 90.6612 19.4433 92.1418 16" stroke="#535461" stroke-width="2" stroke-miterlimit="10"/>
<path d="M87 4.99565C87 7.82102 92.5 16 92.5 16C92.5 16 98 7.81002 98 4.99565C97.9667 3.66017 97.3727 2.38981 96.3452 1.45624C95.3177 0.522672 93.9381 0 92.5015 0C91.0649 0 89.6853 0.522672 88.6578 1.45624C87.6302 2.38981 87.0363 3.66017 87.003 4.99565H87Z" fill="#00BFA6"/>
<path d="M77.9587 20.2975C79.6078 22.756 89 27 89 27C89 27 88.8286 16.9918 87.1795 14.5333C86.7966 13.9299 86.2926 13.4066 85.6969 12.9942C85.1013 12.5817 84.4261 12.2885 83.7112 12.1317C82.9963 11.975 82.2561 11.9579 81.5343 12.0815C80.8125 12.2051 80.1236 12.4669 79.5082 12.8514C78.8928 13.2359 78.3634 13.7354 77.9511 14.3204C77.5388 14.9054 77.252 15.5641 77.1076 16.2578C76.9632 16.9514 76.9641 17.6659 77.1103 18.3592C77.2565 19.0525 77.5449 19.7106 77.9587 20.2946V20.2975Z" fill="#00BFA6"/>
<path d="M78.1105 47.3395C80.7901 48.5586 91 47.7169 91 47.7169C91 47.7169 85.6788 39.8012 82.9992 38.5822C82.3603 38.2729 81.6593 38.0822 80.9376 38.0213C80.2158 37.9604 79.4878 38.0306 78.7965 38.2277C78.1052 38.4248 77.4646 38.7448 76.9125 39.1689C76.3603 39.5931 75.9077 40.1127 75.5814 40.6972C75.2551 41.2817 75.0617 41.9193 75.0125 42.5724C74.9633 43.2254 75.0594 43.8808 75.2951 44.4998C75.5308 45.1188 75.9013 45.689 76.3849 46.1767C76.8684 46.6644 77.4551 47.0598 78.1105 47.3395V47.3395Z" fill="#00BFA6"/>
<path d="M84.0495 67.6964C86.3296 69.2824 96 70 96 70C96 70 92.4403 61.5134 90.1602 59.9248C89.064 59.1746 87.6971 58.8624 86.3573 59.0561C85.0175 59.2499 83.8134 59.9338 83.0073 60.9591C82.2012 61.9843 81.8584 63.2677 82.0536 64.5296C82.2488 65.7916 82.9662 66.9298 84.0495 67.6964V67.6964Z" fill="#00BFA6"/>
<path d="M100.332 27.2415C98.1537 29.0872 88 31 88 31C88 31 90.4859 22.2052 92.664 20.357C93.7107 19.47 95.1184 18.9821 96.5775 19.0005C98.0365 19.0189 99.4275 19.5421 100.444 20.4551C101.461 21.368 102.021 22.5959 101.999 23.8686C101.978 25.1413 101.378 26.3546 100.332 27.2415Z" fill="#00BFA6"/>
<path d="M106.884 51.2662C103.998 52.6206 93 51.6854 93 51.6854C93 51.6854 98.7318 42.8904 101.618 41.536C102.999 40.919 104.585 40.8311 106.035 41.2909C107.485 41.7508 108.683 42.7219 109.373 43.9957C110.063 45.2694 110.189 46.7444 109.724 48.1037C109.259 49.4631 108.241 50.5985 106.887 51.2662H106.884Z" fill="#00BFA6"/>
<path d="M108.804 74.6964C106.361 76.2824 96 77 96 77C96 77 99.814 68.5134 102.257 66.9248C103.431 66.1746 104.896 65.8624 106.331 66.0561C107.767 66.2499 109.057 66.9338 109.921 67.9591C110.784 68.9843 111.152 70.2677 110.943 71.5296C110.733 72.7916 109.965 73.9298 108.804 74.6964Z" fill="#00BFA6"/>
<path opacity="0.25" d="M87 4.99565C87 7.82102 92.5 16 92.5 16C92.5 16 98 7.81002 98 4.99565C97.9667 3.66017 97.3727 2.38981 96.3452 1.45624C95.3177 0.522672 93.9381 0 92.5015 0C91.0649 0 89.6853 0.522672 88.6578 1.45624C87.6302 2.38981 87.0363 3.66017 87.003 4.99565H87Z" fill="black"/>
<path opacity="0.25" d="M77.9587 20.2975C79.6078 22.756 89 27 89 27C89 27 88.8286 16.9918 87.1795 14.5333C86.7966 13.9299 86.2926 13.4066 85.6969 12.9942C85.1013 12.5817 84.4261 12.2885 83.7112 12.1317C82.9963 11.975 82.2561 11.9579 81.5343 12.0815C80.8125 12.2051 80.1236 12.4669 79.5082 12.8514C78.8928 13.2359 78.3634 13.7354 77.9511 14.3204C77.5388 14.9054 77.252 15.5641 77.1076 16.2578C76.9632 16.9514 76.9641 17.6659 77.1103 18.3592C77.2565 19.0525 77.5449 19.7106 77.9587 20.2946V20.2975Z" fill="black"/>
<path opacity="0.25" d="M78.1105 47.3395C80.7901 48.5586 91 47.7169 91 47.7169C91 47.7169 85.6788 39.8012 82.9992 38.5822C82.3603 38.2729 81.6593 38.0822 80.9376 38.0213C80.2158 37.9604 79.4878 38.0306 78.7965 38.2277C78.1052 38.4248 77.4646 38.7448 76.9125 39.1689C76.3603 39.5931 75.9077 40.1127 75.5814 40.6972C75.2551 41.2817 75.0617 41.9193 75.0125 42.5724C74.9633 43.2254 75.0594 43.8808 75.2951 44.4998C75.5308 45.1188 75.9013 45.689 76.3849 46.1767C76.8684 46.6644 77.4551 47.0598 78.1105 47.3395V47.3395Z" fill="black"/>
<path opacity="0.25" d="M84.0495 67.6964C86.3296 69.2824 96 70 96 70C96 70 92.4403 61.5134 90.1602 59.9248C89.064 59.1746 87.6971 58.8624 86.3573 59.0561C85.0175 59.2499 83.8134 59.9338 83.0073 60.9591C82.2012 61.9843 81.8584 63.2677 82.0536 64.5296C82.2488 65.7916 82.9662 66.9298 84.0495 67.6964V67.6964Z" fill="black"/>
<path opacity="0.25" d="M100.332 27.2415C98.1537 29.0872 88 31 88 31C88 31 90.4859 22.2052 92.664 20.357C93.7107 19.47 95.1184 18.9821 96.5775 19.0005C98.0365 19.0189 99.4275 19.5421 100.444 20.4551C101.461 21.368 102.021 22.5959 101.999 23.8686C101.978 25.1413 101.378 26.3546 100.332 27.2415Z" fill="black"/>
<path opacity="0.25" d="M106.884 51.2662C103.998 52.6206 93 51.6854 93 51.6854C93 51.6854 98.7318 42.8904 101.618 41.536C102.999 40.919 104.585 40.8311 106.035 41.2909C107.485 41.7508 108.683 42.7219 109.373 43.9957C110.063 45.2694 110.189 46.7444 109.724 48.1037C109.259 49.4631 108.241 50.5985 106.887 51.2662H106.884Z" fill="black"/>
<path opacity="0.25" d="M108.804 74.6964C106.361 76.2824 96 77 96 77C96 77 99.814 68.5134 102.257 66.9248C103.431 66.1746 104.896 65.8624 106.331 66.0561C107.767 66.2499 109.057 66.9338 109.921 67.9591C110.784 68.9843 111.152 70.2677 110.943 71.5296C110.733 72.7916 109.965 73.9298 108.804 74.6964Z" fill="black"/>
<path d="M1369.18 89C1369.18 89 1376.34 66.1344 1367.84 49.3047C1364.27 42.2424 1363.08 34.3121 1364.73 26.6466C1365.52 23.0071 1366.66 19.4433 1368.14 16" stroke="#535461" stroke-width="2" stroke-miterlimit="10"/>
<path d="M1363 4.99565C1363 7.82102 1368.5 16 1368.5 16C1368.5 16 1374 7.81002 1374 4.99565C1373.97 3.66017 1373.37 2.38981 1372.35 1.45624C1371.32 0.522672 1369.94 0 1368.5 0C1367.06 0 1365.69 0.522672 1364.66 1.45624C1363.63 2.38981 1363.04 3.66017 1363 4.99565H1363Z" fill="#00BFA6"/>
<path d="M1353.96 20.2975C1355.61 22.756 1365 27 1365 27C1365 27 1364.83 16.9918 1363.18 14.5333C1362.8 13.9299 1362.29 13.4066 1361.7 12.9942C1361.1 12.5817 1360.43 12.2885 1359.71 12.1317C1359 11.975 1358.26 11.9579 1357.53 12.0815C1356.81 12.2051 1356.12 12.4669 1355.51 12.8514C1354.89 13.2359 1354.36 13.7354 1353.95 14.3204C1353.54 14.9054 1353.25 15.5641 1353.11 16.2578C1352.96 16.9514 1352.96 17.6659 1353.11 18.3592C1353.26 19.0525 1353.54 19.7106 1353.96 20.2946V20.2975Z" fill="#00BFA6"/>
<path d="M1354.11 47.3395C1356.79 48.5586 1367 47.7169 1367 47.7169C1367 47.7169 1361.68 39.8012 1359 38.5822C1358.36 38.2729 1357.66 38.0822 1356.94 38.0213C1356.22 37.9604 1355.49 38.0306 1354.8 38.2277C1354.11 38.4248 1353.46 38.7448 1352.91 39.1689C1352.36 39.5931 1351.91 40.1127 1351.58 40.6972C1351.26 41.2817 1351.06 41.9193 1351.01 42.5724C1350.96 43.2254 1351.06 43.8808 1351.3 44.4998C1351.53 45.1188 1351.9 45.689 1352.38 46.1767C1352.87 46.6644 1353.46 47.0598 1354.11 47.3395V47.3395Z" fill="#00BFA6"/>
<path d="M1360.05 67.6964C1362.33 69.2824 1372 70 1372 70C1372 70 1368.44 61.5134 1366.16 59.9248C1365.06 59.1746 1363.7 58.8624 1362.36 59.0561C1361.02 59.2499 1359.81 59.9338 1359.01 60.9591C1358.2 61.9843 1357.86 63.2677 1358.05 64.5296C1358.25 65.7916 1358.97 66.9298 1360.05 67.6964V67.6964Z" fill="#00BFA6"/>
<path d="M1376.33 27.2415C1374.15 29.0872 1364 31 1364 31C1364 31 1366.49 22.2052 1368.66 20.357C1369.71 19.47 1371.12 18.9821 1372.58 19.0005C1374.04 19.0189 1375.43 19.5421 1376.44 20.4551C1377.46 21.368 1378.02 22.5959 1378 23.8686C1377.98 25.1413 1377.38 26.3546 1376.33 27.2415Z" fill="#00BFA6"/>
<path d="M1382.88 51.2662C1380 52.6206 1369 51.6854 1369 51.6854C1369 51.6854 1374.73 42.8904 1377.62 41.536C1379 40.919 1380.58 40.8311 1382.03 41.2909C1383.48 41.7508 1384.68 42.7219 1385.37 43.9957C1386.06 45.2694 1386.19 46.7444 1385.72 48.1037C1385.26 49.4631 1384.24 50.5985 1382.89 51.2662H1382.88Z" fill="#00BFA6"/>
<path d="M1384.8 74.6964C1382.36 76.2824 1372 77 1372 77C1372 77 1375.81 68.5134 1378.26 66.9248C1379.43 66.1746 1380.9 65.8624 1382.33 66.0561C1383.77 66.2499 1385.06 66.9338 1385.92 67.9591C1386.78 68.9843 1387.15 70.2677 1386.94 71.5296C1386.73 72.7916 1385.96 73.9298 1384.8 74.6964Z" fill="#00BFA6"/>
<path opacity="0.25" d="M1363 4.99565C1363 7.82102 1368.5 16 1368.5 16C1368.5 16 1374 7.81002 1374 4.99565C1373.97 3.66017 1373.37 2.38981 1372.35 1.45624C1371.32 0.522672 1369.94 0 1368.5 0C1367.06 0 1365.69 0.522672 1364.66 1.45624C1363.63 2.38981 1363.04 3.66017 1363 4.99565H1363Z" fill="black"/>
<path opacity="0.25" d="M1353.96 20.2975C1355.61 22.756 1365 27 1365 27C1365 27 1364.83 16.9918 1363.18 14.5333C1362.8 13.9299 1362.29 13.4066 1361.7 12.9942C1361.1 12.5817 1360.43 12.2885 1359.71 12.1317C1359 11.975 1358.26 11.9579 1357.53 12.0815C1356.81 12.2051 1356.12 12.4669 1355.51 12.8514C1354.89 13.2359 1354.36 13.7354 1353.95 14.3204C1353.54 14.9054 1353.25 15.5641 1353.11 16.2578C1352.96 16.9514 1352.96 17.6659 1353.11 18.3592C1353.26 19.0525 1353.54 19.7106 1353.96 20.2946V20.2975Z" fill="black"/>
<path opacity="0.25" d="M1354.11 47.3395C1356.79 48.5586 1367 47.7169 1367 47.7169C1367 47.7169 1361.68 39.8012 1359 38.5822C1358.36 38.2729 1357.66 38.0822 1356.94 38.0213C1356.22 37.9604 1355.49 38.0306 1354.8 38.2277C1354.11 38.4248 1353.46 38.7448 1352.91 39.1689C1352.36 39.5931 1351.91 40.1127 1351.58 40.6972C1351.26 41.2817 1351.06 41.9193 1351.01 42.5724C1350.96 43.2254 1351.06 43.8808 1351.3 44.4998C1351.53 45.1188 1351.9 45.689 1352.38 46.1767C1352.87 46.6644 1353.46 47.0598 1354.11 47.3395V47.3395Z" fill="black"/>
<path opacity="0.25" d="M1360.05 67.6964C1362.33 69.2824 1372 70 1372 70C1372 70 1368.44 61.5134 1366.16 59.9248C1365.06 59.1746 1363.7 58.8624 1362.36 59.0561C1361.02 59.2499 1359.81 59.9338 1359.01 60.9591C1358.2 61.9843 1357.86 63.2677 1358.05 64.5296C1358.25 65.7916 1358.97 66.9298 1360.05 67.6964V67.6964Z" fill="black"/>
<path opacity="0.25" d="M1376.33 27.2415C1374.15 29.0872 1364 31 1364 31C1364 31 1366.49 22.2052 1368.66 20.357C1369.71 19.47 1371.12 18.9821 1372.58 19.0005C1374.04 19.0189 1375.43 19.5421 1376.44 20.4551C1377.46 21.368 1378.02 22.5959 1378 23.8686C1377.98 25.1413 1377.38 26.3546 1376.33 27.2415Z" fill="black"/>
<path opacity="0.25" d="M1382.88 51.2662C1380 52.6206 1369 51.6854 1369 51.6854C1369 51.6854 1374.73 42.8904 1377.62 41.536C1379 40.919 1380.58 40.8311 1382.03 41.2909C1383.48 41.7508 1384.68 42.7219 1385.37 43.9957C1386.06 45.2694 1386.19 46.7444 1385.72 48.1037C1385.26 49.4631 1384.24 50.5985 1382.89 51.2662H1382.88Z" fill="black"/>
<path opacity="0.25" d="M1384.8 74.6964C1382.36 76.2824 1372 77 1372 77C1372 77 1375.81 68.5134 1378.26 66.9248C1379.43 66.1746 1380.9 65.8624 1382.33 66.0561C1383.77 66.2499 1385.06 66.9338 1385.92 67.9591C1386.78 68.9843 1387.15 70.2677 1386.94 71.5296C1386.73 72.7916 1385.96 73.9298 1384.8 74.6964Z" fill="black"/>
</svg>
