<svg width="552" height="409" viewBox="0 0 552 409" fill="none" xmlns="http://www.w3.org/2000/svg">
<g clip-path="url(#clip0_136_71)">
<path d="M499.837 407.106H382.794V403.513C382.794 400.394 384.033 397.402 386.238 395.197C388.443 392.991 391.434 391.752 394.552 391.752H488.079C491.197 391.752 494.188 392.991 496.393 395.197C498.598 397.402 499.837 400.394 499.837 403.513V407.106Z" fill="#E6E6E6"/>
<path d="M438.576 392.469L442.136 391.035C404.894 298.572 408.481 181.923 439.963 81.858C443.703 70.2641 443.972 57.8296 440.739 46.0844C437.506 34.3392 430.91 23.7955 421.764 15.7506C403.491 -0.559637 378.299 -4.53296 356.015 5.38018C334.02 15.1668 330.988 32.2137 330.988 49.1775H334.825C334.825 31.0694 338.694 17.2879 357.575 8.88729C378.46 -0.403139 402.076 3.32325 419.209 18.6149C427.799 26.1707 433.994 36.0737 437.031 47.1053C440.068 58.1369 439.815 69.8159 436.303 80.7054C404.457 181.926 401.08 299.376 438.576 392.469Z" fill="#E6E6E6"/>
<path d="M333.866 105.793C341.284 105.793 347.297 99.7787 347.297 92.3592C347.297 84.9396 341.284 78.9249 333.866 78.9249C326.448 78.9249 320.435 84.9396 320.435 92.3592C320.435 99.7787 326.448 105.793 333.866 105.793Z" fill="#E6E6E6"/>
<path d="M313.181 115.779V90.3242H317.138V115.779C318.273 116.238 319.213 117.078 319.797 118.155C320.381 119.231 320.572 120.477 320.338 121.679C320.105 122.882 319.46 123.965 318.515 124.744C317.57 125.523 316.384 125.949 315.159 125.949C313.935 125.949 312.749 125.523 311.804 124.744C310.859 123.965 310.214 122.882 309.98 121.679C309.747 120.477 309.938 119.231 310.522 118.155C311.106 117.078 312.046 116.238 313.181 115.779Z" fill="#E6E6E6"/>
<path d="M294.052 70.7682C294.059 64.9168 296.386 59.3069 300.522 55.1693C304.659 51.0317 310.268 48.7042 316.118 48.6976H352.574C358.426 48.6976 364.038 51.0229 368.176 55.1619C372.314 59.301 374.639 64.9147 374.639 70.7682C374.639 76.6217 372.314 82.2355 368.176 86.3745C364.038 90.5136 358.426 92.8389 352.574 92.8389H316.118C310.268 92.8322 304.659 90.5048 300.522 86.3672C296.386 82.2296 294.059 76.6197 294.052 70.7682Z" fill="white"/>
<path d="M242.687 207.444C246.348 160.603 265.062 138.286 253.079 124.291C241.6 110.885 209.267 113.655 188.502 126.518C132.495 161.215 111.975 299.503 184.049 367.067C252.537 431.27 382.335 410.707 411.18 358.158C417.911 345.896 423.258 324.402 413.407 311.384C388.951 279.066 300.035 337.604 260.502 300.99C237.073 279.292 240.679 233.149 242.687 207.444Z" fill="#3F3D56"/>
<path d="M285.5 184.173C284.14 184.799 283.077 185.931 282.539 187.329C282 188.726 282.028 190.279 282.617 191.656C282.741 191.934 282.887 192.201 283.056 192.455L271.034 208.51L277.033 217.478L291.123 193.704C292.122 192.925 292.834 191.837 293.15 190.611C293.465 189.385 293.366 188.088 292.867 186.924C292.577 186.265 292.16 185.669 291.64 185.17C291.12 184.672 290.506 184.281 289.835 184.02C289.164 183.758 288.447 183.632 287.727 183.648C287.007 183.663 286.297 183.82 285.637 184.111C285.591 184.131 285.546 184.152 285.5 184.173Z" fill="#FFB6B6"/>
<path d="M285.491 211.854C286.277 212.552 284.095 213.414 281.787 212.055C281.126 211.661 280.844 211.498 280.77 211.602C280.584 211.862 281.668 213.777 281.378 218.031C281.2 220.571 276.984 225.344 272.197 230C265.724 236.295 258.198 242.368 258.198 242.368L255.555 240.252L227.847 218.031L223.17 211.557C223.599 209.001 224.242 206.485 225.093 204.037C226.265 200.648 227.659 197.339 229.264 194.133C230.125 192.388 231.009 190.725 231.855 189.195L246.7 205.559L259.14 219.264C259.14 219.264 262.763 213.428 265.568 211.84C265.926 211.611 266.333 211.471 266.756 211.431C269.591 211.298 269.762 209.753 266.474 206.39C263.186 203.027 267.335 206.167 270.259 205.262C273.184 204.356 270.259 205.262 270.875 202.997C271.492 200.733 279.694 196.189 279.694 196.189L280.035 196.493L286.233 201.965L288.007 203.532C288.007 203.532 286.07 208.848 285.535 209.969C285.001 211.09 284.711 211.149 285.491 211.854Z" fill="white"/>
<path d="M448.875 314.99L449.177 306.801L417.741 301.738L417.295 313.824L448.875 314.99Z" fill="#FFB6B6"/>
<path d="M443.168 317.455L442.87 304.344L448.474 304.55L457.522 292.429C457.968 291.83 458.595 291.39 459.309 291.172C460.024 290.955 460.789 290.972 461.494 291.22C462.198 291.469 462.805 291.936 463.225 292.554C463.645 293.171 463.857 293.907 463.829 294.654L463.255 310.23L457.612 312.71L463.117 313.963L462.9 319.836L443.168 317.455Z" fill="#2F2E41"/>
<path d="M271.95 318.178L371.519 320.704C371.519 320.704 414.516 323.188 424.605 316.623L435.243 315.28L435.819 299.65C435.819 299.65 429.314 299.698 425.574 297.955C421.834 296.212 424.433 294.079 420.867 296.176C417.301 298.273 417.678 298.525 414.921 297.562C412.164 296.598 285.73 277.322 285.73 277.322L271.95 318.178Z" fill="#2F2E41"/>
<path d="M403.156 311.396L408.946 305.598L389.343 280.501L380.797 289.058L403.156 311.396Z" fill="#FFB6B6"/>
<path d="M397.296 306.352L405.993 296.537L409.961 300.501L424.836 297.769C425.57 297.634 426.329 297.738 427 298.064C427.672 298.391 428.222 298.924 428.569 299.585C428.917 300.247 429.044 301.002 428.932 301.741C428.82 302.479 428.475 303.163 427.947 303.691L416.934 314.719L411.112 312.699L414.295 317.362L410.143 321.52L397.296 306.352Z" fill="#2F2E41"/>
<path d="M232.667 263.635L233.657 286.65C234.822 313.744 264.653 330.143 287.785 315.996C288.211 315.736 288.639 315.465 289.068 315.186C289.068 315.186 297.838 312.83 297.571 309.1C297.305 305.37 299.447 303.554 301.343 304.571C303.239 305.589 328.062 270.352 328.062 270.352C328.062 270.352 379.635 296.084 391.013 302.142C391.013 302.142 401.71 285.412 400.934 285.588C400.159 285.763 337.132 241.639 337.132 241.639C337.132 241.639 326.864 231.245 314.127 238.108C313.862 239.116 314.089 239.151 314.089 239.151L272.014 273.443L266.069 262.15L232.667 263.635Z" fill="#2F2E41"/>
<path d="M272.338 234.863C272.258 235.926 272.107 236.982 271.885 238.025C271.582 239.535 271.093 241.001 270.43 242.391C270.43 242.391 270.43 243.942 267.461 249.14C264.492 254.337 268.203 252.109 270.43 255.97C272.657 259.823 270.43 258.049 267.958 260.528C267.247 261.25 266.741 262.149 266.495 263.132C266.248 264.115 266.269 265.147 266.555 266.119C266.555 266.119 234.668 266.141 228.73 263.914C222.792 261.687 221.441 249.14 226.763 247.9C232.077 246.66 225.152 245.427 222.027 242.569C218.902 239.711 225.152 235.033 225.152 235.033C225.152 235.033 222.577 230.586 222.792 215.656C222.822 214.283 222.949 212.913 223.17 211.558C223.599 209.001 224.242 206.485 225.093 204.037C226.265 200.648 227.659 197.339 229.264 194.133C230.125 192.388 231.009 190.725 231.855 189.195C231.988 188.958 232.115 188.728 232.248 188.498C233.859 185.647 235.329 183.315 236.301 181.823C237.051 180.665 237.503 180.012 237.503 180.012L242.907 170.612L260.944 179.069L259.92 192.9L263.03 203.331L264.462 208.135L265.568 211.84L267.275 217.579C267.275 217.579 266.808 217.601 267.365 218.366C269.928 221.775 271.59 225.777 272.197 230C272.41 231.611 272.458 233.241 272.338 234.863Z" fill="white"/>
<path d="M324.426 236.353L324.088 236.244L280.917 222.339L296.825 170.137C297.142 169.097 297.691 168.143 298.43 167.347C299.169 166.55 300.079 165.932 301.091 165.538C302.104 165.144 303.193 164.986 304.276 165.074C305.359 165.163 306.407 165.496 307.343 166.049L334.93 182.352C337.114 183.641 338.776 185.656 339.624 188.046C340.473 190.436 340.455 193.049 339.574 195.427L324.426 236.353Z" fill="#2F2E41"/>
<path d="M324.602 239.672L281.084 225.655L296.992 173.453C297.308 172.414 297.857 171.459 298.596 170.663C299.335 169.866 300.245 169.248 301.258 168.854C302.271 168.46 303.359 168.302 304.442 168.39C305.525 168.479 306.574 168.812 307.509 169.365L336.414 183.799C340.757 186.365 340.655 193.005 338.639 198.453L324.602 239.672Z" fill="white"/>
<path d="M320.245 243.45C319.243 244.016 318.134 244.366 316.989 244.48C315.844 244.594 314.688 244.469 313.594 244.112L285.778 235.152C283.644 234.455 281.867 232.95 280.827 230.96C279.787 228.97 279.566 226.652 280.212 224.501L294.157 178.74C294.436 177.825 294.894 176.976 295.505 176.241C296.116 175.507 296.868 174.901 297.716 174.461C298.564 174.021 299.492 173.754 300.444 173.677C301.397 173.6 302.355 173.714 303.263 174.012L332.088 183.479C333.462 183.93 334.731 184.652 335.821 185.602C336.911 186.552 337.799 187.71 338.434 189.009C339.069 190.308 339.437 191.722 339.516 193.165C339.596 194.609 339.385 196.054 338.897 197.415L323.987 238.994C323.317 240.882 321.988 242.464 320.245 243.45Z" fill="#3F3D56"/>
<path d="M259.924 170.773C270.927 170.773 279.847 161.851 279.847 150.845C279.847 139.839 270.927 130.918 259.924 130.918C248.921 130.918 240.001 139.839 240.001 150.845C240.001 161.851 248.921 170.773 259.924 170.773Z" fill="#FFB6B6"/>
<path d="M192.554 171.073C194.382 174.618 197.38 177.421 201.039 179.007C202.499 179.672 204.035 180.158 205.612 180.454C206.057 178.686 206.771 176.997 207.728 175.444C207.409 177.194 207.409 178.987 207.728 180.736C210.13 180.933 212.547 180.633 214.829 179.855C217.07 179.092 219.102 177.818 220.765 176.134C222.427 174.449 223.674 172.4 224.407 170.149C225.994 164.867 224.285 159.225 224.15 153.711C224.012 148.197 226.629 141.602 232.102 140.92C236.27 140.399 235.754 140.803 238.749 143.748C234.56 148.403 244.772 169.018 250.252 168.107C253.35 167.592 255.63 165.131 256.243 165.217C259.38 172.903 249.942 183.803 257.428 187.382L256.873 186.646C252.954 180.172 264.549 169.236 260.63 162.761C259.538 160.95 258.402 158.827 259.078 156.823C259.719 154.918 262.968 154.315 263.653 156.049C262.539 152.075 265.649 147.41 269.78 147.004C273.451 146.642 273.239 147.689 276.738 148.643C277.185 147.135 277.829 145.693 278.654 144.354C278.375 145.882 278.341 147.444 278.552 148.983C279.814 149.133 281.091 148.863 282.184 148.214C285.415 146.276 285.511 141.275 283.291 138.231C281.068 135.186 277.343 133.683 273.749 132.545C273.716 124.944 253.266 121.305 249.505 128.372C249.118 122.65 242.56 118.795 236.911 119.767C231.261 120.739 226.804 125.27 224.087 130.32C221.37 135.367 220.022 141.017 218.033 146.392C216.044 151.768 213.201 157.127 208.438 160.317C203.676 163.502 196.6 163.791 192.624 159.663C191.717 161.425 191.238 163.377 191.226 165.36C191.214 167.342 191.669 169.299 192.554 171.073Z" fill="#2F2E41"/>
<path d="M212.997 262.201C213.409 261.871 213.856 261.588 214.33 261.356C221.956 257.56 245.67 247.706 264.213 248.11C299.89 248.888 345.295 288.272 334.728 314.719C326.687 334.844 286.712 346.293 257.532 337.136C216.654 324.307 200.518 272.152 212.997 262.201Z" fill="#3F3D56"/>
<path d="M64.8848 407.181C53.2269 404.982 42.9074 352.448 65.8442 326.576C73.7026 317.711 83.505 313.853 96.544 310.262C171.592 289.596 228.833 309.292 236.525 314.101C244.2 318.899 257.655 391.191 240.449 401.424C230.769 407.181 211.581 410.06 202.074 403.343C188.086 393.459 211.566 367.822 201.115 350.565C189.256 330.983 126.807 324.387 95.4977 343.848C62.0941 364.612 130.994 419.656 64.8848 407.181Z" fill="#F2F2F2"/>
<path d="M142.828 317.863H98.2908C87.2963 307.324 79.4352 297.167 85.7289 288.736C85.7289 286.312 86.6914 283.988 88.4047 282.274C90.118 280.561 92.4418 279.598 94.8648 279.598H146.254C148.677 279.598 151.001 280.561 152.714 282.274C154.428 283.988 155.39 286.312 155.39 288.736C157.786 298.343 153.505 308.053 142.828 317.863Z" fill="#CCCCCC"/>
<path d="M134.83 268.094C134.407 268.113 133.989 268.002 133.631 267.776C133.274 267.55 132.995 267.219 132.832 266.829C132.668 266.438 132.629 266.007 132.719 265.594C132.809 265.18 133.024 264.804 133.335 264.517L133.476 263.955C133.457 263.91 133.439 263.865 133.42 263.82C132.994 262.814 132.281 261.957 131.369 261.355C130.458 260.754 129.389 260.435 128.297 260.439C127.205 260.443 126.139 260.77 125.232 261.378C124.325 261.986 123.618 262.849 123.2 263.858C121.528 267.885 119.4 271.918 118.876 276.176C118.645 278.058 118.743 279.966 119.164 281.814C115.238 273.248 113.199 263.938 113.186 254.515C113.185 252.151 113.317 249.788 113.58 247.438C113.797 245.511 114.098 243.598 114.484 241.699C116.588 231.395 121.106 221.738 127.666 213.519C130.842 211.786 133.41 209.121 135.024 205.884C135.609 204.72 136.022 203.478 136.251 202.195C135.893 202.242 134.901 196.786 135.171 196.451C134.672 195.693 133.778 195.317 133.233 194.578C130.522 190.901 126.786 191.543 124.836 196.539C120.67 198.642 120.63 202.13 123.186 205.484C124.812 207.618 125.036 210.506 126.463 212.791C126.316 212.979 126.163 213.161 126.016 213.349C123.333 216.8 120.994 220.506 119.033 224.414C119.51 220.036 118.941 215.608 117.373 211.493C115.784 207.658 112.805 204.428 110.181 201.113C107.03 197.13 100.569 198.868 100.013 203.916C100.008 203.965 100.003 204.014 99.9977 204.063C100.387 204.283 100.769 204.516 101.142 204.763C101.611 205.076 101.974 205.524 102.184 206.047C102.394 206.571 102.442 207.145 102.32 207.696C102.198 208.247 101.912 208.748 101.501 209.133C101.089 209.519 100.571 209.771 100.014 209.857L99.9566 209.866C100.095 211.271 100.341 212.663 100.691 214.03C97.3252 227.048 104.591 231.79 114.965 232.003C115.194 232.12 115.418 232.237 115.647 232.349C113.677 237.933 112.441 243.749 111.971 249.652C111.704 253.134 111.72 256.633 112.018 260.112L112 259.989C111.248 256.12 109.185 252.628 106.157 250.104C101.661 246.41 95.3088 245.049 90.4582 242.08C89.9427 241.749 89.3433 241.572 88.7307 241.571C88.1181 241.569 87.5178 241.743 87.0007 242.071C86.4836 242.4 86.0712 242.87 85.8121 243.425C85.5531 243.98 85.4582 244.598 85.5387 245.205C85.5452 245.249 85.5518 245.292 85.5585 245.335C86.2816 245.63 86.9856 245.969 87.6665 246.351C88.0562 246.571 88.4376 246.804 88.8108 247.051C89.2796 247.365 89.6429 247.812 89.853 248.336C90.0632 248.859 90.1103 249.434 89.9884 249.984C89.8664 250.535 89.581 251.036 89.1695 251.421C88.7581 251.807 88.2398 252.059 87.6825 252.145L87.6254 252.154C87.5843 252.16 87.5491 252.166 87.508 252.172C88.7435 255.122 90.4776 257.838 92.6342 260.2C94.7385 271.565 103.777 272.643 113.445 269.334H113.45C114.511 273.944 116.048 278.432 118.036 282.725H134.419C134.478 282.543 134.531 282.355 134.584 282.173C133.067 282.268 131.545 282.177 130.05 281.903C131.266 280.411 132.481 278.907 133.697 277.415C133.724 277.387 133.75 277.358 133.773 277.327C134.39 276.564 135.012 275.806 135.629 275.042L135.629 275.042C135.662 272.701 135.394 270.366 134.83 268.094L134.83 268.094Z" fill="#CCCCCC"/>
<path d="M190.708 315.477C190.98 316.268 191.495 316.953 192.181 317.433C192.866 317.913 193.685 318.163 194.522 318.148L210.86 317.728C211.703 317.711 212.517 317.423 213.182 316.905C213.847 316.387 214.327 315.668 214.549 314.855L216.861 290.126C217.681 290.497 218.575 290.681 219.475 290.663C221.055 290.623 222.554 289.957 223.643 288.812C224.732 287.666 225.322 286.135 225.282 284.555C225.242 282.975 224.577 281.475 223.432 280.386C222.286 279.297 220.756 278.707 219.176 278.747C218.816 278.745 218.457 278.783 218.105 278.858C217.722 278.444 217.257 278.114 216.739 277.891C216.222 277.667 215.663 277.555 215.099 277.561L189.966 278.21C189.758 278.217 189.55 278.243 189.346 278.287C188.795 278.39 188.272 278.609 187.813 278.931C187.354 279.253 186.969 279.669 186.684 280.152C186.4 280.635 186.222 281.174 186.162 281.731C186.103 282.289 186.164 282.853 186.341 283.385L190.708 315.477ZM217.335 288.446L218.981 282.553C219.168 281.873 219.172 281.155 218.993 280.472C219.073 280.472 219.143 280.434 219.223 280.433C220.351 280.41 221.442 280.836 222.257 281.616C223.072 282.396 223.545 283.468 223.571 284.596C223.598 285.724 223.176 286.816 222.398 287.634C221.621 288.452 220.551 288.927 219.423 288.957C218.693 288.98 217.972 288.803 217.335 288.446Z" fill="#CCCCCC"/>
<path d="M189.346 278.287C189.882 281.349 195.902 283.502 203.14 283.128C209.797 282.821 215.239 280.483 216.236 277.712C215.867 277.603 215.484 277.552 215.099 277.561L189.966 278.21C189.758 278.217 189.55 278.243 189.346 278.287Z" fill="white"/>
<path d="M0.875016 408.341L551.125 408.567C551.357 408.567 551.58 408.475 551.744 408.31C551.908 408.146 552 407.924 552 407.692C552 407.459 551.908 407.237 551.744 407.073C551.58 406.909 551.357 406.816 551.125 406.816L0.875016 406.59C0.642946 406.59 0.420384 406.683 0.256286 406.847C0.0921876 407.011 0 407.234 0 407.466C0 407.698 0.0921876 407.92 0.256286 408.084C0.420384 408.249 0.642946 408.341 0.875016 408.341Z" fill="#CACACA"/>
<path d="M309.493 212.737C307.997 212.792 306.581 213.428 305.546 214.511C304.512 215.594 303.941 217.038 303.955 218.536C303.962 218.84 303.995 219.143 304.053 219.442L286.784 229.64L288.874 240.225L311.02 223.698C312.241 223.363 313.317 222.633 314.08 221.622C314.842 220.611 315.249 219.377 315.236 218.11C315.222 217.39 315.066 216.679 314.777 216.019C314.489 215.359 314.073 214.762 313.554 214.263C313.034 213.763 312.422 213.371 311.751 213.109C311.08 212.846 310.364 212.718 309.644 212.732C309.593 212.733 309.543 212.735 309.493 212.737Z" fill="#FFB6B6"/>
<path d="M295.347 237.048C294.885 236.429 294.686 236.17 294.581 236.241C294.311 236.404 294.571 238.591 292.669 242.403C289.992 247.758 261.918 255.959 261.918 255.959L258.462 249.63L243.259 221.815L238.018 199.521C237.835 198.744 237.746 197.947 237.753 197.148C242.425 193.86 247.387 191.003 252.577 188.614C254.651 189.79 256.232 191.674 257.031 193.921L267.496 223.271L271.672 234.99C271.672 234.99 279.039 229.721 281.711 230.688C284.379 231.661 285.137 230.297 283.393 225.929C281.649 221.561 284.267 226.057 287.313 226.343C290.365 226.633 287.313 226.343 288.754 224.489C290.196 222.636 299.517 221.593 299.517 221.593L299.715 222.006L303.327 229.438L304.361 231.573C304.361 231.573 300.532 235.729 299.608 236.557C298.679 237.391 298.393 237.334 298.847 238.284C299.296 239.23 296.951 239.187 295.347 237.048Z" fill="white"/>
</g>
<defs>
<clipPath id="clip0_136_71">
<rect width="552" height="409" fill="white"/>
</clipPath>
</defs>
</svg>
