<svg width="752" height="220" viewBox="0 0 752 220" fill="none" xmlns="http://www.w3.org/2000/svg">
<path d="M177.042 103.772C181.57 106.488 181.576 113.048 177.054 115.772L14.6117 213.609C9.94628 216.419 4.00019 213.059 4.00019 207.612V12.3601C4.00019 6.91975 9.93461 3.55885 14.6003 6.35684L177.042 103.772Z" fill="#00CD9C"/>
<g filter="url(#filter0_d_646_3)">
<path d="M72.4998 108.404C81.7566 138.165 4.00003 143.431 4.00003 165.777C4.00002 124.522 4 128.122 4 108.186C4 88.2492 3.99996 72.6583 4.00008 53.7498C4.00004 76.9557 81.7565 80.5732 72.4998 108.404Z" fill="white"/>
<ellipse cx="66.0201" cy="108.974" rx="7.40537" ry="15.7785" fill="white"/>
</g>
<g filter="url(#filter1_d_646_3)">
<path d="M298.838 57.7348L269.172 147.804H251.095L221.556 57.7348H242.089L260.102 117.844L278.179 57.7348H298.838Z" fill="#37474F"/>
<path d="M326.74 131.348C327.412 131.557 328.084 131.704 328.755 131.787C329.427 131.829 330.099 131.85 330.771 131.85C332.45 131.85 334.067 131.62 335.621 131.159C337.174 130.699 338.623 130.05 339.967 129.212C341.352 128.333 342.57 127.286 343.62 126.072C344.711 124.815 345.593 123.434 346.265 121.926L358.862 134.551C357.266 136.812 355.419 138.843 353.319 140.643C351.262 142.444 349.015 143.972 346.58 145.229C344.187 146.485 341.646 147.427 338.959 148.055C336.314 148.725 333.584 149.06 330.771 149.06C326.026 149.06 321.554 148.181 317.355 146.422C313.198 144.663 309.545 142.214 306.396 139.073C303.289 135.933 300.832 132.206 299.027 127.893C297.221 123.538 296.318 118.765 296.318 113.573C296.318 108.255 297.221 103.397 299.027 99.0007C300.832 94.604 303.289 90.8564 306.396 87.7578C309.545 84.6592 313.198 82.2515 317.355 80.5347C321.554 78.8179 326.026 77.9595 330.771 77.9595C333.584 77.9595 336.334 78.2945 339.022 78.9645C341.709 79.6344 344.25 80.5975 346.643 81.8537C349.078 83.1099 351.346 84.6592 353.445 86.5016C355.545 88.3021 357.392 90.333 358.988 92.5941L326.74 131.348ZM335.558 95.9858C334.76 95.6927 333.962 95.5043 333.164 95.4206C332.408 95.3368 331.611 95.2949 330.771 95.2949C328.419 95.2949 326.194 95.7346 324.094 96.6139C322.037 97.4514 320.231 98.6657 318.678 100.257C317.166 101.848 315.969 103.774 315.088 106.035C314.206 108.255 313.765 110.767 313.765 113.573C313.765 114.201 313.786 114.912 313.828 115.708C313.912 116.504 314.017 117.32 314.143 118.158C314.311 118.953 314.5 119.728 314.71 120.482C314.92 121.235 315.193 121.905 315.529 122.491L335.558 95.9858Z" fill="#37474F"/>
<path d="M384.875 147.804H367.68V80.5347H371.837L377.505 88.5115C380.277 85.9991 383.426 84.073 386.953 82.733C390.48 81.3512 394.133 80.6603 397.912 80.6603H413.092V97.7445H397.912C396.107 97.7445 394.406 98.0795 392.811 98.7495C391.215 99.4194 389.829 100.341 388.654 101.513C387.478 102.686 386.554 104.067 385.882 105.659C385.211 107.25 384.875 108.946 384.875 110.746V147.804Z" fill="#37474F"/>
<path d="M488.61 113.573C488.61 118.849 487.708 123.664 485.902 128.019C484.096 132.373 481.64 136.121 478.533 139.262C475.426 142.36 471.772 144.768 467.573 146.485C463.416 148.201 458.945 149.06 454.158 149.06C449.413 149.06 444.941 148.181 440.742 146.422C436.585 144.663 432.932 142.214 429.783 139.073C426.675 135.933 424.219 132.206 422.413 127.893C420.608 123.538 419.705 118.765 419.705 113.573V53.7778H436.963V85.1826C437.887 84.0102 438.999 82.9633 440.301 82.0421C441.645 81.1209 443.072 80.3672 444.584 79.781C446.138 79.1948 447.733 78.7551 449.371 78.462C451.008 78.127 452.604 77.9595 454.158 77.9595C458.945 77.9595 463.416 78.8598 467.573 80.6603C471.772 82.419 475.426 84.8895 478.533 88.0718C481.64 91.2542 484.096 95.0228 485.902 99.3776C487.708 103.69 488.61 108.422 488.61 113.573ZM471.29 113.573C471.29 110.976 470.828 108.569 469.904 106.349C469.022 104.088 467.804 102.141 466.251 100.508C464.697 98.8751 462.871 97.5979 460.771 96.6767C458.714 95.7555 456.509 95.2949 454.158 95.2949C451.806 95.2949 449.581 95.8183 447.481 96.8652C445.424 97.8701 443.618 99.231 442.065 100.948C440.511 102.623 439.293 104.57 438.412 106.789C437.53 108.966 437.089 111.228 437.089 113.573C437.089 116.169 437.53 118.576 438.412 120.796C439.293 123.015 440.511 124.941 442.065 126.574C443.618 128.207 445.424 129.505 447.481 130.468C449.581 131.389 451.806 131.85 454.158 131.85C456.509 131.85 458.714 131.389 460.771 130.468C462.871 129.505 464.697 128.207 466.251 126.574C467.804 124.941 469.022 123.015 469.904 120.796C470.828 118.576 471.29 116.169 471.29 113.573Z" fill="#37474F"/>
<path d="M518.087 75.7612V111.814H536.164C538.641 111.814 540.971 111.353 543.155 110.432C545.338 109.469 547.249 108.171 548.887 106.538C550.524 104.905 551.805 103 552.729 100.822C553.694 98.6029 554.177 96.258 554.177 93.7875C554.177 91.317 553.694 88.993 552.729 86.8156C551.805 84.5964 550.524 82.6702 548.887 81.0372C547.249 79.4041 545.338 78.127 543.155 77.2058C540.971 76.2427 538.641 75.7612 536.164 75.7612H518.087ZM518.087 147.804H500.011V57.7348H536.164C539.481 57.7348 542.672 58.1745 545.737 59.0538C548.803 59.8913 551.658 61.1056 554.303 62.6968C556.991 64.2461 559.426 66.1304 561.609 68.3496C563.835 70.527 565.724 72.9557 567.278 75.6355C568.874 78.3154 570.091 81.1837 570.931 84.2405C571.813 87.2972 572.254 90.4795 572.254 93.7875C572.254 98.7285 571.309 103.397 569.42 107.794C567.53 112.149 564.948 115.959 561.672 119.225C558.397 122.491 554.555 125.067 550.146 126.951C545.779 128.835 541.118 129.777 536.164 129.777H518.087V147.804Z" fill="#37474F"/>
<path d="M598.392 147.804H581.072V53.7778H598.392V147.804Z" fill="#37474F"/>
<path d="M676.871 147.804H672.714L666.038 138.571C664.4 140.036 662.658 141.418 660.81 142.716C659.005 143.972 657.094 145.082 655.079 146.045C653.063 146.966 650.985 147.699 648.843 148.243C646.744 148.788 644.602 149.06 642.419 149.06C637.674 149.06 633.202 148.264 629.003 146.673C624.846 145.082 621.193 142.779 618.044 139.764C614.936 136.707 612.48 132.981 610.674 128.584C608.869 124.187 607.966 119.183 607.966 113.573C607.966 108.338 608.869 103.544 610.674 99.1891C612.48 94.7925 614.936 91.0239 618.044 87.8834C621.193 84.7429 624.846 82.3143 629.003 80.5975C633.202 78.8388 637.674 77.9595 642.419 77.9595C644.602 77.9595 646.765 78.2317 648.906 78.776C651.048 79.3204 653.126 80.0741 655.142 81.0372C657.157 82.0002 659.068 83.1308 660.873 84.4289C662.721 85.7269 664.442 87.1297 666.038 88.6371L672.714 80.6603H676.871V147.804ZM659.551 113.573C659.551 111.228 659.089 108.966 658.165 106.789C657.283 104.57 656.065 102.623 654.512 100.948C652.958 99.231 651.132 97.8701 649.032 96.8652C646.975 95.8183 644.77 95.2949 642.419 95.2949C640.067 95.2949 637.842 95.6927 635.742 96.4883C633.685 97.2839 631.879 98.4563 630.326 100.006C628.814 101.555 627.617 103.481 626.736 105.784C625.854 108.045 625.413 110.641 625.413 113.573C625.413 116.504 625.854 119.121 626.736 121.424C627.617 123.685 628.814 125.59 630.326 127.139C631.879 128.689 633.685 129.861 635.742 130.657C637.842 131.452 640.067 131.85 642.419 131.85C644.77 131.85 646.975 131.348 649.032 130.343C651.132 129.296 652.958 127.935 654.512 126.26C656.065 124.543 657.283 122.596 658.165 120.419C659.089 118.199 659.551 115.917 659.551 113.573Z" fill="#37474F"/>
<path d="M706.285 173.43V156.157L715.859 156.283C717.538 156.283 719.155 156.011 720.709 155.466C722.262 154.922 723.69 154.168 724.992 153.205C726.335 152.242 727.511 151.091 728.519 149.751C729.526 148.453 730.345 147.029 730.975 145.48C729.086 146.275 727.154 147.071 725.18 147.867C723.249 148.662 721.296 149.06 719.323 149.06C715.166 149.06 711.261 148.327 707.608 146.862C703.955 145.396 700.742 143.323 697.971 140.643C695.242 137.922 693.079 134.635 691.484 130.782C689.93 126.888 689.153 122.533 689.153 117.718V80.5347H706.285V117.718C706.285 120.105 706.621 122.198 707.293 123.999C708.007 125.758 708.951 127.244 710.127 128.458C711.303 129.631 712.668 130.51 714.221 131.096C715.817 131.683 717.517 131.976 719.323 131.976C721.086 131.976 722.745 131.578 724.299 130.782C725.894 129.945 727.28 128.856 728.456 127.516C729.631 126.176 730.555 124.669 731.227 122.994C731.899 121.277 732.235 119.518 732.235 117.718V80.5347H749.556V139.324C749.514 144.056 748.59 148.495 746.784 152.64C744.979 156.785 742.501 160.407 739.352 163.506C736.245 166.605 732.613 169.054 728.456 170.855C724.299 172.655 719.848 173.556 715.103 173.556L706.285 173.43Z" fill="#37474F"/>
</g>
<defs>
<filter id="filter0_d_646_3" x="0" y="53.7498" width="77.4255" height="120.027" filterUnits="userSpaceOnUse" color-interpolation-filters="sRGB">
<feFlood flood-opacity="0" result="BackgroundImageFix"/>
<feColorMatrix in="SourceAlpha" type="matrix" values="0 0 0 0 0 0 0 0 0 0 0 0 0 0 0 0 0 0 127 0" result="hardAlpha"/>
<feOffset dy="4"/>
<feGaussianBlur stdDeviation="2"/>
<feComposite in2="hardAlpha" operator="out"/>
<feColorMatrix type="matrix" values="0 0 0 0 0 0 0 0 0 0 0 0 0 0 0 0 0 0 0.25 0"/>
<feBlend mode="normal" in2="BackgroundImageFix" result="effect1_dropShadow_646_3"/>
<feBlend mode="normal" in="SourceGraphic" in2="effect1_dropShadow_646_3" result="shape"/>
</filter>
<filter id="filter1_d_646_3" x="221.556" y="53.7778" width="530" height="121.778" filterUnits="userSpaceOnUse" color-interpolation-filters="sRGB">
<feFlood flood-opacity="0" result="BackgroundImageFix"/>
<feColorMatrix in="SourceAlpha" type="matrix" values="0 0 0 0 0 0 0 0 0 0 0 0 0 0 0 0 0 0 127 0" result="hardAlpha"/>
<feOffset dx="2" dy="2"/>
<feComposite in2="hardAlpha" operator="out"/>
<feColorMatrix type="matrix" values="0 0 0 0 0 0 0 0 0 0 0 0 0 0 0 0 0 0 0.25 0"/>
<feBlend mode="normal" in2="BackgroundImageFix" result="effect1_dropShadow_646_3"/>
<feBlend mode="normal" in="SourceGraphic" in2="effect1_dropShadow_646_3" result="shape"/>
</filter>
</defs>
</svg>
