<svg width="238" height="77" viewBox="0 0 238 77" fill="none" xmlns="http://www.w3.org/2000/svg">
<path d="M58.0111 32.3902C62.5392 35.1057 62.5455 41.6657 58.0225 44.3898L14.6116 70.5357C9.94609 73.3457 4 69.9856 4 64.5393V12.3601C4 6.91973 9.93443 3.55885 14.6001 6.35684L58.0111 32.3902Z" fill="#00CD9C"/>
<g filter="url(#filter0_d_624_2)">
<path d="M27.9522 37.9053C31.189 48.3118 4.00001 50.1531 4.00001 57.967C4.00001 43.5414 4 44.8002 4 37.829C4 30.8579 3.99999 25.4063 4.00003 18.7946C4.00002 26.9089 31.189 28.1739 27.9522 37.9053Z" fill="white"/>
<ellipse cx="25.6865" cy="38.1049" rx="2.58942" ry="5.51724" fill="white"/>
</g>
<g filter="url(#filter1_d_624_2)">
<path d="M96.0039 24.9922L86.8047 53H81.1992L72.0391 24.9922H78.4062L83.9922 43.6836L89.5977 24.9922H96.0039ZM104.656 47.8828C104.865 47.9479 105.073 47.9935 105.281 48.0195C105.49 48.0326 105.698 48.0391 105.906 48.0391C106.427 48.0391 106.928 47.9674 107.41 47.8242C107.892 47.681 108.341 47.4792 108.758 47.2188C109.188 46.9453 109.565 46.6198 109.891 46.2422C110.229 45.8516 110.503 45.4219 110.711 44.9531L114.617 48.8789C114.122 49.582 113.549 50.2135 112.898 50.7734C112.26 51.3333 111.564 51.8086 110.809 52.1992C110.066 52.5898 109.279 52.8828 108.445 53.0781C107.625 53.2865 106.779 53.3906 105.906 53.3906C104.435 53.3906 103.048 53.1172 101.746 52.5703C100.457 52.0234 99.3242 51.2617 98.3477 50.2852C97.3841 49.3086 96.6224 48.1497 96.0625 46.8086C95.5026 45.4544 95.2227 43.9701 95.2227 42.3555C95.2227 40.7018 95.5026 39.1914 96.0625 37.8242C96.6224 36.457 97.3841 35.2917 98.3477 34.3281C99.3242 33.3646 100.457 32.6159 101.746 32.082C103.048 31.5482 104.435 31.2812 105.906 31.2812C106.779 31.2812 107.632 31.3854 108.465 31.5938C109.298 31.8021 110.086 32.1016 110.828 32.4922C111.583 32.8828 112.286 33.3646 112.938 33.9375C113.589 34.4974 114.161 35.1289 114.656 35.832L104.656 47.8828ZM107.391 36.8867C107.143 36.7956 106.896 36.737 106.648 36.7109C106.414 36.6849 106.167 36.6719 105.906 36.6719C105.177 36.6719 104.487 36.8086 103.836 37.082C103.198 37.3424 102.638 37.7201 102.156 38.2148C101.688 38.7096 101.316 39.3086 101.043 40.0117C100.77 40.7018 100.633 41.4831 100.633 42.3555C100.633 42.5508 100.639 42.7721 100.652 43.0195C100.678 43.2669 100.711 43.5208 100.75 43.7812C100.802 44.0286 100.861 44.2695 100.926 44.5039C100.991 44.7383 101.076 44.9466 101.18 45.1289L107.391 36.8867ZM122.684 53H117.352V32.082H118.641L120.398 34.5625C121.258 33.7812 122.234 33.1823 123.328 32.7656C124.422 32.3359 125.555 32.1211 126.727 32.1211H131.434V37.4336H126.727C126.167 37.4336 125.639 37.5378 125.145 37.7461C124.65 37.9544 124.22 38.2409 123.855 38.6055C123.491 38.9701 123.204 39.3997 122.996 39.8945C122.788 40.3893 122.684 40.9167 122.684 41.4766V53ZM154.852 42.3555C154.852 43.9961 154.572 45.4935 154.012 46.8477C153.452 48.2018 152.69 49.3672 151.727 50.3438C150.763 51.3073 149.63 52.056 148.328 52.5898C147.039 53.1237 145.652 53.3906 144.168 53.3906C142.697 53.3906 141.31 53.1172 140.008 52.5703C138.719 52.0234 137.586 51.2617 136.609 50.2852C135.646 49.3086 134.884 48.1497 134.324 46.8086C133.764 45.4544 133.484 43.9701 133.484 42.3555V23.7617H138.836V33.5273C139.122 33.1628 139.467 32.8372 139.871 32.5508C140.288 32.2643 140.73 32.0299 141.199 31.8477C141.681 31.6654 142.176 31.5286 142.684 31.4375C143.191 31.3333 143.686 31.2812 144.168 31.2812C145.652 31.2812 147.039 31.5612 148.328 32.1211C149.63 32.668 150.763 33.4362 151.727 34.4258C152.69 35.4154 153.452 36.5872 154.012 37.9414C154.572 39.2826 154.852 40.7539 154.852 42.3555ZM149.48 42.3555C149.48 41.5482 149.337 40.7995 149.051 40.1094C148.777 39.4062 148.4 38.8008 147.918 38.293C147.436 37.7852 146.87 37.388 146.219 37.1016C145.581 36.8151 144.897 36.6719 144.168 36.6719C143.439 36.6719 142.749 36.8346 142.098 37.1602C141.46 37.4727 140.9 37.8958 140.418 38.4297C139.936 38.9505 139.559 39.556 139.285 40.2461C139.012 40.9232 138.875 41.6263 138.875 42.3555C138.875 43.1628 139.012 43.9115 139.285 44.6016C139.559 45.2917 139.936 45.8906 140.418 46.3984C140.9 46.9062 141.46 47.3099 142.098 47.6094C142.749 47.8958 143.439 48.0391 144.168 48.0391C144.897 48.0391 145.581 47.8958 146.219 47.6094C146.87 47.3099 147.436 46.9062 147.918 46.3984C148.4 45.8906 148.777 45.2917 149.051 44.6016C149.337 43.9115 149.48 43.1628 149.48 42.3555ZM163.992 30.5977V41.8086H169.598C170.366 41.8086 171.089 41.6654 171.766 41.3789C172.443 41.0794 173.035 40.6758 173.543 40.168C174.051 39.6602 174.448 39.0677 174.734 38.3906C175.034 37.7005 175.184 36.9714 175.184 36.2031C175.184 35.4349 175.034 34.7122 174.734 34.0352C174.448 33.3451 174.051 32.7461 173.543 32.2383C173.035 31.7305 172.443 31.3333 171.766 31.0469C171.089 30.7474 170.366 30.5977 169.598 30.5977H163.992ZM163.992 53H158.387V24.9922H169.598C170.626 24.9922 171.616 25.1289 172.566 25.4023C173.517 25.6628 174.402 26.0404 175.223 26.5352C176.056 27.0169 176.811 27.6029 177.488 28.293C178.178 28.9701 178.764 29.7253 179.246 30.5586C179.741 31.3919 180.118 32.2839 180.379 33.2344C180.652 34.1849 180.789 35.1745 180.789 36.2031C180.789 37.7396 180.496 39.1914 179.91 40.5586C179.324 41.9128 178.523 43.0977 177.508 44.1133C176.492 45.1289 175.301 45.9297 173.934 46.5156C172.579 47.1016 171.134 47.3945 169.598 47.3945H163.992V53ZM188.895 53H183.523V23.7617H188.895V53ZM213.23 53H211.941L209.871 50.1289C209.363 50.5846 208.823 51.0143 208.25 51.418C207.69 51.8086 207.098 52.1536 206.473 52.4531C205.848 52.7396 205.203 52.9674 204.539 53.1367C203.888 53.306 203.224 53.3906 202.547 53.3906C201.076 53.3906 199.689 53.1432 198.387 52.6484C197.098 52.1536 195.965 51.4375 194.988 50.5C194.025 49.5495 193.263 48.3906 192.703 47.0234C192.143 45.6562 191.863 44.1003 191.863 42.3555C191.863 40.7279 192.143 39.237 192.703 37.8828C193.263 36.5156 194.025 35.3438 194.988 34.3672C195.965 33.3906 197.098 32.6354 198.387 32.1016C199.689 31.5547 201.076 31.2812 202.547 31.2812C203.224 31.2812 203.895 31.3659 204.559 31.5352C205.223 31.7044 205.867 31.9388 206.492 32.2383C207.117 32.5378 207.71 32.8893 208.27 33.293C208.842 33.6966 209.376 34.1328 209.871 34.6016L211.941 32.1211H213.23V53ZM207.859 42.3555C207.859 41.6263 207.716 40.9232 207.43 40.2461C207.156 39.556 206.779 38.9505 206.297 38.4297C205.815 37.8958 205.249 37.4727 204.598 37.1602C203.96 36.8346 203.276 36.6719 202.547 36.6719C201.818 36.6719 201.128 36.7956 200.477 37.043C199.839 37.2904 199.279 37.6549 198.797 38.1367C198.328 38.6185 197.957 39.2174 197.684 39.9336C197.41 40.6367 197.273 41.444 197.273 42.3555C197.273 43.2669 197.41 44.0807 197.684 44.7969C197.957 45.5 198.328 46.0924 198.797 46.5742C199.279 47.056 199.839 47.4206 200.477 47.668C201.128 47.9154 201.818 48.0391 202.547 48.0391C203.276 48.0391 203.96 47.8828 204.598 47.5703C205.249 47.2448 205.815 46.8216 206.297 46.3008C206.779 45.7669 207.156 45.1615 207.43 44.4844C207.716 43.7943 207.859 43.0846 207.859 42.3555ZM222.352 60.9688V55.5977L225.32 55.6367C225.841 55.6367 226.342 55.5521 226.824 55.3828C227.306 55.2135 227.749 54.9792 228.152 54.6797C228.569 54.3802 228.934 54.0221 229.246 53.6055C229.559 53.2018 229.812 52.7591 230.008 52.2773C229.422 52.5247 228.823 52.7721 228.211 53.0195C227.612 53.2669 227.007 53.3906 226.395 53.3906C225.105 53.3906 223.895 53.1628 222.762 52.707C221.629 52.2513 220.633 51.6068 219.773 50.7734C218.927 49.9271 218.257 48.9049 217.762 47.707C217.28 46.4961 217.039 45.1419 217.039 43.6445V32.082H222.352V43.6445C222.352 44.3867 222.456 45.0378 222.664 45.5977C222.885 46.1445 223.178 46.6068 223.543 46.9844C223.908 47.349 224.331 47.6224 224.812 47.8047C225.307 47.987 225.835 48.0781 226.395 48.0781C226.941 48.0781 227.456 47.9544 227.938 47.707C228.432 47.4466 228.862 47.1081 229.227 46.6914C229.591 46.2747 229.878 45.806 230.086 45.2852C230.294 44.7513 230.398 44.2044 230.398 43.6445V32.082H235.77V50.3633C235.757 51.8346 235.47 53.2148 234.91 54.5039C234.35 55.793 233.582 56.9193 232.605 57.8828C231.642 58.8464 230.516 59.6081 229.227 60.168C227.938 60.7279 226.557 61.0078 225.086 61.0078L222.352 60.9688Z" fill="white"/>
</g>
<defs>
<filter id="filter0_d_624_2" x="0" y="18.7946" width="32.2759" height="47.1724" filterUnits="userSpaceOnUse" color-interpolation-filters="sRGB">
<feFlood flood-opacity="0" result="BackgroundImageFix"/>
<feColorMatrix in="SourceAlpha" type="matrix" values="0 0 0 0 0 0 0 0 0 0 0 0 0 0 0 0 0 0 127 0" result="hardAlpha"/>
<feOffset dy="4"/>
<feGaussianBlur stdDeviation="2"/>
<feComposite in2="hardAlpha" operator="out"/>
<feColorMatrix type="matrix" values="0 0 0 0 0 0 0 0 0 0 0 0 0 0 0 0 0 0 0.25 0"/>
<feBlend mode="normal" in2="BackgroundImageFix" result="effect1_dropShadow_624_2"/>
<feBlend mode="normal" in="SourceGraphic" in2="effect1_dropShadow_624_2" result="shape"/>
</filter>
<filter id="filter1_d_624_2" x="72.0391" y="23.7617" width="165.73" height="39.2461" filterUnits="userSpaceOnUse" color-interpolation-filters="sRGB">
<feFlood flood-opacity="0" result="BackgroundImageFix"/>
<feColorMatrix in="SourceAlpha" type="matrix" values="0 0 0 0 0 0 0 0 0 0 0 0 0 0 0 0 0 0 127 0" result="hardAlpha"/>
<feOffset dx="2" dy="2"/>
<feComposite in2="hardAlpha" operator="out"/>
<feColorMatrix type="matrix" values="0 0 0 0 0 0 0 0 0 0 0 0 0 0 0 0 0 0 0.25 0"/>
<feBlend mode="normal" in2="BackgroundImageFix" result="effect1_dropShadow_624_2"/>
<feBlend mode="normal" in="SourceGraphic" in2="effect1_dropShadow_624_2" result="shape"/>
</filter>
</defs>
</svg>
