<svg width="678" height="563" viewBox="0 0 678 563" fill="none" xmlns="http://www.w3.org/2000/svg">
<g clip-path="url(#clip0_435_2)">
<path opacity="0.1" d="M53.4871 495.035C58.6376 497.467 64.034 499.568 69.3581 501.663C89.027 509.271 108.992 516.946 130.122 519.557C169.778 524.455 210.737 511.193 249.72 519.444C282.381 526.35 309.392 547.512 341.3 556.936C356.137 561.317 371.574 563.033 387.148 563.033H389.16C391.089 563.011 393.003 562.967 394.903 562.901C410.695 562.357 426.551 560.217 442.032 557.479C490.911 548.864 540.658 533.07 578.028 503.995C469.245 485.75 245.105 457.795 53.4871 495.035Z" fill="#00BFA6"/>
<path d="M80.1365 493.093C80.1365 493.093 97.9825 437.581 76.7873 396.723C67.8896 379.577 64.9382 360.324 69.0471 341.714C71.0118 332.879 73.857 324.227 77.5468 315.867" stroke="#535461" stroke-width="2" stroke-miterlimit="10"/>
<path d="M64.3668 290.079C64.3668 296.886 77.8145 316.589 77.8145 316.589C77.8145 316.589 91.2623 296.859 91.2623 290.079C91.1808 286.862 89.7286 283.802 87.2162 281.553C84.7039 279.304 81.3307 278.045 77.8182 278.045C74.3056 278.045 70.9325 279.304 68.4201 281.553C65.9077 283.802 64.4555 286.862 64.3741 290.079H64.3668Z" fill="#00BFA6"/>
<path d="M42.1372 327.763C46.1737 333.476 69.1628 343.338 69.1628 343.338C69.1628 343.338 68.7433 320.082 64.7068 314.369C63.7697 312.967 62.5359 311.751 61.0779 310.793C59.6199 309.834 57.9674 309.153 56.2175 308.789C54.4677 308.425 52.656 308.385 50.8892 308.672C49.1224 308.959 47.4362 309.568 45.9299 310.461C44.4236 311.354 43.1277 312.515 42.1186 313.875C41.1095 315.234 40.4075 316.765 40.0541 318.376C39.7006 319.988 39.7029 321.649 40.0606 323.26C40.4184 324.871 41.1244 326.4 42.1372 327.757V327.763Z" fill="#00BFA6"/>
<path d="M43.1355 392.163C49.7689 395.225 75.044 393.111 75.044 393.111C75.044 393.111 61.8712 373.228 55.2377 370.166C53.6561 369.389 51.9208 368.91 50.134 368.757C48.3472 368.604 46.545 368.781 44.8337 369.276C43.1224 369.771 41.5366 370.575 40.1697 371.64C38.8028 372.705 37.6824 374.011 36.8746 375.479C36.0668 376.947 35.588 378.548 35.4663 380.189C35.3446 381.829 35.5824 383.475 36.1659 385.03C36.7494 386.585 37.6666 388.017 38.8636 389.242C40.0606 390.467 41.5131 391.46 43.1355 392.163Z" fill="#00BFA6"/>
<path d="M55.8236 440.736C61.7916 444.779 87.1028 446.608 87.1028 446.608C87.1028 446.608 77.7856 424.976 71.8177 420.926C68.9485 419.014 65.3708 418.218 61.8641 418.712C58.3573 419.206 55.2056 420.949 53.0957 423.563C50.9857 426.176 50.0885 429.447 50.5995 432.664C51.1104 435.881 52.9882 438.782 55.8236 440.736Z" fill="#00BFA6"/>
<path d="M97.3893 344.657C92.0652 349.396 67.2458 354.307 67.2458 354.307C67.2458 354.307 73.3223 331.727 78.6464 326.982C81.2048 324.704 84.6457 323.452 88.2122 323.499C91.7788 323.546 95.1787 324.889 97.6642 327.233C100.15 329.577 101.517 332.73 101.465 335.997C101.414 339.265 99.9477 342.38 97.3893 344.657Z" fill="#00BFA6"/>
<path d="M111.474 401.64C104.84 404.702 79.5652 402.588 79.5652 402.588C79.5652 402.588 92.738 382.705 99.3715 379.644C102.545 378.249 106.19 378.05 109.522 379.09C112.854 380.129 115.609 382.325 117.194 385.204C118.779 388.084 119.069 391.418 118.001 394.491C116.933 397.564 114.592 400.131 111.481 401.64H111.474Z" fill="#00BFA6"/>
<path d="M116.863 458.736C110.895 462.779 85.5837 464.608 85.5837 464.608C85.5837 464.608 94.9009 442.976 100.869 438.927C103.738 437.014 107.316 436.219 110.822 436.712C114.329 437.206 117.481 438.95 119.591 441.563C121.701 444.176 122.598 447.448 122.087 450.664C121.576 453.881 119.698 456.782 116.863 458.736Z" fill="#00BFA6"/>
<path opacity="0.25" d="M64.3668 290.079C64.3668 296.886 77.8145 316.589 77.8145 316.589C77.8145 316.589 91.2623 296.859 91.2623 290.079C91.1808 286.862 89.7286 283.802 87.2162 281.553C84.7039 279.304 81.3307 278.045 77.8182 278.045C74.3056 278.045 70.9325 279.304 68.4201 281.553C65.9077 283.802 64.4555 286.862 64.3741 290.079H64.3668Z" fill="black"/>
<path opacity="0.25" d="M42.1372 327.763C46.1737 333.476 69.1628 343.338 69.1628 343.338C69.1628 343.338 68.7433 320.082 64.7068 314.369C63.7697 312.967 62.5359 311.751 61.0779 310.793C59.6199 309.834 57.9674 309.153 56.2175 308.789C54.4677 308.425 52.656 308.385 50.8892 308.672C49.1224 308.959 47.4362 309.568 45.9299 310.461C44.4236 311.354 43.1277 312.515 42.1186 313.875C41.1095 315.234 40.4075 316.765 40.0541 318.376C39.7006 319.988 39.7029 321.649 40.0606 323.26C40.4184 324.871 41.1244 326.4 42.1372 327.757V327.763Z" fill="black"/>
<path opacity="0.25" d="M43.1355 392.163C49.7689 395.225 75.044 393.111 75.044 393.111C75.044 393.111 61.8712 373.228 55.2377 370.166C53.6561 369.389 51.9208 368.91 50.134 368.757C48.3472 368.604 46.545 368.781 44.8337 369.276C43.1224 369.771 41.5366 370.575 40.1697 371.64C38.8028 372.705 37.6824 374.011 36.8746 375.479C36.0668 376.947 35.588 378.548 35.4663 380.189C35.3446 381.829 35.5824 383.475 36.1659 385.03C36.7494 386.585 37.6666 388.017 38.8636 389.242C40.0606 390.467 41.5131 391.46 43.1355 392.163Z" fill="black"/>
<path opacity="0.25" d="M55.8236 440.736C61.7916 444.779 87.1028 446.608 87.1028 446.608C87.1028 446.608 77.7856 424.976 71.8177 420.926C68.9485 419.014 65.3708 418.218 61.8641 418.712C58.3573 419.206 55.2056 420.949 53.0957 423.563C50.9857 426.176 50.0885 429.447 50.5995 432.664C51.1104 435.881 52.9882 438.782 55.8236 440.736Z" fill="black"/>
<path opacity="0.25" d="M97.3893 344.657C92.0652 349.396 67.2458 354.307 67.2458 354.307C67.2458 354.307 73.3223 331.727 78.6464 326.982C81.2048 324.704 84.6457 323.452 88.2122 323.499C91.7788 323.546 95.1787 324.889 97.6642 327.233C100.15 329.577 101.517 332.73 101.465 335.997C101.414 339.265 99.9477 342.38 97.3893 344.657Z" fill="black"/>
<path opacity="0.25" d="M111.474 401.64C104.84 404.702 79.5652 402.588 79.5652 402.588C79.5652 402.588 92.738 382.705 99.3715 379.644C102.545 378.249 106.19 378.05 109.522 379.09C112.854 380.129 115.609 382.325 117.194 385.204C118.779 388.084 119.069 391.418 118.001 394.491C116.933 397.564 114.592 400.131 111.481 401.64H111.474Z" fill="black"/>
<path opacity="0.25" d="M116.863 458.736C110.895 462.779 85.5837 464.608 85.5837 464.608C85.5837 464.608 94.9009 442.976 100.869 438.927C103.738 437.014 107.316 436.219 110.822 436.712C114.329 437.206 117.481 438.95 119.591 441.563C121.701 444.176 122.598 447.448 122.087 450.664C121.576 453.881 119.698 456.782 116.863 458.736Z" fill="black"/>
<path d="M172.216 476.186C172.216 476.186 181.881 446.13 170.408 424.015C165.532 414.765 164.062 404.317 166.219 394.237C167.284 389.459 168.824 384.78 170.82 380.26" stroke="#535461" stroke-width="2" stroke-miterlimit="10"/>
<path d="M163.68 366.276C163.68 369.961 170.958 380.638 170.958 380.638C170.958 380.638 178.235 369.954 178.235 366.276C178.235 364.507 177.468 362.81 176.102 361.559C174.737 360.308 172.885 359.605 170.954 359.605C169.023 359.605 167.171 360.308 165.806 361.559C164.44 362.81 163.673 364.507 163.673 366.276H163.68Z" fill="#00BFA6"/>
<path d="M151.643 386.675C153.813 389.764 166.277 395.106 166.277 395.106C166.277 395.106 166.053 382.513 163.868 379.425C163.349 378.689 162.676 378.055 161.889 377.558C161.102 377.06 160.215 376.71 159.28 376.527C158.345 376.343 157.38 376.33 156.439 376.489C155.499 376.647 154.602 376.974 153.799 377.45C152.996 377.926 152.304 378.542 151.761 379.263C151.218 379.985 150.836 380.797 150.636 381.654C150.435 382.51 150.421 383.395 150.594 384.256C150.767 385.118 151.124 385.94 151.643 386.675Z" fill="#00BFA6"/>
<path d="M152.171 421.543C155.788 423.199 169.446 422.053 169.446 422.053C169.446 422.053 162.313 411.29 158.725 409.633C157.87 409.239 156.939 409.002 155.984 408.938C155.03 408.874 154.071 408.982 153.162 409.257C152.253 409.532 151.412 409.969 150.687 410.541C149.963 411.114 149.368 411.812 148.938 412.595C148.507 413.379 148.25 414.232 148.179 415.107C148.109 415.981 148.227 416.86 148.527 417.692C148.828 418.525 149.304 419.295 149.929 419.959C150.554 420.623 151.316 421.168 152.171 421.562V421.543Z" fill="#00BFA6"/>
<path d="M159.051 447.841C162.284 450.028 175.985 451.022 175.985 451.022C175.985 451.022 170.921 439.311 167.71 437.104C166.941 436.582 166.068 436.203 165.14 435.99C164.212 435.777 163.247 435.734 162.3 435.863C161.354 435.991 160.444 436.289 159.624 436.74C158.803 437.191 158.087 437.785 157.517 438.489C156.947 439.193 156.534 439.993 156.302 440.844C156.069 441.694 156.022 442.578 156.162 443.445C156.302 444.312 156.628 445.145 157.12 445.897C157.612 446.649 158.26 447.305 159.029 447.827L159.051 447.841Z" fill="#00BFA6"/>
<path d="M181.562 395.821C178.669 398.386 165.243 401.044 165.243 401.044C165.243 401.044 168.534 388.816 171.413 386.251C172.093 385.614 172.905 385.108 173.801 384.763C174.698 384.418 175.661 384.241 176.633 384.242C177.605 384.244 178.567 384.424 179.462 384.772C180.358 385.12 181.167 385.629 181.844 386.269C182.521 386.908 183.051 387.666 183.403 388.496C183.755 389.327 183.922 390.213 183.894 391.104C183.865 391.994 183.643 392.87 183.238 393.681C182.834 394.491 182.257 395.219 181.541 395.821H181.562Z" fill="#00BFA6"/>
<path d="M189.18 426.672C185.563 428.329 171.905 427.183 171.905 427.183C171.905 427.183 179.038 416.42 182.626 414.763C183.481 414.369 184.412 414.132 185.367 414.068C186.321 414.003 187.28 414.112 188.189 414.387C189.098 414.662 189.939 415.098 190.664 415.671C191.388 416.244 191.983 416.942 192.413 417.725C192.844 418.509 193.101 419.362 193.172 420.236C193.242 421.111 193.124 421.99 192.824 422.822C192.523 423.655 192.047 424.425 191.422 425.089C190.797 425.753 190.035 426.298 189.18 426.692V426.672Z" fill="#00BFA6"/>
<path d="M192.102 457.583C188.869 459.77 175.168 460.764 175.168 460.764C175.168 460.764 180.231 449.053 183.443 446.846C184.995 445.792 186.941 445.345 188.853 445.605C190.764 445.865 192.485 446.81 193.636 448.232C194.787 449.654 195.274 451.436 194.991 453.188C194.707 454.939 193.676 456.515 192.124 457.57L192.102 457.583Z" fill="#00BFA6"/>
<path opacity="0.5" d="M163.68 366.276C163.68 369.961 170.958 380.638 170.958 380.638C170.958 380.638 178.235 369.954 178.235 366.276C178.235 364.507 177.468 362.81 176.102 361.559C174.737 360.308 172.885 359.605 170.954 359.605C169.023 359.605 167.171 360.308 165.806 361.559C164.44 362.81 163.673 364.507 163.673 366.276H163.68Z" fill="white"/>
<path opacity="0.5" d="M151.643 386.675C153.813 389.764 166.277 395.106 166.277 395.106C166.277 395.106 166.053 382.513 163.868 379.425C163.349 378.689 162.676 378.055 161.889 377.558C161.102 377.06 160.215 376.71 159.28 376.527C158.345 376.343 157.38 376.33 156.439 376.489C155.499 376.647 154.602 376.974 153.799 377.45C152.996 377.926 152.304 378.542 151.761 379.263C151.218 379.985 150.836 380.797 150.636 381.654C150.435 382.51 150.421 383.395 150.594 384.256C150.767 385.118 151.124 385.94 151.643 386.675Z" fill="white"/>
<path opacity="0.5" d="M152.171 421.543C155.788 423.199 169.446 422.053 169.446 422.053C169.446 422.053 162.313 411.29 158.725 409.633C157.87 409.239 156.939 409.002 155.984 408.938C155.03 408.874 154.071 408.982 153.162 409.257C152.253 409.532 151.412 409.969 150.687 410.541C149.963 411.114 149.368 411.812 148.938 412.595C148.507 413.379 148.25 414.232 148.179 415.107C148.109 415.981 148.227 416.86 148.527 417.692C148.828 418.525 149.304 419.295 149.929 419.959C150.554 420.623 151.316 421.168 152.171 421.562V421.543Z" fill="white"/>
<path opacity="0.5" d="M159.051 447.841C162.284 450.028 175.985 451.022 175.985 451.022C175.985 451.022 170.921 439.311 167.71 437.104C166.941 436.582 166.068 436.203 165.14 435.99C164.212 435.777 163.247 435.734 162.3 435.863C161.354 435.991 160.444 436.289 159.624 436.74C158.803 437.191 158.087 437.785 157.517 438.489C156.947 439.193 156.534 439.993 156.302 440.844C156.069 441.694 156.022 442.578 156.162 443.445C156.302 444.312 156.628 445.145 157.12 445.897C157.612 446.649 158.26 447.305 159.029 447.827L159.051 447.841Z" fill="white"/>
<path opacity="0.5" d="M181.562 395.821C178.669 398.386 165.243 401.044 165.243 401.044C165.243 401.044 168.534 388.816 171.413 386.251C172.093 385.614 172.905 385.108 173.801 384.763C174.698 384.418 175.661 384.241 176.633 384.242C177.605 384.244 178.567 384.424 179.462 384.772C180.358 385.12 181.167 385.629 181.844 386.269C182.521 386.908 183.051 387.666 183.403 388.496C183.755 389.327 183.922 390.213 183.894 391.104C183.865 391.994 183.643 392.87 183.238 393.681C182.834 394.491 182.257 395.219 181.541 395.821H181.562Z" fill="white"/>
<path opacity="0.5" d="M189.18 426.672C185.563 428.329 171.905 427.183 171.905 427.183C171.905 427.183 179.038 416.42 182.626 414.763C183.481 414.369 184.412 414.132 185.367 414.068C186.321 414.003 187.28 414.112 188.189 414.387C189.098 414.662 189.939 415.098 190.664 415.671C191.388 416.244 191.983 416.942 192.413 417.725C192.844 418.509 193.101 419.362 193.172 420.236C193.242 421.111 193.124 421.99 192.824 422.822C192.523 423.655 192.047 424.425 191.422 425.089C190.797 425.753 190.035 426.298 189.18 426.692V426.672Z" fill="white"/>
<path opacity="0.5" d="M192.102 457.583C188.869 459.77 175.168 460.764 175.168 460.764C175.168 460.764 180.231 449.053 183.443 446.846C184.995 445.792 186.941 445.345 188.853 445.605C190.764 445.865 192.485 446.81 193.636 448.232C194.787 449.654 195.274 451.436 194.991 453.188C194.707 454.939 193.676 456.515 192.124 457.57L192.102 457.583Z" fill="white"/>
<path opacity="0.03" d="M368.724 317.458C368.724 317.458 367.277 323.926 358.134 324.576L368.724 317.458Z" fill="black"/>
<path opacity="0.03" d="M416.735 377.397C416.735 377.397 405.884 383.004 393.673 382.573L416.735 377.397Z" fill="black"/>
<path d="M475.807 536.165C474.121 534.727 472.537 533.03 472.045 530.969C471.553 528.908 472.515 526.429 474.671 525.667C477.08 524.819 479.662 526.33 481.615 527.901C483.569 529.471 485.811 531.214 488.365 530.883C487.049 529.79 486.066 528.404 485.509 526.859C484.953 525.314 484.842 523.664 485.189 522.068C485.301 521.41 485.606 520.791 486.071 520.279C487.41 518.954 489.84 519.53 491.439 520.564C496.503 523.878 497.95 530.194 497.986 535.907C498.499 533.846 498.065 531.698 498.08 529.584C498.094 527.47 498.723 525.13 500.669 523.99C501.893 523.39 503.269 523.1 504.655 523.149C506.948 523.069 509.502 523.281 511.064 524.819C513.01 526.728 512.511 529.929 510.811 532.03C509.111 534.131 506.543 535.449 504.178 536.901C502.279 537.938 500.659 539.354 499.44 541.043C499.295 541.279 499.176 541.528 499.085 541.785H484.69C481.465 540.288 478.477 538.397 475.807 536.165Z" fill="#00BFA6"/>
<path d="M607.521 432.12C607.521 432.12 661.29 467.982 552.138 507.972C552.138 507.972 532.802 466.948 561.303 437.011C566.838 431.175 574.517 427.4 582.885 426.404C591.254 425.407 599.731 427.257 606.71 431.603L607.521 432.12Z" fill="#00BFA6"/>
<path d="M606.927 431.404C606.927 431.404 555.155 461.586 552.138 507.965" stroke="#535461" stroke-miterlimit="10"/>
<path d="M551.024 502.603C551.024 502.603 568.87 447.092 547.675 406.233C538.777 389.088 535.826 369.835 539.935 351.225C541.899 342.389 544.745 333.737 548.434 325.377" stroke="#535461" stroke-width="2" stroke-miterlimit="10"/>
<path d="M535.247 299.603C535.247 306.41 548.695 326.113 548.695 326.113C548.695 326.113 562.143 306.383 562.143 299.603C562.061 296.386 560.609 293.326 558.096 291.077C555.584 288.828 552.211 287.568 548.698 287.568C545.186 287.568 541.813 288.828 539.3 291.077C536.788 293.326 535.336 296.386 535.254 299.603H535.247Z" fill="#00BFA6"/>
<path d="M513.025 337.287C517.061 343 540.05 352.862 540.05 352.862C540.05 352.862 539.631 329.606 535.594 323.893C533.614 321.24 530.581 319.4 527.142 318.767C523.703 318.134 520.129 318.758 517.185 320.504C514.24 322.251 512.157 324.983 511.38 328.117C510.602 331.251 511.193 334.539 513.025 337.28V337.287Z" fill="#00BFA6"/>
<path d="M513.994 401.687C520.627 404.749 545.903 402.634 545.903 402.634C545.903 402.634 532.73 382.752 526.096 379.69C522.922 378.295 519.278 378.096 515.946 379.136C512.613 380.176 509.859 382.371 508.274 385.25C506.689 388.13 506.399 391.464 507.467 394.537C508.535 397.61 510.876 400.177 513.987 401.687H513.994Z" fill="#00BFA6"/>
<path d="M526.704 450.246C532.672 454.289 557.983 456.118 557.983 456.118C557.983 456.118 548.666 434.486 542.698 430.437C541.28 429.459 539.664 428.749 537.944 428.346C536.224 427.943 534.435 427.857 532.678 428.091C530.922 428.325 529.233 428.876 527.71 429.711C526.187 430.546 524.859 431.649 523.803 432.956C522.748 434.263 521.985 435.749 521.559 437.328C521.134 438.907 521.053 440.547 521.323 442.155C521.593 443.762 522.207 445.305 523.131 446.693C524.054 448.082 525.269 449.29 526.704 450.246Z" fill="#00BFA6"/>
<path d="M568.313 354.181C562.989 358.919 538.17 363.83 538.17 363.83C538.17 363.83 544.246 341.25 549.57 336.505C550.837 335.378 552.334 334.49 553.975 333.892C555.616 333.295 557.37 332.999 559.136 333.023C560.902 333.046 562.646 333.388 564.267 334.029C565.889 334.669 567.357 335.596 568.588 336.757C569.819 337.918 570.788 339.289 571.44 340.793C572.092 342.296 572.415 343.903 572.389 345.521C572.364 347.139 571.991 348.736 571.291 350.222C570.592 351.708 569.58 353.053 568.313 354.181Z" fill="#00BFA6"/>
<path d="M582.361 411.144C575.728 414.206 550.453 412.092 550.453 412.092C550.453 412.092 563.625 392.209 570.259 389.147C571.841 388.37 573.576 387.891 575.363 387.738C577.149 387.586 578.952 387.762 580.663 388.257C582.374 388.752 583.96 389.556 585.327 390.621C586.694 391.687 587.814 392.992 588.622 394.46C589.43 395.928 589.909 397.53 590.03 399.17C590.152 400.81 589.914 402.456 589.331 404.011C588.747 405.566 587.83 406.998 586.633 408.223C585.436 409.448 583.984 410.441 582.361 411.144Z" fill="#00BFA6"/>
<path d="M587.75 468.26C581.782 472.303 556.471 474.132 556.471 474.132C556.471 474.132 565.788 452.5 571.756 448.45C574.625 446.538 578.203 445.742 581.71 446.236C585.217 446.73 588.368 448.473 590.478 451.087C592.588 453.7 593.485 456.971 592.975 460.188C592.464 463.405 590.586 466.306 587.75 468.26Z" fill="#00BFA6"/>
<path opacity="0.25" d="M535.247 299.603C535.247 306.41 548.695 326.113 548.695 326.113C548.695 326.113 562.143 306.383 562.143 299.603C562.061 296.386 560.609 293.326 558.096 291.077C555.584 288.828 552.211 287.568 548.698 287.568C545.186 287.568 541.813 288.828 539.3 291.077C536.788 293.326 535.336 296.386 535.254 299.603H535.247Z" fill="black"/>
<path opacity="0.25" d="M513.025 337.287C517.061 343 540.05 352.862 540.05 352.862C540.05 352.862 539.631 329.606 535.594 323.893C533.614 321.24 530.581 319.4 527.142 318.767C523.703 318.134 520.129 318.758 517.185 320.504C514.24 322.251 512.157 324.983 511.38 328.117C510.602 331.251 511.193 334.539 513.025 337.28V337.287Z" fill="black"/>
<path opacity="0.25" d="M513.994 401.687C520.627 404.749 545.903 402.634 545.903 402.634C545.903 402.634 532.73 382.752 526.096 379.69C522.922 378.295 519.278 378.096 515.946 379.136C512.613 380.176 509.859 382.371 508.274 385.25C506.689 388.13 506.399 391.464 507.467 394.537C508.535 397.61 510.876 400.177 513.987 401.687H513.994Z" fill="black"/>
<path opacity="0.25" d="M526.704 450.246C532.672 454.289 557.983 456.118 557.983 456.118C557.983 456.118 548.666 434.486 542.698 430.437C541.28 429.459 539.664 428.749 537.944 428.346C536.224 427.943 534.435 427.857 532.678 428.091C530.922 428.325 529.233 428.876 527.71 429.711C526.187 430.546 524.859 431.649 523.803 432.956C522.748 434.263 521.985 435.749 521.559 437.328C521.134 438.907 521.053 440.547 521.323 442.155C521.593 443.762 522.207 445.305 523.131 446.693C524.054 448.082 525.269 449.29 526.704 450.246Z" fill="black"/>
<path opacity="0.25" d="M568.313 354.181C562.989 358.919 538.17 363.83 538.17 363.83C538.17 363.83 544.246 341.25 549.57 336.505C550.837 335.378 552.334 334.49 553.975 333.892C555.616 333.295 557.37 332.999 559.136 333.023C560.902 333.046 562.646 333.388 564.267 334.029C565.889 334.669 567.357 335.596 568.588 336.757C569.819 337.918 570.788 339.289 571.44 340.793C572.092 342.296 572.415 343.903 572.389 345.521C572.364 347.139 571.991 348.736 571.291 350.222C570.592 351.708 569.58 353.053 568.313 354.181Z" fill="black"/>
<path opacity="0.25" d="M582.361 411.144C575.728 414.206 550.453 412.092 550.453 412.092C550.453 412.092 563.625 392.209 570.259 389.147C571.841 388.37 573.576 387.891 575.363 387.738C577.149 387.586 578.952 387.762 580.663 388.257C582.374 388.752 583.96 389.556 585.327 390.621C586.694 391.687 587.814 392.992 588.622 394.46C589.43 395.928 589.909 397.53 590.03 399.17C590.152 400.81 589.914 402.456 589.331 404.011C588.747 405.566 587.83 406.998 586.633 408.223C585.436 409.448 583.984 410.441 582.361 411.144Z" fill="black"/>
<path opacity="0.25" d="M587.75 468.26C581.782 472.303 556.471 474.132 556.471 474.132C556.471 474.132 565.788 452.5 571.756 448.45C574.625 446.538 578.203 445.742 581.71 446.236C585.217 446.73 588.368 448.473 590.478 451.087C592.588 453.7 593.485 456.971 592.975 460.188C592.464 463.405 590.586 466.306 587.75 468.26Z" fill="black"/>
<path fill-rule="evenodd" clip-rule="evenodd" d="M20.5 199C20.441 182.728 7.25612 169.555 -9 169.555C7.29239 169.555 20.5 156.322 20.5 140C20.5587 156.272 33.7439 169.445 50 169.445C33.7073 169.445 20.5 182.678 20.5 199Z" fill="#80DFD3"/>
<path fill-rule="evenodd" clip-rule="evenodd" d="M622.5 250C622.441 233.728 609.256 220.555 593 220.555C609.292 220.555 622.5 207.322 622.5 191C622.559 207.272 635.744 220.445 652 220.445C635.707 220.445 622.5 233.678 622.5 250Z" fill="#80DFD3"/>
<path fill-rule="evenodd" clip-rule="evenodd" d="M591.5 199C591.457 187.14 581.848 177.54 570 177.54C581.874 177.54 591.5 167.896 591.5 156C591.543 167.86 601.152 177.46 613 177.46C601.126 177.46 591.5 187.104 591.5 199Z" fill="#80DFD3"/>
<rect x="41.2307" y="197.769" width="8.76923" height="1.46154" rx="0.730769" fill="#00CD9C"/>
<rect x="39.7693" y="197.769" width="8.76923" height="1.46154" rx="0.730769" transform="rotate(-90 39.7693 197.769)" fill="#00CD9C"/>
<rect x="39.7693" y="208" width="8.76923" height="1.46154" rx="0.730769" transform="rotate(-90 39.7693 208)" fill="#00CD9C"/>
<rect x="31" y="197.769" width="8.76923" height="1.46154" rx="0.730769" fill="#00CD9C"/>
</g>
<path d="M333.027 359C312.902 358.998 293.43 351.865 278.072 338.87C262.714 325.874 252.467 307.858 249.152 288.024L249.083 287.605L249.354 287.28C253.868 281.873 257.66 275.904 260.636 269.522C257.346 273.108 253.619 276.268 249.542 278.927L248.181 279.831L248.103 278.201C248.034 276.794 248 275.396 248 274.046C247.993 266.113 249.089 258.218 251.256 250.587C261.127 215.92 262.815 178.693 256.273 139.941C255.155 133.297 254.594 126.57 254.594 119.832C254.604 91.358 264.758 63.8169 283.238 42.1408C301.719 20.4647 327.318 6.06921 355.452 1.53192C383.587 -3.00536 412.419 2.61195 436.787 17.378C461.154 32.144 479.465 55.0944 488.441 82.1197L488.714 82.9436L487.909 83.2688C481.864 85.8256 475.453 87.4147 468.913 87.9778C475.825 89.5664 482.915 90.2468 490.003 90.0018L490.751 89.9759L490.933 90.7026C493.31 100.231 494.511 110.013 494.509 119.832L494.505 120.895C494.483 128.415 496.047 135.855 499.095 142.73C502.144 149.606 506.608 155.762 512.197 160.797C521.28 169.055 528.465 179.18 533.258 190.476C538.051 201.773 540.337 213.973 539.96 226.237C539.583 238.501 536.551 250.537 531.074 261.519C525.597 272.5 517.803 282.166 508.23 289.85L507.787 290.208L507.267 289.972C496.318 285.008 488.341 279.601 482.508 273.146C486.397 281.429 491.633 289.011 498.003 295.584L498.826 296.432L497.804 297.027C484.803 304.601 470.023 308.589 454.974 308.583L454.545 308.582C454.393 308.581 454.241 308.581 454.089 308.581C442.975 308.464 431.948 310.566 421.657 314.764C411.366 318.961 402.018 325.169 394.16 333.025C386.214 341.203 376.714 347.713 366.216 352.174C355.718 356.634 344.435 358.955 333.027 359Z" fill="#E4E4E4"/>
<path d="M302.657 493C302.285 493 301.926 492.866 301.645 492.624C301.364 492.383 301.181 492.049 301.128 491.684C301.062 491.226 294.628 445.239 300.407 384.12C305.744 327.676 322.882 246.375 374.223 179.605C374.346 179.444 374.5 179.31 374.675 179.208C374.851 179.107 375.045 179.041 375.246 179.014C375.447 178.987 375.652 178.999 375.849 179.051C376.045 179.102 376.229 179.191 376.391 179.314C376.553 179.436 376.688 179.588 376.79 179.762C376.893 179.936 376.959 180.129 376.986 180.328C377.013 180.528 377 180.73 376.948 180.925C376.896 181.12 376.806 181.302 376.683 181.462C325.785 247.656 308.785 328.36 303.486 384.406C297.741 445.169 304.125 490.798 304.19 491.252C304.221 491.469 304.204 491.691 304.141 491.901C304.079 492.112 303.971 492.306 303.826 492.472C303.68 492.638 303.501 492.771 303.299 492.862C303.098 492.953 302.879 493 302.657 493Z" fill="#3F3D56"/>
<path d="M328.539 268C328.214 268 327.898 267.896 327.635 267.701C327.372 267.507 327.176 267.233 327.075 266.918C326.975 266.603 326.975 266.264 327.075 265.949C327.175 265.634 327.371 265.36 327.634 265.166C342.185 255.131 357.904 246.979 374.429 240.896C400.247 231.266 439.507 222.536 479.924 235.641C480.117 235.703 480.296 235.804 480.451 235.936C480.606 236.069 480.734 236.231 480.827 236.414C480.92 236.597 480.977 236.797 480.994 237.002C481.012 237.208 480.989 237.415 480.928 237.611C480.866 237.808 480.767 237.99 480.637 238.147C480.506 238.305 480.346 238.434 480.167 238.529C479.987 238.623 479.79 238.68 479.589 238.697C479.387 238.714 479.184 238.69 478.991 238.627C439.402 225.791 400.854 234.377 375.487 243.839C359.227 249.817 343.76 257.833 329.442 267.701C329.18 267.895 328.864 268 328.539 268Z" fill="#3F3D56"/>
<defs>
<clipPath id="clip0_435_2">
<rect width="678" height="537" fill="white" transform="translate(0 26)"/>
</clipPath>
</defs>
</svg>
