<svg width="664" height="453" viewBox="0 0 664 453" fill="none" xmlns="http://www.w3.org/2000/svg">
<g clip-path="url(#clip0_235_905)">
<path d="M261.941 8.44011C244.351 6.06463 224.27 15.5636 219.711 32.7027C218.562 29.6554 216.473 27.0519 213.746 25.2683C211.019 23.4847 207.795 22.6134 204.54 22.7803C201.286 22.9472 198.168 24.1436 195.638 26.1967C193.108 28.2498 191.297 31.0532 190.466 34.2021L192.48 35.6431C230.175 43.7873 269.194 43.6111 306.814 35.1266C294.578 22.2792 279.531 10.8156 261.941 8.44011Z" fill="#F0F0F0"/>
<path d="M186.506 56.7897C168.916 54.4142 148.834 63.9132 144.275 81.0523C143.127 78.0049 141.038 75.4014 138.311 73.6178C135.584 71.8343 132.36 70.963 129.105 71.1299C125.85 71.2967 122.733 72.4931 120.203 74.5462C117.673 76.5993 115.862 79.4028 115.031 82.5516L117.045 83.9926C154.739 92.1369 193.759 91.9606 231.378 83.4762C219.143 70.6287 204.096 59.1651 186.506 56.7897Z" fill="#F0F0F0"/>
<path d="M320.785 153.764C314.831 143.926 307.776 133.422 296.728 130.209C283.933 126.489 270.789 133.879 259.64 141.172C226.299 162.982 194.191 186.618 163.463 211.972L163.496 212.354C187.419 210.705 211.342 209.057 235.265 207.409C252.55 206.218 270.428 204.863 285.703 196.693C291.499 193.593 297.149 189.452 303.717 189.164C311.877 188.805 318.992 194.499 324.584 200.448C357.66 235.638 367.231 289.452 404.339 320.37C380.94 262.715 353.001 207.005 320.785 153.764Z" fill="#F2F2F2"/>
<path d="M524.097 452.239C520.439 447.625 518.945 446.544 515.337 441.887C485.959 403.925 458.347 364.682 432.5 324.156C414.943 296.632 398.258 268.58 382.442 239.999C374.913 226.411 367.59 212.717 360.473 198.916C354.951 188.215 349.552 177.45 344.276 166.621C342.768 163.529 341.302 160.421 339.843 157.307C336.405 149.984 333.032 142.624 329.41 135.4C325.282 127.167 320.258 118.535 312.679 113.003C309.23 110.382 305.105 108.797 300.787 108.431C294.617 108.033 288.924 110.579 283.572 113.359C244.417 133.758 207.76 159.333 174.604 188.436C141.363 217.603 111.651 250.555 86.0741 286.621C85.2916 287.737 83.4412 286.671 84.2311 285.547C87.3411 281.153 90.5127 276.806 93.746 272.507C133.949 219.085 183.244 173.145 239.378 136.787C248.822 130.672 258.444 124.844 268.243 119.303C273.182 116.509 278.142 113.75 283.188 111.162C288.134 108.623 293.386 106.341 299.036 106.256C318.265 105.957 328.221 127.714 335.06 142.354C337.21 146.962 339.385 151.555 341.586 156.134C349.905 173.518 358.545 190.744 367.504 207.811C373.034 218.348 378.685 228.824 384.456 239.238C402.418 271.668 421.509 303.441 441.73 334.558C468.517 375.776 495.09 412.187 525.605 450.732C526.445 451.799 524.944 453.32 524.097 452.239Z" fill="#E4E4E4"/>
<path d="M172.704 177.692C171.587 176.448 170.476 175.204 169.352 173.959C160.485 164.161 150.97 154.477 138.793 148.86C132.988 146.097 126.65 144.63 120.219 144.558C113.573 144.58 107.075 146.322 100.934 148.761C98.0301 149.92 95.1904 151.235 92.3939 152.636C89.1984 154.243 86.0599 155.956 82.936 157.684C77.0718 160.926 71.2837 164.311 65.5717 167.837C54.2065 174.855 43.1972 182.409 32.5438 190.498C27.0212 194.693 21.6125 199.025 16.3179 203.495C11.3933 207.648 6.56833 211.911 1.84297 216.286C0.832482 217.218 -0.676278 215.711 0.334184 214.779C1.57958 213.62 2.8392 212.468 4.09882 211.331C7.65709 208.117 11.2724 204.965 14.9446 201.874C21.641 196.229 28.5108 190.801 35.5541 185.592C46.5065 177.486 57.836 169.93 69.5425 162.924C75.3924 159.426 81.3228 156.075 87.3338 152.87C89.1487 151.903 90.9848 150.958 92.8422 150.062C97.0566 147.938 101.436 146.157 105.936 144.736C112.312 142.676 119.058 142.013 125.713 142.795C132.139 143.729 138.33 145.869 143.96 149.102C155.916 155.778 165.189 166.102 174.212 176.178C175.124 177.202 173.622 178.716 172.704 177.692Z" fill="#E4E4E4"/>
<path d="M417.672 279.224L446.32 268.755L460.545 263.557C465.177 261.864 469.799 259.937 474.588 258.725C478.822 257.653 483.124 257.478 487.298 258.887C490.982 260.249 494.353 262.337 497.212 265.027C500.134 267.715 502.851 270.615 505.344 273.703C508.441 277.422 511.492 281.179 514.557 284.924C527.206 300.38 539.772 315.903 552.256 331.493C564.739 347.082 577.139 362.738 589.456 378.46C601.803 394.221 614.064 410.047 626.241 425.939C627.733 427.886 629.223 429.834 630.712 431.783C631.535 432.86 633.39 431.798 632.556 430.706C620.289 414.654 607.937 398.668 595.499 382.747C583.031 366.788 570.477 350.897 557.836 335.074C545.196 319.251 532.47 303.496 519.659 287.81C516.468 283.902 513.271 279.999 510.069 276.1C507.367 272.811 504.697 269.486 501.734 266.425C496.296 260.805 489.501 255.839 481.368 255.704C476.587 255.625 471.959 257.141 467.516 258.747C462.727 260.478 457.949 262.242 453.165 263.99L424.316 274.532L417.104 277.168C415.824 277.635 416.377 279.698 417.672 279.224V279.224Z" fill="#E4E4E4"/>
<path d="M135.023 161.189C120.465 153.713 101.82 155.177 88.4418 164.517C113.96 168.916 139.199 174.801 164.03 182.143C153.719 176.106 145.653 166.647 135.023 161.189Z" fill="#F2F2F2"/>
<path d="M88.2985 164.491L85.4957 166.768C86.4438 165.971 87.4293 165.224 88.4418 164.517C88.3939 164.509 88.3463 164.5 88.2985 164.491Z" fill="#F2F2F2"/>
<path d="M496.133 279.329C493.313 275.899 490.264 272.308 486.046 270.915L482.108 271.07C512.087 323.997 552.575 370.244 601.088 406.972C566.103 364.425 531.118 321.877 496.133 279.329Z" fill="#F2F2F2"/>
<path d="M202.856 413.295C204.462 400.395 212.463 387.684 224.777 383.486C219.921 396.764 219.922 411.33 224.78 424.607C226.672 429.721 229.31 435.212 227.53 440.366C226.423 443.573 223.714 446.026 220.685 447.56C217.657 449.094 214.296 449.826 210.977 450.542L210.324 451.082C205.056 439.196 201.25 426.195 202.856 413.295Z" fill="#F0F0F0"/>
<path d="M224.899 383.73C217.729 391.758 213.272 401.839 212.162 412.542C211.882 414.841 211.966 417.171 212.413 419.444C212.919 421.645 214.006 423.67 215.56 425.309C216.979 426.866 218.61 428.295 219.626 430.17C220.131 431.137 220.426 432.2 220.491 433.289C220.556 434.379 220.39 435.469 220.004 436.49C219.108 439.058 217.342 441.152 215.543 443.139C213.546 445.345 211.437 447.605 210.588 450.53C210.485 450.884 209.941 450.704 210.043 450.35C211.52 445.261 216.465 442.371 218.823 437.787C219.923 435.648 220.385 433.165 219.353 430.908C218.451 428.934 216.77 427.459 215.32 425.894C213.78 424.318 212.65 422.388 212.028 420.275C211.468 418.031 211.293 415.709 211.513 413.407C211.924 408.217 213.149 403.124 215.143 398.314C217.389 392.812 220.56 387.734 224.52 383.3C224.765 383.026 225.143 383.457 224.899 383.73L224.899 383.73Z" fill="white"/>
<path d="M212.316 409.074C210.544 408.644 208.983 407.599 207.911 406.125C206.839 404.652 206.326 402.845 206.464 401.029C206.493 400.661 207.066 400.689 207.037 401.057C206.905 402.748 207.383 404.431 208.384 405.802C209.385 407.172 210.843 408.14 212.496 408.53C212.855 408.615 212.673 409.159 212.316 409.074Z" fill="white"/>
<path d="M214.737 424.614C217.937 422.705 220.3 419.66 221.353 416.088C221.458 415.734 222.002 415.914 221.898 416.268C220.795 419.983 218.33 423.146 214.995 425.126C214.677 425.314 214.421 424.801 214.737 424.614V424.614Z" fill="white"/>
<path d="M217.921 393.354C218.572 393.663 219.29 393.806 220.009 393.77C220.729 393.733 221.429 393.519 222.045 393.145C222.36 392.953 222.616 393.466 222.303 393.657C221.62 394.066 220.847 394.302 220.052 394.344C219.257 394.386 218.464 394.233 217.741 393.898C217.671 393.873 217.612 393.821 217.579 393.754C217.545 393.686 217.538 393.609 217.559 393.537C217.583 393.465 217.635 393.405 217.703 393.371C217.77 393.337 217.849 393.331 217.921 393.354Z" fill="white"/>
<path d="M262.312 406.527C262.118 406.653 261.924 406.779 261.731 406.909C259.137 408.613 256.687 410.525 254.403 412.625C254.224 412.785 254.045 412.949 253.871 413.113C248.424 418.232 243.975 424.317 240.75 431.058C239.47 433.742 238.395 436.519 237.537 439.365C236.351 443.297 235.378 447.653 233.031 450.869C232.79 451.207 232.528 451.53 232.247 451.836H211.034C210.986 451.812 210.937 451.793 210.889 451.768L210.042 451.807C210.076 451.657 210.114 451.502 210.148 451.353C210.168 451.265 210.192 451.178 210.211 451.091C210.226 451.033 210.24 450.975 210.25 450.922C210.255 450.903 210.26 450.884 210.264 450.869C210.274 450.816 210.289 450.767 210.298 450.719C210.511 449.854 210.731 448.988 210.957 448.122C210.957 448.118 210.957 448.118 210.961 448.113C212.619 441.501 215.056 435.109 218.221 429.071C218.318 428.892 218.415 428.708 218.521 428.529C219.987 425.856 221.668 423.307 223.55 420.908C224.584 419.598 225.684 418.341 226.846 417.141C229.853 414.048 233.328 411.447 237.145 409.434C244.753 405.42 253.561 403.882 261.692 406.334C261.9 406.397 262.104 406.46 262.312 406.527Z" fill="#F0F0F0"/>
<path d="M262.264 406.796C251.701 408.892 242.067 414.261 234.731 422.139C233.122 423.806 231.786 425.717 230.772 427.801C229.85 429.863 229.498 432.133 229.751 434.377C229.946 436.474 230.387 438.596 230.068 440.704C229.889 441.78 229.483 442.806 228.879 443.715C228.275 444.624 227.485 445.395 226.562 445.978C224.299 447.489 221.627 448.098 218.993 448.603C216.069 449.163 213.023 449.699 210.583 451.524C210.287 451.745 209.961 451.273 210.256 451.053C214.502 447.878 220.192 448.544 224.837 446.303C227.004 445.257 228.869 443.552 229.406 441.129C229.875 439.01 229.422 436.821 229.207 434.7C228.927 432.515 229.188 430.294 229.965 428.233C230.869 426.104 232.13 424.145 233.692 422.439C237.147 418.542 241.195 415.213 245.686 412.572C250.795 409.53 256.387 407.383 262.22 406.225C262.581 406.154 262.622 406.725 262.264 406.796H262.264Z" fill="white"/>
<path d="M236.944 419.463C235.788 418.054 235.171 416.28 235.204 414.459C235.236 412.637 235.915 410.886 237.12 409.519C237.365 409.243 237.805 409.61 237.56 409.886C236.436 411.158 235.803 412.789 235.777 414.485C235.75 416.181 236.331 417.831 237.415 419.137C237.651 419.421 237.178 419.745 236.944 419.463V419.463Z" fill="white"/>
<path d="M229.513 433.327C233.219 433.727 236.939 432.718 239.933 430.499C240.23 430.279 240.556 430.751 240.26 430.97C237.14 433.273 233.266 434.316 229.41 433.89C229.043 433.85 229.147 433.286 229.513 433.327H229.513Z" fill="white"/>
<path d="M250.892 410.283C251.226 410.921 251.713 411.467 252.309 411.871C252.906 412.275 253.594 412.524 254.311 412.597C254.679 412.633 254.574 413.196 254.208 413.16C253.417 413.077 252.657 412.8 251.997 412.355C251.337 411.911 250.796 411.311 250.421 410.609C250.38 410.546 250.365 410.47 250.378 410.396C250.392 410.322 250.433 410.256 250.493 410.211C250.556 410.168 250.633 410.151 250.708 410.165C250.782 410.179 250.849 410.221 250.892 410.283Z" fill="white"/>
<path d="M357.087 343.199C346.682 320.205 347.066 291.059 363.214 271.655C368.616 298.561 383.37 322.691 404.864 339.775C413.178 346.333 423.108 352.763 425.379 363.101C426.792 369.533 424.789 376.336 421.326 381.939C417.863 387.542 413.036 392.151 408.264 396.693L407.728 398.248C386.962 383.883 367.492 366.193 357.087 343.199Z" fill="#F0F0F0"/>
<path d="M363.663 271.936C359.913 292.484 362.74 313.691 371.74 332.543C373.606 336.636 376.105 340.41 379.147 343.725C382.214 346.859 386.065 349.115 390.3 350.258C394.228 351.404 398.378 352.121 401.958 354.201C403.775 355.293 405.34 356.756 406.551 358.494C407.763 360.233 408.592 362.207 408.986 364.289C410.102 369.449 409.296 374.703 408.329 379.813C407.255 385.487 406.05 391.363 407.606 397.067C407.795 397.758 406.71 398.01 406.522 397.32C403.815 387.396 409.078 377.609 408.343 367.632C407.999 362.977 406.25 358.396 402.255 355.699C398.761 353.34 394.482 352.597 390.495 351.471C386.348 350.416 382.521 348.362 379.351 345.489C376.15 342.339 373.51 338.668 371.542 334.633C366.966 325.62 363.837 315.943 362.27 305.959C360.419 294.573 360.53 282.956 362.599 271.608C362.728 270.905 363.79 271.238 363.663 271.936H363.663Z" fill="white"/>
<path d="M368.484 326.643C365.114 327.723 361.468 327.57 358.2 326.212C354.932 324.854 352.253 322.38 350.642 319.231C350.318 318.592 351.296 318.06 351.62 318.699C353.115 321.634 355.61 323.939 358.656 325.197C361.702 326.455 365.098 326.584 368.231 325.56C368.912 325.339 369.162 326.423 368.484 326.643Z" fill="white"/>
<path d="M388.233 349.939C391.601 343.541 392.432 336.109 390.559 329.126C390.373 328.434 391.457 328.182 391.643 328.873C393.578 336.144 392.698 343.876 389.178 350.526C388.842 351.16 387.899 350.57 388.233 349.939Z" fill="white"/>
<path d="M361.85 294.935C363.241 294.789 364.574 294.3 365.73 293.512C366.885 292.723 367.826 291.661 368.469 290.419C368.797 289.782 369.74 290.373 369.415 291.006C368.698 292.375 367.657 293.547 366.382 294.42C365.108 295.294 363.638 295.843 362.103 296.018C361.959 296.047 361.81 296.02 361.686 295.942C361.562 295.865 361.472 295.744 361.434 295.603C361.401 295.459 361.427 295.309 361.504 295.183C361.582 295.058 361.706 294.969 361.85 294.935Z" fill="white"/>
<path d="M448.729 271.881C448.536 272.285 448.342 272.689 448.154 273.101C445.583 278.545 443.459 284.189 441.804 289.977C441.668 290.422 441.538 290.876 441.416 291.324C437.576 305.311 436.368 319.889 437.854 334.316C438.45 340.056 439.483 345.743 440.943 351.327C442.96 359.039 445.761 367.24 445.129 374.94C445.072 375.744 444.965 376.544 444.809 377.335L409.668 398.78C409.563 398.789 409.463 398.805 409.359 398.814L407.995 399.735C407.899 399.452 407.807 399.157 407.711 398.874C407.655 398.71 407.607 398.542 407.551 398.378C407.516 398.267 407.481 398.156 407.444 398.058C407.432 398.021 407.42 397.984 407.414 397.956C407.376 397.858 407.351 397.763 407.318 397.673C406.794 396.024 406.281 394.368 405.779 392.706C405.774 392.698 405.774 392.698 405.777 392.685C401.981 380.01 399.21 366.907 398.518 353.8C398.498 353.406 398.472 353.003 398.467 352.599C398.188 346.69 398.393 340.767 399.079 334.891C399.466 331.674 400.015 328.48 400.725 325.319C402.574 317.155 405.698 309.332 409.98 302.138C418.519 287.797 431.554 276.345 447.507 272.186C447.915 272.08 448.316 271.979 448.729 271.881Z" fill="#F0F0F0"/>
<path d="M448.922 272.374C433.546 286.526 423.024 305.158 418.849 325.625C417.873 330.015 417.594 334.531 418.025 339.008C418.586 343.355 420.301 347.473 422.994 350.934C425.439 354.211 428.32 357.28 429.926 361.094C430.719 363.059 431.087 365.169 431.006 367.285C430.926 369.402 430.398 371.478 429.459 373.376C427.24 378.168 423.431 381.878 419.579 385.376C415.303 389.261 410.799 393.228 408.604 398.718C408.339 399.383 407.321 398.932 407.587 398.268C411.405 388.716 421.505 384.067 426.93 375.659C429.461 371.735 430.824 367.026 429.26 362.469C427.892 358.484 424.923 355.316 422.418 352.019C419.743 348.682 417.925 344.74 417.125 340.539C416.468 336.099 416.571 331.579 417.432 327.174C419.21 317.225 422.543 307.617 427.308 298.702C432.691 288.498 439.78 279.288 448.271 271.472C448.797 270.989 449.445 271.894 448.923 272.374L448.922 272.374Z" fill="white"/>
<path d="M419.805 318.956C416.463 317.79 413.645 315.475 411.854 312.425C410.062 309.374 409.415 305.787 410.026 302.304C410.152 301.6 411.254 301.762 411.127 302.468C410.552 305.71 411.156 309.052 412.83 311.889C414.504 314.726 417.137 316.871 420.256 317.939C420.933 318.171 420.479 319.187 419.805 318.956Z" fill="white"/>
<path d="M421.535 349.435C428.08 346.353 433.222 340.919 435.935 334.217C436.203 333.552 437.221 334.003 436.953 334.667C434.116 341.636 428.754 347.28 421.936 350.473C421.286 350.777 420.888 349.738 421.535 349.435V349.435Z" fill="white"/>
<path d="M433.615 289.647C434.814 290.367 436.174 290.779 437.571 290.844C438.968 290.91 440.36 290.628 441.622 290.024C442.268 289.712 442.665 290.751 442.023 291.061C440.626 291.722 439.089 292.032 437.545 291.963C436 291.894 434.497 291.448 433.165 290.664C433.033 290.601 432.93 290.489 432.878 290.353C432.825 290.217 432.826 290.066 432.881 289.93C432.941 289.796 433.052 289.691 433.19 289.638C433.327 289.585 433.48 289.588 433.615 289.647Z" fill="white"/>
<path d="M516.314 369.825L555.842 339.841L575.109 359.091L510.715 403.118L516.314 369.825Z" fill="#3F3D56"/>
<path d="M479.448 452.385H344.232L348.975 437.033C378.367 426.402 361.857 403.551 389.816 389.584C458.203 355.422 484.678 253.476 474.664 213.177L519.479 211.284C519.479 211.284 581.368 386.885 479.448 452.385Z" fill="#3F3D56"/>
<path d="M594.883 380.218C590.844 383.767 585.677 385.769 580.3 385.87C574.922 385.97 569.683 384.162 565.515 380.767L565.427 380.695L565.424 380.582C565.374 378.701 565.081 376.835 564.551 375.029C564.524 376.329 564.334 377.62 563.986 378.873L563.873 379.294L563.569 378.981C563.307 378.711 563.053 378.436 562.814 378.165C561.412 376.575 560.237 374.798 559.324 372.884C554.951 363.9 548.616 356.01 540.785 349.798C539.387 348.661 538.086 347.411 536.896 346.059C531.868 340.343 529.041 333.027 528.92 325.418C528.799 317.81 531.393 310.407 536.237 304.536C541.081 298.664 547.859 294.707 555.357 293.373C562.855 292.039 570.584 293.415 577.159 297.255L577.359 297.372L577.255 297.579C576.494 299.158 575.488 300.607 574.275 301.874C575.943 300.974 577.485 299.86 578.865 298.561L579.01 298.424L579.175 298.537C581.335 300.03 583.304 301.781 585.038 303.752L585.225 303.966C586.549 305.479 588.177 306.696 590.003 307.538C591.83 308.38 593.813 308.828 595.824 308.853C599.105 308.908 602.336 309.673 605.293 311.094C608.25 312.516 610.864 314.561 612.955 317.088C615.045 319.615 616.563 322.565 617.404 325.734C618.245 328.904 618.388 332.217 617.825 335.448L617.799 335.598L617.653 335.642C615.103 336.517 612.399 336.854 609.712 336.632C611.956 337.608 614.346 338.206 616.785 338.401L617.1 338.426L617 338.726C615.73 342.539 613.468 345.945 610.447 348.598L610.361 348.673C610.33 348.7 610.3 348.727 610.269 348.753C608.018 350.69 606.177 353.056 604.854 355.713C603.53 358.37 602.751 361.264 602.562 364.226C602.412 367.268 601.656 370.25 600.337 372.996C599.018 375.742 597.164 378.198 594.883 380.218Z" fill="#00BFA6"/>
<path opacity="0.15" d="M599.019 372.921C598.979 373.738 598.893 374.553 598.764 375.362C600.978 371.964 602.253 368.041 602.457 363.992C602.487 363.372 602.552 362.754 602.639 362.14C600.488 365.344 599.238 369.068 599.019 372.921Z" fill="black"/>
<path opacity="0.15" d="M606.17 345.326C607.975 346.107 609.876 346.644 611.822 346.923C612.572 346.132 613.264 345.288 613.893 344.398C611.409 345.229 608.781 345.545 606.17 345.326Z" fill="black"/>
<path opacity="0.15" d="M614.5 337.871C614.701 339.833 614.646 341.813 614.338 343.762C615.416 342.124 616.275 340.352 616.895 338.492L616.995 338.192L616.68 338.167C615.949 338.105 615.221 338.006 614.5 337.871Z" fill="black"/>
<path opacity="0.15" d="M612.397 316.323C610.305 313.952 607.742 312.042 604.87 310.716C601.999 309.389 598.882 308.675 595.719 308.619C593.708 308.594 591.725 308.146 589.898 307.304C588.072 306.462 586.444 305.245 585.12 303.732L584.933 303.518C583.199 301.547 581.23 299.796 579.07 298.303L578.905 298.19L578.76 298.327C577.38 299.626 575.838 300.74 574.17 301.64C575.383 300.373 576.389 298.924 577.15 297.345L577.254 297.138L577.054 297.021C572.695 294.472 567.795 292.989 562.753 292.692C557.711 292.396 552.67 293.294 548.042 295.315C543.414 297.335 539.33 300.42 536.122 304.318C532.915 308.216 530.675 312.817 529.586 317.744C531.684 314.062 534.492 310.833 537.848 308.244C541.204 305.654 545.04 303.756 549.136 302.659C553.231 301.562 557.504 301.288 561.706 301.853C565.909 302.418 569.957 303.81 573.617 305.949L573.817 306.067L573.713 306.274C572.951 307.853 571.946 309.302 570.733 310.568C572.4 309.668 573.943 308.555 575.322 307.256L575.468 307.118L575.633 307.232C577.793 308.725 579.762 310.476 581.496 312.447L581.683 312.661C583.007 314.173 584.635 315.39 586.461 316.232C588.287 317.074 590.271 317.522 592.282 317.547C597.54 317.636 602.605 319.545 606.613 322.947C610.621 326.35 613.323 331.036 614.259 336.207C615.371 336.008 616.469 335.741 617.548 335.408L617.694 335.363L617.72 335.213C618.31 331.867 618.138 328.432 617.216 325.161C616.295 321.891 614.647 318.87 612.397 316.323Z" fill="black"/>
<path d="M660.237 222.843C660.235 240.145 654.092 256.886 642.9 270.09C631.708 283.293 616.192 292.103 599.111 294.953L598.75 295.012L598.47 294.779C593.813 290.899 588.673 287.638 583.176 285.079C586.265 287.908 588.986 291.112 591.276 294.617L592.055 295.787L590.651 295.855C589.439 295.914 588.235 295.943 587.073 295.943C580.241 295.949 573.441 295.007 566.869 293.144C537.014 284.657 504.953 283.206 471.579 288.831C465.857 289.792 460.064 290.274 454.261 290.274C397.356 290.274 351.06 244.01 351.06 187.144C351.029 165.462 357.849 144.324 370.548 126.743C383.247 109.161 401.177 96.0334 421.782 89.2306L422.492 88.9959L422.772 89.6878C424.974 94.8848 426.342 100.396 426.827 106.019C428.196 100.077 428.782 93.9815 428.57 87.8878L428.548 87.2444L429.174 87.0876C437.38 85.0444 445.805 84.0119 454.261 84.0131L455.177 84.0169C461.653 84.0362 468.06 82.6915 473.981 80.0707C479.902 77.4499 485.204 73.6117 489.541 68.8064C496.652 60.9975 505.372 54.8204 515.101 50.7001C524.83 46.5798 535.337 44.6141 545.898 44.9383C556.46 45.2624 566.826 47.8687 576.284 52.5778C585.741 57.2868 594.065 63.987 600.683 72.2172L600.992 72.5983L600.788 73.045C596.513 82.4584 591.856 89.3162 586.297 94.3312C593.431 90.9878 599.961 86.4864 605.621 81.01L606.352 80.302L606.864 81.1811C613.387 92.3577 616.822 105.065 616.817 118.003L616.816 118.372C616.815 118.502 616.815 118.633 616.815 118.763C616.815 138.554 624.475 157.313 637.866 170.286C644.909 177.117 650.516 185.285 654.358 194.31C658.199 203.335 660.198 213.036 660.237 222.843Z" fill="#00BFA6"/>
<g opacity="0.15">
<path d="M570.789 50.0933C568.267 54.276 565.163 58.0801 561.571 61.3919C566.714 58.9792 571.55 55.9597 575.974 52.3977C574.277 51.5624 572.549 50.7942 570.789 50.0933Z" fill="black"/>
<path d="M613.14 137.347C617.119 141.205 620.648 145.5 623.66 150.152C619.127 140.309 616.792 129.598 616.815 118.763C616.815 118.633 616.815 118.502 616.816 118.372L616.817 118.003C616.822 105.065 613.387 92.3578 606.865 81.1811L606.352 80.302L605.621 81.01C601.587 84.9055 597.108 88.313 592.277 91.1621C593.522 108.959 600.959 125.546 613.14 137.347Z" fill="black"/>
<path d="M592.091 85.0635L592.09 85.4323C592.089 85.5625 592.089 85.6936 592.089 85.8238C592.089 86.5414 592.102 87.2571 592.122 87.9717C595.567 83.3404 598.475 78.3327 600.788 73.0451L600.992 72.5984L600.684 72.2173C596.824 67.4183 592.377 63.1215 587.448 59.4274C590.517 67.6267 592.089 76.3096 592.091 85.0635Z" fill="black"/>
<path d="M637.866 170.286C634.346 166.865 631.219 163.063 628.541 158.951C633.336 169.158 635.701 180.336 635.449 191.608C635.197 202.881 632.337 213.942 627.091 223.925C621.845 233.908 614.357 242.542 605.212 249.15C596.068 255.758 585.517 260.161 574.385 262.013L574.023 262.072L573.744 261.84C569.087 257.959 563.946 254.699 558.45 252.14C561.539 254.968 564.26 258.173 566.55 261.678L567.329 262.848L565.925 262.915C564.713 262.974 563.509 263.004 562.346 263.004C555.515 263.01 548.715 262.068 542.143 260.205C512.287 251.718 480.227 250.267 446.853 255.891C441.13 256.852 435.338 257.335 429.535 257.335C404.241 257.354 379.828 248.053 360.969 231.211C369.334 248.865 382.541 263.786 399.054 274.24C415.568 284.695 434.711 290.255 454.261 290.274C460.064 290.274 465.857 289.792 471.579 288.831C504.953 283.206 537.014 284.657 566.869 293.144C573.441 295.007 580.241 295.949 587.073 295.943C588.235 295.943 589.439 295.914 590.651 295.855L592.055 295.787L591.276 294.617C588.986 291.112 586.265 287.908 583.177 285.079C588.673 287.638 593.813 290.899 598.47 294.779L598.75 295.012L599.111 294.953C612.479 292.731 624.965 286.842 635.177 277.942C645.39 269.043 652.926 257.483 656.946 244.553C660.965 231.624 661.31 217.832 657.941 204.718C654.571 191.604 647.621 179.683 637.866 170.286V170.286Z" fill="black"/>
</g>
<path d="M293.537 204.344C289.599 200.104 287.557 193.742 289.651 188.35C292.787 193.804 297.754 197.974 303.671 200.122C305.956 200.942 308.583 201.616 309.83 203.697C310.552 205.043 310.728 206.614 310.324 208.086C309.916 209.542 309.324 210.939 308.561 212.244L308.558 212.621C302.997 211.011 297.476 208.584 293.537 204.344Z" fill="#00BFA6"/>
<path d="M489.151 327.318C485.213 323.078 483.17 316.716 485.265 311.324C488.401 316.778 493.367 320.947 499.284 323.095C501.569 323.915 504.196 324.59 505.444 326.671C506.165 328.017 506.342 329.588 505.937 331.06C505.53 332.515 504.937 333.912 504.174 335.217L504.171 335.594C498.611 333.984 493.089 331.557 489.151 327.318Z" fill="#00BFA6"/>
<path d="M581.39 406.687C578.639 401.598 578.255 394.927 581.633 390.23C583.304 396.295 587.068 401.573 592.259 405.132C594.266 406.497 596.64 407.807 597.327 410.134C597.688 411.617 597.465 413.182 596.705 414.507C595.946 415.814 595.023 417.018 593.957 418.091L593.86 418.455C588.88 415.506 584.141 411.776 581.39 406.687Z" fill="#00BFA6"/>
<path d="M647.877 308.418C645.125 303.329 644.741 296.658 648.119 291.961C649.79 298.026 653.554 303.304 658.745 306.863C660.752 308.228 663.127 309.538 663.813 311.865C664.174 313.348 663.952 314.913 663.192 316.238C662.433 317.545 661.509 318.749 660.444 319.822L660.346 320.186C655.366 317.237 650.628 313.507 647.877 308.418Z" fill="#00BFA6"/>
<path d="M213.241 346.298C210.49 341.209 210.106 334.539 213.484 329.841C215.155 335.906 218.919 341.184 224.11 344.743C226.117 346.109 228.491 347.418 229.178 349.745C229.539 351.228 229.316 352.794 228.556 354.118C227.797 355.425 226.874 356.63 225.808 357.702L225.711 358.066C220.73 355.118 215.992 351.387 213.241 346.298Z" fill="#E6E6E6"/>
<path d="M461.669 395.036C464.058 375.84 475.965 356.927 494.288 350.68C487.062 370.438 487.063 392.112 494.292 411.869C497.108 419.478 501.032 427.648 498.384 435.317C496.736 440.089 492.705 443.74 488.199 446.022C483.693 448.305 478.692 449.393 473.753 450.46L472.782 451.263C464.942 433.576 459.279 414.231 461.669 395.036Z" fill="#E6E6E6"/>
<path d="M494.47 351.043C483.799 362.988 477.167 377.989 475.516 393.915C475.099 397.337 475.225 400.803 475.889 404.186C476.642 407.461 478.26 410.474 480.573 412.913C482.684 415.23 485.112 417.356 486.622 420.146C487.374 421.585 487.813 423.167 487.91 424.788C488.007 426.408 487.76 428.031 487.185 429.55C485.852 433.372 483.223 436.486 480.547 439.443C477.576 442.726 474.437 446.089 473.174 450.441C473.021 450.969 472.211 450.701 472.364 450.174C474.561 442.602 481.919 438.301 485.427 431.48C487.064 428.298 487.752 424.603 486.217 421.244C484.875 418.306 482.373 416.112 480.215 413.784C477.924 411.438 476.242 408.567 475.317 405.422C474.483 402.083 474.224 398.628 474.55 395.202C475.162 387.48 476.985 379.901 479.952 372.744C483.294 364.557 488.013 357.001 493.905 350.404C494.27 349.995 494.832 350.638 494.47 351.043Z" fill="white"/>
<path d="M475.745 388.756C473.109 388.116 470.785 386.561 469.19 384.368C467.595 382.175 466.832 379.487 467.038 376.784C467.081 376.237 467.934 376.279 467.89 376.826C467.694 379.343 468.405 381.847 469.895 383.886C471.384 385.925 473.554 387.365 476.013 387.946C476.547 388.073 476.276 388.882 475.745 388.756Z" fill="white"/>
<path d="M479.347 411.878C484.11 409.038 487.625 404.508 489.193 399.192C489.348 398.665 490.158 398.933 490.003 399.459C488.361 404.988 484.693 409.694 479.731 412.64C479.258 412.92 478.877 412.157 479.347 411.878Z" fill="white"/>
<path d="M484.086 365.364C485.054 365.824 486.122 366.036 487.193 365.982C488.264 365.928 489.305 365.608 490.222 365.053C490.691 364.767 491.072 365.53 490.606 365.814C489.59 366.423 488.44 366.775 487.257 366.837C486.073 366.9 484.893 366.672 483.818 366.174C483.713 366.135 483.626 366.058 483.576 365.958C483.526 365.858 483.515 365.743 483.547 365.635C483.583 365.528 483.66 365.44 483.76 365.389C483.861 365.338 483.978 365.329 484.086 365.364Z" fill="white"/>
<path d="M550.139 384.966C549.851 385.153 549.563 385.34 549.274 385.534C545.416 388.069 541.769 390.914 538.371 394.039C538.105 394.276 537.838 394.521 537.579 394.766C529.473 402.382 522.853 411.436 518.056 421.467C516.15 425.46 514.552 429.593 513.274 433.829C511.509 439.678 510.062 446.161 506.569 450.946C506.21 451.449 505.82 451.93 505.402 452.385H473.837C473.766 452.349 473.694 452.32 473.622 452.284L472.361 452.342C472.412 452.119 472.469 451.889 472.52 451.666C472.549 451.536 472.585 451.407 472.613 451.277C472.635 451.191 472.657 451.104 472.671 451.025C472.678 450.996 472.685 450.968 472.693 450.946C472.707 450.867 472.729 450.795 472.743 450.723C473.06 449.435 473.386 448.147 473.722 446.859C473.722 446.852 473.722 446.852 473.73 446.845C476.315 437.038 479.743 427.36 484.532 418.51C484.676 418.244 484.82 417.97 484.979 417.704C487.159 413.727 489.662 409.934 492.461 406.364C494 404.414 495.637 402.544 497.365 400.759C501.84 396.157 507.012 392.287 512.69 389.29C524.011 383.318 537.118 381.03 549.217 384.678C549.526 384.771 549.829 384.865 550.139 384.966Z" fill="#E6E6E6"/>
<path d="M550.068 385.366C534.35 388.485 520.015 396.473 509.1 408.195C506.705 410.677 504.717 413.52 503.208 416.621C501.837 419.688 501.312 423.067 501.689 426.406C501.978 429.526 502.636 432.684 502.161 435.82C501.894 437.421 501.291 438.949 500.392 440.301C499.492 441.654 498.317 442.801 496.943 443.668C493.575 445.917 489.6 446.823 485.681 447.574C481.33 448.407 476.798 449.205 473.167 451.92C472.727 452.249 472.242 451.548 472.681 451.219C478.999 446.495 487.465 447.486 494.376 444.151C497.601 442.595 500.376 440.058 501.175 436.453C501.874 433.3 501.199 430.043 500.879 426.886C500.463 423.635 500.85 420.331 502.007 417.263C503.353 414.096 505.228 411.181 507.553 408.642C512.695 402.844 518.717 397.889 525.4 393.96C533.002 389.433 541.322 386.239 550.002 384.516C550.54 384.409 550.602 385.26 550.068 385.366Z" fill="white"/>
<path d="M512.392 404.214C510.672 402.117 509.754 399.478 509.802 396.767C509.85 394.057 510.861 391.452 512.654 389.417C513.018 389.007 513.674 389.553 513.309 389.964C511.636 391.855 510.694 394.282 510.655 396.806C510.615 399.33 511.48 401.785 513.093 403.728C513.443 404.151 512.74 404.634 512.392 404.214Z" fill="white"/>
<path d="M501.334 424.843C506.848 425.439 512.385 423.937 516.84 420.636C517.281 420.309 517.767 421.01 517.326 421.337C512.684 424.763 506.919 426.315 501.182 425.682C500.635 425.621 500.79 424.783 501.334 424.843V424.843Z" fill="white"/>
<path d="M533.147 390.554C533.643 391.504 534.368 392.316 535.256 392.917C536.144 393.518 537.167 393.889 538.234 393.997C538.781 394.051 538.625 394.889 538.081 394.836C536.903 394.711 535.774 394.3 534.791 393.638C533.809 392.976 533.003 392.084 532.446 391.04C532.385 390.946 532.362 390.832 532.382 390.722C532.402 390.612 532.463 390.513 532.553 390.447C532.647 390.383 532.761 390.358 532.872 390.378C532.984 390.399 533.082 390.462 533.147 390.554Z" fill="white"/>
<path d="M301.451 397.667L275.252 377.795L262.483 390.553L305.162 419.732L301.451 397.667Z" fill="#3F3D56"/>
<path d="M325.884 452.385H415.5L412.357 442.21C392.877 435.164 403.819 420.02 385.289 410.763C339.965 388.121 322.418 320.555 329.055 293.846L299.353 292.592C299.353 292.592 258.335 408.974 325.884 452.385Z" fill="#3F3D56"/>
<path d="M244.289 393.956C244.163 391.993 243.647 390.075 242.77 388.314C241.892 386.553 240.672 384.985 239.18 383.701C239.16 383.684 239.14 383.666 239.119 383.648L239.062 383.598C237.06 381.84 235.561 379.583 234.719 377.056L234.653 376.857L234.862 376.841C236.478 376.711 238.062 376.315 239.549 375.668C237.769 375.815 235.977 375.592 234.287 375.012L234.19 374.982L234.173 374.883C233.799 372.742 233.894 370.546 234.452 368.445C235.009 366.345 236.015 364.39 237.4 362.715C238.786 361.04 240.519 359.685 242.478 358.742C244.438 357.8 246.579 357.293 248.754 357.257C250.087 357.24 251.401 356.943 252.612 356.385C253.822 355.827 254.901 355.021 255.779 354.018L255.902 353.876C257.052 352.57 258.357 351.41 259.788 350.42L259.898 350.345L259.994 350.436C260.908 351.297 261.931 352.035 263.036 352.631C262.232 351.792 261.566 350.832 261.061 349.785L260.992 349.648L261.125 349.57C265.482 347.025 270.605 346.113 275.574 346.997C280.543 347.881 285.036 350.504 288.246 354.396C291.456 358.287 293.176 363.193 293.096 368.236C293.016 373.278 291.142 378.128 287.809 381.916C287.021 382.812 286.158 383.641 285.232 384.394C280.042 388.511 275.843 393.74 272.945 399.695C272.34 400.963 271.561 402.141 270.632 403.195C270.474 403.374 270.305 403.556 270.132 403.735L269.93 403.943L269.855 403.664C269.624 402.834 269.498 401.978 269.481 401.116C269.129 402.313 268.935 403.55 268.902 404.797L268.9 404.871L268.842 404.919C266.681 406.681 264.073 407.809 261.308 408.176C258.543 408.543 255.73 408.136 253.183 406.999C250.637 405.862 248.457 404.04 246.886 401.737C245.315 399.434 244.416 396.74 244.289 393.956Z" fill="#E6E6E6"/>
<path opacity="0.15" d="M246.636 399.719C246.663 400.261 246.72 400.801 246.806 401.337C245.338 399.085 244.494 396.485 244.358 393.801C244.338 393.39 244.295 392.981 244.237 392.574C245.663 394.698 246.492 397.165 246.636 399.719Z" fill="black"/>
<path opacity="0.15" d="M241.897 381.43C240.701 381.948 239.441 382.304 238.151 382.488C237.654 381.964 237.195 381.405 236.779 380.815C238.425 381.366 240.167 381.575 241.897 381.43Z" fill="black"/>
<path opacity="0.15" d="M236.377 376.489C236.243 377.79 236.28 379.102 236.484 380.393C235.769 379.308 235.2 378.134 234.789 376.901L234.723 376.702L234.931 376.686C235.416 376.644 235.899 376.579 236.377 376.489Z" fill="black"/>
<path opacity="0.15" d="M237.77 362.208C239.157 360.636 240.856 359.371 242.759 358.492C244.662 357.612 246.727 357.139 248.824 357.102C250.157 357.085 251.471 356.788 252.681 356.23C253.892 355.672 254.971 354.866 255.848 353.863L255.972 353.721C257.122 352.415 258.427 351.254 259.858 350.265L259.967 350.19L260.064 350.281C260.978 351.142 262 351.88 263.106 352.476C262.302 351.637 261.635 350.676 261.131 349.63L261.062 349.493L261.194 349.415C264.083 347.726 267.331 346.743 270.673 346.546C274.014 346.35 277.355 346.945 280.422 348.284C283.49 349.624 286.197 351.668 288.322 354.252C290.448 356.835 291.933 359.884 292.654 363.15C291.264 360.709 289.403 358.569 287.179 356.853C284.955 355.137 282.412 353.879 279.697 353.152C276.983 352.425 274.151 352.243 271.366 352.617C268.581 352.992 265.898 353.915 263.472 355.333L263.34 355.41L263.409 355.548C263.913 356.594 264.58 357.555 265.384 358.394C264.278 357.797 263.256 357.059 262.342 356.198L262.245 356.107L262.136 356.183C260.705 357.172 259.4 358.333 258.25 359.639L258.126 359.781C257.249 360.783 256.17 361.59 254.96 362.148C253.749 362.706 252.435 363.003 251.102 363.019C247.617 363.078 244.26 364.343 241.604 366.598C238.947 368.853 237.156 371.959 236.536 375.386C235.799 375.254 235.071 375.077 234.356 374.856L234.26 374.827L234.242 374.728C233.851 372.51 233.965 370.233 234.576 368.066C235.187 365.898 236.279 363.896 237.77 362.208Z" fill="black"/>
<path d="M220.89 265.42C229.765 256.821 234.842 244.389 234.842 231.272C234.842 231.186 234.842 231.099 234.841 231.013L234.841 230.768C234.837 222.193 237.114 213.772 241.437 206.364L241.777 205.781L242.261 206.251C246.012 209.88 250.34 212.864 255.068 215.08C251.384 211.756 248.297 207.211 245.464 200.972L245.329 200.676L245.533 200.423C249.92 194.968 255.437 190.528 261.705 187.407C267.973 184.286 274.843 182.558 281.843 182.344C288.843 182.129 295.807 183.432 302.254 186.162C308.702 188.893 314.482 192.987 319.195 198.163C322.069 201.347 325.583 203.891 329.507 205.628C333.431 207.365 337.678 208.256 341.97 208.244L342.577 208.241C348.182 208.24 353.765 208.925 359.204 210.279L359.619 210.383L359.604 210.809C359.464 214.848 359.852 218.887 360.759 222.826C361.081 219.099 361.988 215.446 363.447 212.002L363.633 211.543L364.103 211.699C379.528 216.813 392.628 227.247 401.056 241.131C409.485 255.016 412.691 271.444 410.101 287.475C407.511 303.506 399.294 318.092 386.922 328.622C374.55 339.152 358.83 344.938 342.577 344.944C338.731 344.944 334.892 344.624 331.099 343.987C308.98 340.259 287.732 341.221 267.944 346.846C263.588 348.08 259.082 348.705 254.554 348.701C253.784 348.701 252.986 348.681 252.182 348.642L251.252 348.598L251.768 347.822C253.286 345.499 255.089 343.375 257.136 341.501C253.494 343.197 250.087 345.358 247 347.929L246.815 348.084L246.575 348.044C237.716 346.572 229.44 342.669 222.672 336.771C215.904 330.872 210.909 323.211 208.245 314.642C205.581 306.072 205.353 296.932 207.585 288.24C209.818 279.549 214.425 271.648 220.89 265.42Z" fill="#E6E6E6"/>
<g opacity="0.15">
<path d="M265.346 185.76C267.018 188.532 269.075 191.054 271.456 193.248C268.047 191.649 264.842 189.648 261.91 187.287C263.035 186.734 264.18 186.225 265.346 185.76Z" fill="black"/>
<path d="M237.278 243.589C234.641 246.146 232.302 248.993 230.305 252.075C233.309 245.552 234.857 238.453 234.842 231.272C234.842 231.186 234.842 231.099 234.841 231.013L234.841 230.768C234.837 222.193 237.114 213.772 241.437 206.364L241.777 205.781L242.261 206.251C244.934 208.832 247.903 211.091 251.105 212.979C250.28 224.774 245.351 235.768 237.278 243.589Z" fill="black"/>
<path d="M251.229 208.937L251.229 209.182C251.23 209.268 251.23 209.355 251.23 209.441C251.23 209.917 251.221 210.391 251.208 210.865C248.924 207.795 246.997 204.476 245.464 200.972L245.329 200.676L245.533 200.423C248.092 197.243 251.039 194.395 254.306 191.947C252.272 197.381 251.229 203.135 251.229 208.937Z" fill="black"/>
<path d="M220.89 265.42C223.223 263.153 225.296 260.633 227.07 257.907C223.892 264.672 222.325 272.08 222.492 279.551C222.659 287.022 224.555 294.353 228.032 300.97C231.508 307.586 236.471 313.308 242.532 317.688C248.592 322.068 255.585 324.986 262.963 326.213L263.203 326.252L263.388 326.098C266.474 323.526 269.882 321.366 273.524 319.67C271.477 321.544 269.674 323.668 268.156 325.991L267.64 326.766L268.57 326.811C269.373 326.85 270.172 326.87 270.942 326.87C275.47 326.874 279.976 326.249 284.332 325.015C304.119 319.39 325.368 318.428 347.487 322.156C351.28 322.793 355.119 323.113 358.965 323.113C375.729 323.125 391.909 316.961 404.408 305.798C398.863 317.499 390.111 327.388 379.166 334.317C368.221 341.246 355.534 344.931 342.577 344.944C338.731 344.944 334.892 344.624 331.099 343.987C308.98 340.259 287.732 341.221 267.944 346.846C263.588 348.08 259.082 348.705 254.554 348.701C253.784 348.701 252.986 348.681 252.182 348.642L251.252 348.597L251.768 347.822C253.286 345.499 255.089 343.375 257.136 341.501C253.494 343.197 250.087 345.358 247 347.929L246.815 348.083L246.575 348.044C237.716 346.572 229.44 342.669 222.672 336.77C215.904 330.872 210.909 323.211 208.245 314.641C205.581 306.072 205.353 296.932 207.585 288.24C209.818 279.549 214.425 271.648 220.89 265.42Z" fill="black"/>
</g>
<path d="M34.4896 400.028C26.653 400.028 19.0705 397.25 13.0904 392.19C7.11031 387.13 3.12007 380.115 1.82916 372.392L1.80247 372.229L1.90793 372.102C3.66539 369.997 5.14208 367.673 6.30105 365.188C5.02001 366.584 3.56869 367.814 1.9811 368.85L1.45122 369.202L1.42066 368.567C1.39398 368.019 1.38063 367.475 1.38063 366.949C1.37796 363.86 1.80458 360.786 2.64829 357.815C6.49217 344.316 7.14946 329.821 4.60208 314.732C4.16681 312.144 3.9481 309.525 3.94823 306.902C3.95214 295.814 7.90614 285.09 15.1022 276.65C22.2983 268.21 32.2664 262.605 43.2218 260.838C54.1772 259.071 65.4043 261.258 74.8927 267.008C84.3811 272.758 91.5113 281.694 95.0064 292.217L95.1127 292.538L94.7993 292.665C92.4454 293.66 89.9493 294.279 87.4026 294.498C90.0939 295.117 92.8546 295.382 95.6146 295.286L95.906 295.276L95.9771 295.559C96.9025 299.269 97.3701 303.078 97.3695 306.902L97.3678 307.316C97.3591 310.244 97.9681 313.141 99.1552 315.818C100.342 318.495 102.081 320.892 104.257 322.852C107.794 326.068 110.592 330.01 112.458 334.409C114.324 338.808 115.214 343.558 115.068 348.333C114.921 353.108 113.74 357.795 111.607 362.071C109.475 366.347 106.44 370.111 102.712 373.103L102.54 373.242L102.337 373.15C98.0737 371.218 94.9677 369.112 92.6962 366.599C94.2105 369.824 96.2493 372.776 98.7297 375.335L99.0504 375.666L98.6523 375.897C93.59 378.847 87.8346 380.4 81.9747 380.397L81.8077 380.397C81.7487 380.396 81.6893 380.396 81.6303 380.396C77.3023 380.351 73.0087 381.169 69.0014 382.804C64.9942 384.438 61.3539 386.855 58.2942 389.914C55.2002 393.099 51.5008 395.634 47.4131 397.37C43.3253 399.107 38.9316 400.011 34.4896 400.028Z" fill="#E4E4E4"/>
<path d="M22.7726 452.149C22.6289 452.149 22.49 452.097 22.3815 452.003C22.2729 451.909 22.202 451.779 22.1818 451.636C22.1564 451.458 19.6697 433.54 21.903 409.726C23.9655 387.733 30.5889 356.056 50.4301 330.039C50.4776 329.977 50.537 329.925 50.6048 329.885C50.6727 329.846 50.7476 329.82 50.8255 329.809C50.9033 329.799 50.9824 329.804 51.0583 329.824C51.1342 329.844 51.2055 329.878 51.2679 329.926C51.3304 329.974 51.3828 330.033 51.4223 330.101C51.4618 330.169 51.4875 330.244 51.498 330.321C51.5084 330.399 51.5035 330.478 51.4833 330.554C51.4632 330.63 51.4283 330.701 51.3807 330.763C31.7109 356.555 25.1409 388 23.093 409.837C20.8726 433.513 23.3398 451.291 23.365 451.468C23.377 451.553 23.3706 451.639 23.3463 451.721C23.3221 451.803 23.2804 451.879 23.2243 451.944C23.1681 452.008 23.0987 452.06 23.0208 452.096C22.9429 452.131 22.8583 452.149 22.7726 452.149Z" fill="#3F3D56"/>
<path d="M32.6912 364.44C32.5649 364.44 32.4419 364.4 32.3398 364.326C32.2376 364.252 32.1615 364.148 32.1225 364.028C32.0834 363.908 32.0834 363.779 32.1223 363.659C32.1613 363.539 32.2373 363.434 32.3394 363.36C37.9929 359.537 44.1003 356.43 50.5211 354.113C60.5523 350.444 75.8063 347.117 91.5099 352.111C91.5849 352.134 91.6545 352.172 91.7147 352.223C91.7749 352.273 91.8246 352.335 91.8608 352.405C91.897 352.475 91.9191 352.551 91.9258 352.629C91.9325 352.707 91.9237 352.786 91.8999 352.861C91.876 352.936 91.8376 353.005 91.7869 353.065C91.7362 353.125 91.6741 353.175 91.6042 353.211C91.5343 353.247 91.458 353.269 91.3796 353.275C91.3012 353.281 91.2224 353.272 91.1475 353.248C75.7656 348.357 60.7882 351.629 50.932 355.234C44.6145 357.512 38.605 360.566 33.0419 364.326C32.94 364.4 32.8172 364.44 32.6912 364.44Z" fill="#3F3D56"/>
<path d="M630.048 453H2.03483C1.94873 453 1.86342 452.984 1.78379 452.951C1.70417 452.918 1.63179 452.87 1.57081 452.809C1.50982 452.749 1.46144 452.676 1.42842 452.597C1.39541 452.518 1.37842 452.432 1.37842 452.346C1.37842 452.26 1.39541 452.175 1.42842 452.096C1.46144 452.016 1.50982 451.944 1.57081 451.883C1.63179 451.823 1.70417 451.775 1.78379 451.742C1.86342 451.709 1.94873 451.692 2.03483 451.693H630.048C630.222 451.693 630.388 451.762 630.511 451.884C630.634 452.007 630.703 452.173 630.703 452.346C630.703 452.52 630.634 452.686 630.511 452.809C630.388 452.931 630.222 453 630.048 453Z" fill="#CCCCCC"/>
<path d="M334.222 398.203C331.471 393.113 331.087 386.443 334.465 381.746C336.136 387.81 339.9 393.089 345.091 396.648C347.098 398.013 349.472 399.323 350.159 401.65C350.52 403.133 350.298 404.698 349.537 406.022C348.778 407.33 347.855 408.534 346.789 409.607L346.692 409.971C341.712 407.022 336.973 403.292 334.222 398.203Z" fill="#E6E6E6"/>
<path d="M165.561 269.508C162.809 264.418 162.425 257.748 165.803 253.051C167.474 259.115 171.238 264.394 176.429 267.953C178.436 269.318 180.811 270.628 181.497 272.955C181.858 274.438 181.636 276.003 180.875 277.327C180.116 278.635 179.193 279.839 178.128 280.912L178.03 281.276C173.05 278.327 168.312 274.597 165.561 269.508Z" fill="#E6E6E6"/>
</g>
<defs>
<clipPath id="clip0_235_905">
<rect width="664" height="453" fill="white"/>
</clipPath>
</defs>
</svg>
