<svg width="350" height="319" viewBox="0 0 350 319" fill="none" xmlns="http://www.w3.org/2000/svg">
<g clip-path="url(#clip0_646_10)">
<path d="M312 48H39C27.9543 48 19 56.9543 19 68V299C19 310.046 27.9543 319 39 319H312C323.046 319 332 310.046 332 299V68C332 56.9543 323.046 48 312 48Z" fill="#BEE8DE"/>
<path d="M92.6815 101.706C93.7286 102.002 94.8527 102.076 95.9458 101.921C97.0388 101.766 98.0638 101.387 98.9221 100.821C101.108 99.3448 101.793 96.9133 102.351 94.6613L104 88L100.547 89.9132C98.0638 91.2891 95.5247 92.7091 93.8055 94.702C92.0862 96.6948 91.3361 99.4155 92.7171 101.572" fill="#00A67E"/>
<path d="M93.6938 110.804C93.2483 108.064 92.79 105.288 93.1032 102.518C93.3808 100.058 94.2696 97.6558 96.0791 95.6852C97.0396 94.6414 98.2083 93.7471 99.5327 93.0425C99.878 92.8585 100.196 93.3205 99.8521 93.5038C97.5604 94.7267 95.7878 96.5326 94.79 98.661C93.6879 101.028 93.5109 103.608 93.7008 106.122C93.8155 107.643 94.0593 109.153 94.3042 110.662C94.3235 110.73 94.3115 110.802 94.2704 110.863C94.2294 110.924 94.1625 110.97 94.0832 110.991C94.0023 111.009 93.916 111 93.8432 110.965C93.7703 110.93 93.7167 110.872 93.694 110.804H93.6938Z" fill="#F2F2F2"/>
<path d="M96 106.943C96.4103 107.598 96.9744 108.131 97.6379 108.491C98.3014 108.851 99.0419 109.025 99.7881 108.997C101.706 108.901 103.305 107.496 104.743 106.161L109 102.214L106.183 102.073C104.157 101.971 102.079 101.875 100.149 102.532C98.2198 103.189 96.4402 104.767 96.0874 106.865" fill="#00A67E"/>
<path d="M92.0379 112.666C93.9883 109.696 96.2506 106.394 100.293 105.339C101.417 105.047 102.596 104.942 103.765 105.03C104.134 105.058 104.042 105.547 103.674 105.52C101.713 105.38 99.7564 105.825 98.1328 106.782C96.5703 107.697 95.3538 108.97 94.3242 110.319C93.6935 111.146 93.1286 112.008 92.5637 112.868C92.3831 113.143 91.8552 112.945 92.0379 112.666Z" fill="#F2F2F2"/>
<path d="M223 43H141V113H223V43Z" fill="white"/>
<path d="M223 113H141V43H223V113ZM141.474 112.525H222.526V43.4746H141.474V112.525Z" fill="#3F3D56"/>
<path d="M192 57H171V113H192V57Z" fill="#6C63FF"/>
<path d="M192 57H171V113H192V57Z" fill="#007A5D"/>
<path opacity="0.2" d="M141 48V58.944L223 64L222.758 50.496L141 48Z" fill="black"/>
<path d="M228 36H136V57H228V36Z" fill="white"/>
<path d="M228 57H136V36H228V57ZM136.477 56.5116H227.523V36.4884H136.477V56.5116Z" fill="#3F3D56"/>
<path d="M192 35H171V56H192V35Z" fill="#007A5D"/>
<path d="M179.506 15.8322C184.929 23.5642 179.819 36 179.819 36C179.819 36 165.917 35.8998 160.494 28.1678C155.071 20.4358 160.181 8 160.181 8C160.181 8 174.083 8.10025 179.506 15.8322Z" fill="#00CD9C"/>
<path d="M181.494 15.8322C176.071 23.5642 181.181 36 181.181 36C181.181 36 195.083 35.8998 200.506 28.1678C205.929 20.4358 200.819 8 200.819 8C200.819 8 186.917 8.10025 181.494 15.8322Z" fill="#00A67E"/>
<path d="M268.8 113H83.2C83.147 113 83.0961 112.895 83.0586 112.707C83.0211 112.52 83 112.265 83 112C83 111.735 83.0211 111.48 83.0586 111.293C83.0961 111.105 83.147 111 83.2 111H268.8C268.853 111 268.904 111.105 268.941 111.293C268.979 111.48 269 111.735 269 112C269 112.265 268.979 112.52 268.941 112.707C268.904 112.895 268.853 113 268.8 113Z" fill="#B6B6B6"/>
<path d="M239.872 8.40839C236.582 3.96138 230.56 2.88814 227.568 5.14652C224.576 7.4049 223.888 13.5417 227.178 17.9887C230.224 22.1049 235.741 23.2275 238.78 21.6854C238.77 21.7335 238.77 21.7831 238.778 21.8315L238.95 22.687C238.963 22.7522 238.992 22.813 239.035 22.8635C239.078 22.9141 239.133 22.9527 239.195 22.9758C239.256 22.9989 239.323 23.0056 239.388 22.9953C239.453 22.9851 239.515 22.9582 239.567 22.9172L241.017 21.7724C241.069 21.7315 241.11 21.6778 241.136 21.6165C241.161 21.5551 241.171 21.4882 241.164 21.4221C241.156 21.356 241.133 21.2928 241.094 21.2385C241.056 21.1843 241.005 21.1408 240.946 21.1123L240.165 20.7374C240.138 20.7249 240.109 20.7158 240.079 20.7101C242.422 18.2088 242.924 12.5336 239.872 8.40839Z" fill="#00CD9C"/>
<path d="M233.239 17.6511C235.072 17.9464 236.723 18.9439 237.852 20.4379C238.98 21.9318 239.5 23.8082 239.304 25.6795C239.264 26.1082 239.924 26.1054 239.964 25.6795C240.153 23.6625 239.583 21.6476 238.369 20.0389C237.154 18.4302 235.384 17.3466 233.414 17.0055C232.999 16.9339 232.82 17.579 233.239 17.6511Z" fill="white"/>
<path d="M126.353 36.516C129.282 31.4582 128.023 24.9915 124.781 22.8804C121.54 20.7694 115.531 22.503 112.601 27.5608C109.89 32.2424 110.913 38.2227 113.501 40.6634C113.453 40.6726 113.406 40.6916 113.364 40.7193L112.627 41.2291C112.57 41.268 112.524 41.3214 112.493 41.3844C112.462 41.4473 112.446 41.5177 112.448 41.5888C112.45 41.66 112.468 41.7295 112.503 41.7907C112.537 41.852 112.585 41.903 112.643 41.939L114.261 42.9429C114.319 42.9788 114.385 42.9984 114.452 42.9999C114.519 43.0014 114.585 42.9847 114.645 42.9513C114.704 42.918 114.754 42.8691 114.791 42.8094C114.827 42.7496 114.848 42.681 114.853 42.61L114.911 41.6788C114.912 41.6463 114.91 41.6138 114.904 41.5818C118.129 42.9448 123.636 41.2078 126.353 36.516Z" fill="#00CD9C"/>
<path d="M125.192 28.3655C125.588 30.2642 125.291 32.2539 124.363 33.9241C123.435 35.5943 121.946 36.8174 120.204 37.341C119.806 37.4654 120.047 38.1079 120.442 37.9843C122.311 37.3981 123.906 36.0732 124.906 34.2753C125.905 32.4773 126.236 30.3393 125.832 28.29C125.746 27.8577 125.106 27.93 125.192 28.3655Z" fill="white"/>
<path d="M153.991 10.3658C153.763 4.43686 149.62 -0.171594 146.088 0.00490473C142.557 0.181403 138.782 5.18558 139.01 11.1145C139.22 16.6024 142.944 20.948 146.134 21.4328C146.101 21.4693 146.074 21.5128 146.055 21.5608L145.738 22.4208C145.714 22.4864 145.705 22.5579 145.712 22.6286C145.719 22.6993 145.741 22.7668 145.777 22.8248C145.813 22.8827 145.862 22.9291 145.918 22.9597C145.975 22.9902 146.037 23.0037 146.099 22.9991L147.838 22.8695C147.9 22.8649 147.96 22.8422 148.012 22.8036C148.065 22.765 148.108 22.7117 148.137 22.6489C148.166 22.5861 148.181 22.5158 148.179 22.4447C148.178 22.3735 148.161 22.304 148.13 22.2426L147.717 21.4369C147.702 21.4092 147.684 21.3836 147.664 21.3607C150.815 20.5746 154.202 15.8656 153.991 10.3658Z" fill="#00A67E"/>
<path d="M149.094 4.47867C150.436 5.63749 151.241 7.22443 151.344 8.91192C151.446 10.5994 150.839 12.2586 149.646 13.5471C149.376 13.8446 149.92 14.1812 150.188 13.8856C151.455 12.4853 152.098 10.6975 151.988 8.88069C151.878 7.06387 151.023 5.35239 149.594 4.08947C149.293 3.82323 148.79 4.21046 149.094 4.47867Z" fill="white"/>
<path d="M132.686 27.3266C131.067 27.2214 129.496 26.722 128.1 25.8693C126.705 25.0167 125.525 23.835 124.658 22.4213C124.415 22.0205 124.098 21.58 124.266 21.0867C124.325 20.8976 124.444 20.7345 124.604 20.6242C124.764 20.5139 124.956 20.4629 125.147 20.4795C125.644 20.5418 125.964 21.0424 126.025 21.522C126.094 22.0661 125.722 22.4932 125.263 22.6954C124.14 23.1894 123.007 22.426 122.093 21.8167C120.009 20.4284 117.718 19.1729 115.193 19.0147C112.857 18.8683 110.352 19.8132 109.053 21.9029C108.826 22.2685 109.39 22.6063 109.616 22.2425C110.905 20.1701 113.51 19.4257 115.775 19.746C117.124 19.9658 118.428 20.4223 119.628 21.0957C120.251 21.429 120.854 21.7984 121.446 22.1868C122.009 22.592 122.606 22.9449 123.229 23.2413C124.269 23.6819 125.645 23.6474 126.371 22.6331C127.049 21.6867 126.525 20.1112 125.392 19.8451C125.143 19.7946 124.887 19.8085 124.644 19.8855C124.402 19.9626 124.183 20.1004 124.005 20.2866C123.827 20.4729 123.697 20.7017 123.626 20.9526C123.555 21.2036 123.545 21.4687 123.598 21.7244C123.711 22.2816 124.118 22.827 124.433 23.2825C125.379 24.6554 126.612 25.7919 128.04 26.6083C129.468 27.4246 131.056 27.9 132.686 27.9995C133.105 28.0209 133.104 27.3479 132.686 27.3266Z" fill="#CCCCCC"/>
<path d="M53.5868 146.06V147.54H49.7868V160H47.9668V147.54H44.1468V146.06H53.5868ZM61.2671 148.84C62.0938 148.84 62.8404 149.02 63.5071 149.38C64.1738 149.727 64.6938 150.253 65.0671 150.96C65.4538 151.667 65.6471 152.527 65.6471 153.54V160H63.8471V153.8C63.8471 152.707 63.5738 151.873 63.0271 151.3C62.4804 150.713 61.7338 150.42 60.7871 150.42C59.8271 150.42 59.0604 150.72 58.4871 151.32C57.9271 151.92 57.6471 152.793 57.6471 153.94V160H55.8271V145.2H57.6471V150.6C58.0071 150.04 58.5004 149.607 59.1271 149.3C59.7671 148.993 60.4804 148.84 61.2671 148.84ZM69.5601 147.26C69.2134 147.26 68.9201 147.14 68.6801 146.9C68.4401 146.66 68.3201 146.367 68.3201 146.02C68.3201 145.673 68.4401 145.38 68.6801 145.14C68.9201 144.9 69.2134 144.78 69.5601 144.78C69.8934 144.78 70.1734 144.9 70.4001 145.14C70.6401 145.38 70.7601 145.673 70.7601 146.02C70.7601 146.367 70.6401 146.66 70.4001 146.9C70.1734 147.14 69.8934 147.26 69.5601 147.26ZM70.4401 149.04V160H68.6201V149.04H70.4401ZM77.422 160.18C76.582 160.18 75.8286 160.04 75.162 159.76C74.4953 159.467 73.9686 159.067 73.582 158.56C73.1953 158.04 72.982 157.447 72.942 156.78H74.822C74.8753 157.327 75.1286 157.773 75.582 158.12C76.0486 158.467 76.6553 158.64 77.402 158.64C78.0953 158.64 78.642 158.487 79.042 158.18C79.442 157.873 79.642 157.487 79.642 157.02C79.642 156.54 79.4286 156.187 79.002 155.96C78.5753 155.72 77.9153 155.487 77.022 155.26C76.2086 155.047 75.542 154.833 75.022 154.62C74.5153 154.393 74.0753 154.067 73.702 153.64C73.342 153.2 73.162 152.627 73.162 151.92C73.162 151.36 73.3286 150.847 73.662 150.38C73.9953 149.913 74.4686 149.547 75.082 149.28C75.6953 149 76.3953 148.86 77.182 148.86C78.3953 148.86 79.3753 149.167 80.122 149.78C80.8686 150.393 81.2686 151.233 81.322 152.3H79.502C79.462 151.727 79.2286 151.267 78.802 150.92C78.3886 150.573 77.8286 150.4 77.122 150.4C76.4686 150.4 75.9486 150.54 75.562 150.82C75.1753 151.1 74.982 151.467 74.982 151.92C74.982 152.28 75.0953 152.58 75.322 152.82C75.562 153.047 75.8553 153.233 76.202 153.38C76.562 153.513 77.0553 153.667 77.682 153.84C78.4686 154.053 79.1086 154.267 79.602 154.48C80.0953 154.68 80.5153 154.987 80.862 155.4C81.222 155.813 81.4086 156.353 81.422 157.02C81.422 157.62 81.2553 158.16 80.922 158.64C80.5886 159.12 80.1153 159.5 79.502 159.78C78.902 160.047 78.2086 160.18 77.422 160.18ZM90.2632 147.26C89.9165 147.26 89.6232 147.14 89.3832 146.9C89.1432 146.66 89.0232 146.367 89.0232 146.02C89.0232 145.673 89.1432 145.38 89.3832 145.14C89.6232 144.9 89.9165 144.78 90.2632 144.78C90.5965 144.78 90.8765 144.9 91.1032 145.14C91.3432 145.38 91.4632 145.673 91.4632 146.02C91.4632 146.367 91.3432 146.66 91.1032 146.9C90.8765 147.14 90.5965 147.26 90.2632 147.26ZM91.1432 149.04V160H89.3232V149.04H91.1432ZM98.1251 160.18C97.2851 160.18 96.5317 160.04 95.8651 159.76C95.1984 159.467 94.6717 159.067 94.2851 158.56C93.8984 158.04 93.6851 157.447 93.6451 156.78H95.5251C95.5784 157.327 95.8317 157.773 96.2851 158.12C96.7517 158.467 97.3584 158.64 98.1051 158.64C98.7984 158.64 99.3451 158.487 99.7451 158.18C100.145 157.873 100.345 157.487 100.345 157.02C100.345 156.54 100.132 156.187 99.7051 155.96C99.2784 155.72 98.6184 155.487 97.7251 155.26C96.9117 155.047 96.2451 154.833 95.7251 154.62C95.2184 154.393 94.7784 154.067 94.4051 153.64C94.0451 153.2 93.8651 152.627 93.8651 151.92C93.8651 151.36 94.0317 150.847 94.3651 150.38C94.6984 149.913 95.1717 149.547 95.7851 149.28C96.3984 149 97.0984 148.86 97.8851 148.86C99.0984 148.86 100.078 149.167 100.825 149.78C101.572 150.393 101.972 151.233 102.025 152.3H100.205C100.165 151.727 99.9317 151.267 99.5051 150.92C99.0917 150.573 98.5317 150.4 97.8251 150.4C97.1717 150.4 96.6517 150.54 96.2651 150.82C95.8784 151.1 95.6851 151.467 95.6851 151.92C95.6851 152.28 95.7984 152.58 96.0251 152.82C96.2651 153.047 96.5584 153.233 96.9051 153.38C97.2651 153.513 97.7584 153.667 98.3851 153.84C99.1717 154.053 99.8117 154.267 100.305 154.48C100.798 154.68 101.218 154.987 101.565 155.4C101.925 155.813 102.112 156.353 102.125 157.02C102.125 157.62 101.958 158.16 101.625 158.64C101.292 159.12 100.818 159.5 100.205 159.78C99.6051 160.047 98.9117 160.18 98.1251 160.18ZM109.346 154.48C109.346 153.36 109.573 152.38 110.026 151.54C110.48 150.687 111.1 150.027 111.886 149.56C112.686 149.093 113.573 148.86 114.546 148.86C115.506 148.86 116.34 149.067 117.046 149.48C117.753 149.893 118.28 150.413 118.626 151.04V149.04H120.466V160H118.626V157.96C118.266 158.6 117.726 159.133 117.006 159.56C116.3 159.973 115.473 160.18 114.526 160.18C113.553 160.18 112.673 159.94 111.886 159.46C111.1 158.98 110.48 158.307 110.026 157.44C109.573 156.573 109.346 155.587 109.346 154.48ZM118.626 154.5C118.626 153.673 118.46 152.953 118.126 152.34C117.793 151.727 117.34 151.26 116.766 150.94C116.206 150.607 115.586 150.44 114.906 150.44C114.226 150.44 113.606 150.6 113.046 150.92C112.486 151.24 112.04 151.707 111.706 152.32C111.373 152.933 111.206 153.653 111.206 154.48C111.206 155.32 111.373 156.053 111.706 156.68C112.04 157.293 112.486 157.767 113.046 158.1C113.606 158.42 114.226 158.58 114.906 158.58C115.586 158.58 116.206 158.42 116.766 158.1C117.34 157.767 117.793 157.293 118.126 156.68C118.46 156.053 118.626 155.327 118.626 154.5ZM131.094 150.54V157C131.094 157.533 131.207 157.913 131.434 158.14C131.661 158.353 132.054 158.46 132.614 158.46H133.954V160H132.314C131.301 160 130.541 159.767 130.034 159.3C129.527 158.833 129.274 158.067 129.274 157V150.54H127.854V149.04H129.274V146.28H131.094V149.04H133.954V150.54H131.094ZM137.979 150.82C138.299 150.193 138.752 149.707 139.339 149.36C139.939 149.013 140.666 148.84 141.519 148.84V150.72H141.039C138.999 150.72 137.979 151.827 137.979 154.04V160H136.159V149.04H137.979V150.82ZM144.56 147.26C144.213 147.26 143.92 147.14 143.68 146.9C143.44 146.66 143.32 146.367 143.32 146.02C143.32 145.673 143.44 145.38 143.68 145.14C143.92 144.9 144.213 144.78 144.56 144.78C144.893 144.78 145.173 144.9 145.4 145.14C145.64 145.38 145.76 145.673 145.76 146.02C145.76 146.367 145.64 146.66 145.4 146.9C145.173 147.14 144.893 147.26 144.56 147.26ZM145.44 149.04V160H143.62V149.04H145.44ZM147.862 154.48C147.862 153.36 148.089 152.38 148.542 151.54C148.995 150.687 149.615 150.027 150.402 149.56C151.202 149.093 152.089 148.86 153.062 148.86C154.022 148.86 154.855 149.067 155.562 149.48C156.269 149.893 156.795 150.413 157.142 151.04V149.04H158.982V160H157.142V157.96C156.782 158.6 156.242 159.133 155.522 159.56C154.815 159.973 153.989 160.18 153.042 160.18C152.069 160.18 151.189 159.94 150.402 159.46C149.615 158.98 148.995 158.307 148.542 157.44C148.089 156.573 147.862 155.587 147.862 154.48ZM157.142 154.5C157.142 153.673 156.975 152.953 156.642 152.34C156.309 151.727 155.855 151.26 155.282 150.94C154.722 150.607 154.102 150.44 153.422 150.44C152.742 150.44 152.122 150.6 151.562 150.92C151.002 151.24 150.555 151.707 150.222 152.32C149.889 152.933 149.722 153.653 149.722 154.48C149.722 155.32 149.889 156.053 150.222 156.68C150.555 157.293 151.002 157.767 151.562 158.1C152.122 158.42 152.742 158.58 153.422 158.58C154.102 158.58 154.722 158.42 155.282 158.1C155.855 157.767 156.309 157.293 156.642 156.68C156.975 156.053 157.142 155.327 157.142 154.5ZM163.878 145.2V160H162.058V145.2H163.878ZM174.131 151.06C174.491 150.433 175.025 149.913 175.731 149.5C176.451 149.073 177.285 148.86 178.231 148.86C179.205 148.86 180.085 149.093 180.871 149.56C181.671 150.027 182.298 150.687 182.751 151.54C183.205 152.38 183.431 153.36 183.431 154.48C183.431 155.587 183.205 156.573 182.751 157.44C182.298 158.307 181.671 158.98 180.871 159.46C180.085 159.94 179.205 160.18 178.231 160.18C177.298 160.18 176.471 159.973 175.751 159.56C175.045 159.133 174.505 158.607 174.131 157.98V165.2H172.311V149.04H174.131V151.06ZM181.571 154.48C181.571 153.653 181.405 152.933 181.071 152.32C180.738 151.707 180.285 151.24 179.711 150.92C179.151 150.6 178.531 150.44 177.851 150.44C177.185 150.44 176.565 150.607 175.991 150.94C175.431 151.26 174.978 151.733 174.631 152.36C174.298 152.973 174.131 153.687 174.131 154.5C174.131 155.327 174.298 156.053 174.631 156.68C174.978 157.293 175.431 157.767 175.991 158.1C176.565 158.42 177.185 158.58 177.851 158.58C178.531 158.58 179.151 158.42 179.711 158.1C180.285 157.767 180.738 157.293 181.071 156.68C181.405 156.053 181.571 155.32 181.571 154.48ZM187.647 145.2V160H185.827V145.2H187.647ZM190.069 154.48C190.069 153.36 190.296 152.38 190.749 151.54C191.202 150.687 191.822 150.027 192.609 149.56C193.409 149.093 194.296 148.86 195.269 148.86C196.229 148.86 197.062 149.067 197.769 149.48C198.476 149.893 199.002 150.413 199.349 151.04V149.04H201.189V160H199.349V157.96C198.989 158.6 198.449 159.133 197.729 159.56C197.022 159.973 196.196 160.18 195.249 160.18C194.276 160.18 193.396 159.94 192.609 159.46C191.822 158.98 191.202 158.307 190.749 157.44C190.296 156.573 190.069 155.587 190.069 154.48ZM199.349 154.5C199.349 153.673 199.182 152.953 198.849 152.34C198.516 151.727 198.062 151.26 197.489 150.94C196.929 150.607 196.309 150.44 195.629 150.44C194.949 150.44 194.329 150.6 193.769 150.92C193.209 151.24 192.762 151.707 192.429 152.32C192.096 152.933 191.929 153.653 191.929 154.48C191.929 155.32 192.096 156.053 192.429 156.68C192.762 157.293 193.209 157.767 193.769 158.1C194.329 158.42 194.949 158.58 195.629 158.58C196.309 158.58 196.929 158.42 197.489 158.1C198.062 157.767 198.516 157.293 198.849 156.68C199.182 156.053 199.349 155.327 199.349 154.5ZM209.605 148.84C210.938 148.84 212.018 149.247 212.845 150.06C213.671 150.86 214.085 152.02 214.085 153.54V160H212.285V153.8C212.285 152.707 212.011 151.873 211.465 151.3C210.918 150.713 210.171 150.42 209.225 150.42C208.265 150.42 207.498 150.72 206.925 151.32C206.365 151.92 206.085 152.793 206.085 153.94V160H204.265V149.04H206.085V150.6C206.445 150.04 206.931 149.607 207.545 149.3C208.171 148.993 208.858 148.84 209.605 148.84ZM218.938 157.48L216.698 162.86H215.478L216.938 157.48H218.938ZM236.074 149.04V160H234.254V158.38C233.908 158.94 233.421 159.38 232.794 159.7C232.181 160.007 231.501 160.16 230.754 160.16C229.901 160.16 229.134 159.987 228.454 159.64C227.774 159.28 227.234 158.747 226.834 158.04C226.448 157.333 226.254 156.473 226.254 155.46V149.04H228.054V155.22C228.054 156.3 228.328 157.133 228.874 157.72C229.421 158.293 230.168 158.58 231.114 158.58C232.088 158.58 232.854 158.28 233.414 157.68C233.974 157.08 234.254 156.207 234.254 155.06V149.04H236.074ZM240.967 151.06C241.327 150.433 241.861 149.913 242.567 149.5C243.287 149.073 244.121 148.86 245.067 148.86C246.041 148.86 246.921 149.093 247.707 149.56C248.507 150.027 249.134 150.687 249.587 151.54C250.041 152.38 250.267 153.36 250.267 154.48C250.267 155.587 250.041 156.573 249.587 157.44C249.134 158.307 248.507 158.98 247.707 159.46C246.921 159.94 246.041 160.18 245.067 160.18C244.134 160.18 243.307 159.973 242.587 159.56C241.881 159.133 241.341 158.607 240.967 157.98V165.2H239.147V149.04H240.967V151.06ZM248.407 154.48C248.407 153.653 248.241 152.933 247.907 152.32C247.574 151.707 247.121 151.24 246.547 150.92C245.987 150.6 245.367 150.44 244.687 150.44C244.021 150.44 243.401 150.607 242.827 150.94C242.267 151.26 241.814 151.733 241.467 152.36C241.134 152.973 240.967 153.687 240.967 154.5C240.967 155.327 241.134 156.053 241.467 156.68C241.814 157.293 242.267 157.767 242.827 158.1C243.401 158.42 244.021 158.58 244.687 158.58C245.367 158.58 245.987 158.42 246.547 158.1C247.121 157.767 247.574 157.293 247.907 156.68C248.241 156.053 248.407 155.32 248.407 154.48ZM257.183 148.86C258.13 148.86 258.956 149.067 259.663 149.48C260.383 149.893 260.916 150.413 261.263 151.04V149.04H263.103V160.24C263.103 161.24 262.89 162.127 262.463 162.9C262.036 163.687 261.423 164.3 260.623 164.74C259.836 165.18 258.916 165.4 257.863 165.4C256.423 165.4 255.223 165.06 254.263 164.38C253.303 163.7 252.736 162.773 252.563 161.6H254.363C254.563 162.267 254.976 162.8 255.603 163.2C256.23 163.613 256.983 163.82 257.863 163.82C258.863 163.82 259.676 163.507 260.303 162.88C260.943 162.253 261.263 161.373 261.263 160.24V157.94C260.903 158.58 260.37 159.113 259.663 159.54C258.956 159.967 258.13 160.18 257.183 160.18C256.21 160.18 255.323 159.94 254.523 159.46C253.736 158.98 253.116 158.307 252.663 157.44C252.21 156.573 251.983 155.587 251.983 154.48C251.983 153.36 252.21 152.38 252.663 151.54C253.116 150.687 253.736 150.027 254.523 149.56C255.323 149.093 256.21 148.86 257.183 148.86ZM261.263 154.5C261.263 153.673 261.096 152.953 260.763 152.34C260.43 151.727 259.976 151.26 259.403 150.94C258.843 150.607 258.223 150.44 257.543 150.44C256.863 150.44 256.243 150.6 255.683 150.92C255.123 151.24 254.676 151.707 254.343 152.32C254.01 152.933 253.843 153.653 253.843 154.48C253.843 155.32 254.01 156.053 254.343 156.68C254.676 157.293 255.123 157.767 255.683 158.1C256.243 158.42 256.863 158.58 257.543 158.58C258.223 158.58 258.843 158.42 259.403 158.1C259.976 157.767 260.43 157.293 260.763 156.68C261.096 156.053 261.263 155.327 261.263 154.5ZM267.999 150.82C268.319 150.193 268.772 149.707 269.359 149.36C269.959 149.013 270.685 148.84 271.539 148.84V150.72H271.059C269.019 150.72 267.999 151.827 267.999 154.04V160H266.179V149.04H267.999V150.82ZM272.96 154.48C272.96 153.36 273.186 152.38 273.64 151.54C274.093 150.687 274.713 150.027 275.5 149.56C276.3 149.093 277.186 148.86 278.16 148.86C279.12 148.86 279.953 149.067 280.66 149.48C281.366 149.893 281.893 150.413 282.24 151.04V149.04H284.08V160H282.24V157.96C281.88 158.6 281.34 159.133 280.62 159.56C279.913 159.973 279.086 160.18 278.14 160.18C277.166 160.18 276.286 159.94 275.5 159.46C274.713 158.98 274.093 158.307 273.64 157.44C273.186 156.573 272.96 155.587 272.96 154.48ZM282.24 154.5C282.24 153.673 282.073 152.953 281.74 152.34C281.406 151.727 280.953 151.26 280.38 150.94C279.82 150.607 279.2 150.44 278.52 150.44C277.84 150.44 277.22 150.6 276.66 150.92C276.1 151.24 275.653 151.707 275.32 152.32C274.986 152.933 274.82 153.653 274.82 154.48C274.82 155.32 274.986 156.053 275.32 156.68C275.653 157.293 276.1 157.767 276.66 158.1C277.22 158.42 277.84 158.58 278.52 158.58C279.2 158.58 279.82 158.42 280.38 158.1C280.953 157.767 281.406 157.293 281.74 156.68C282.073 156.053 282.24 155.327 282.24 154.5ZM286.475 154.48C286.475 153.36 286.702 152.38 287.155 151.54C287.609 150.687 288.229 150.027 289.015 149.56C289.815 149.093 290.709 148.86 291.695 148.86C292.549 148.86 293.342 149.06 294.075 149.46C294.809 149.847 295.369 150.36 295.755 151V145.2H297.595V160H295.755V157.94C295.395 158.593 294.862 159.133 294.155 159.56C293.449 159.973 292.622 160.18 291.675 160.18C290.702 160.18 289.815 159.94 289.015 159.46C288.229 158.98 287.609 158.307 287.155 157.44C286.702 156.573 286.475 155.587 286.475 154.48ZM295.755 154.5C295.755 153.673 295.589 152.953 295.255 152.34C294.922 151.727 294.469 151.26 293.895 150.94C293.335 150.607 292.715 150.44 292.035 150.44C291.355 150.44 290.735 150.6 290.175 150.92C289.615 151.24 289.169 151.707 288.835 152.32C288.502 152.933 288.335 153.653 288.335 154.48C288.335 155.32 288.502 156.053 288.835 156.68C289.169 157.293 289.615 157.767 290.175 158.1C290.735 158.42 291.355 158.58 292.035 158.58C292.715 158.58 293.335 158.42 293.895 158.1C294.469 157.767 294.922 157.293 295.255 156.68C295.589 156.053 295.755 155.327 295.755 154.5ZM310.671 154.1C310.671 154.447 310.651 154.813 310.611 155.2H301.851C301.918 156.28 302.284 157.127 302.951 157.74C303.631 158.34 304.451 158.64 305.411 158.64C306.198 158.64 306.851 158.46 307.371 158.1C307.904 157.727 308.278 157.233 308.491 156.62H310.451C310.158 157.673 309.571 158.533 308.691 159.2C307.811 159.853 306.718 160.18 305.411 160.18C304.371 160.18 303.438 159.947 302.611 159.48C301.798 159.013 301.158 158.353 300.691 157.5C300.224 156.633 299.991 155.633 299.991 154.5C299.991 153.367 300.218 152.373 300.671 151.52C301.124 150.667 301.758 150.013 302.571 149.56C303.398 149.093 304.344 148.86 305.411 148.86C306.451 148.86 307.371 149.087 308.171 149.54C308.971 149.993 309.584 150.62 310.011 151.42C310.451 152.207 310.671 153.1 310.671 154.1ZM308.791 153.72C308.791 153.027 308.638 152.433 308.331 151.94C308.024 151.433 307.604 151.053 307.071 150.8C306.551 150.533 305.971 150.4 305.331 150.4C304.411 150.4 303.624 150.693 302.971 151.28C302.331 151.867 301.964 152.68 301.871 153.72H308.791ZM95.8633 180.54H93.5633V190H91.7433V180.54H90.3233V179.04H91.7433V178.26C91.7433 177.033 92.0566 176.14 92.6833 175.58C93.3233 175.007 94.3433 174.72 95.7433 174.72V176.24C94.9433 176.24 94.3766 176.4 94.0433 176.72C93.7233 177.027 93.5633 177.54 93.5633 178.26V179.04H95.8633V180.54ZM102.765 190.18C101.739 190.18 100.805 189.947 99.9653 189.48C99.1386 189.013 98.4853 188.353 98.0053 187.5C97.5386 186.633 97.3053 185.633 97.3053 184.5C97.3053 183.38 97.5453 182.393 98.0253 181.54C98.5186 180.673 99.1853 180.013 100.025 179.56C100.865 179.093 101.805 178.86 102.845 178.86C103.885 178.86 104.825 179.093 105.665 179.56C106.505 180.013 107.165 180.667 107.645 181.52C108.139 182.373 108.385 183.367 108.385 184.5C108.385 185.633 108.132 186.633 107.625 187.5C107.132 188.353 106.459 189.013 105.605 189.48C104.752 189.947 103.805 190.18 102.765 190.18ZM102.765 188.58C103.419 188.58 104.032 188.427 104.605 188.12C105.179 187.813 105.639 187.353 105.985 186.74C106.345 186.127 106.525 185.38 106.525 184.5C106.525 183.62 106.352 182.873 106.005 182.26C105.659 181.647 105.205 181.193 104.645 180.9C104.085 180.593 103.479 180.44 102.825 180.44C102.159 180.44 101.545 180.593 100.985 180.9C100.439 181.193 99.9986 181.647 99.6653 182.26C99.332 182.873 99.1653 183.62 99.1653 184.5C99.1653 185.393 99.3253 186.147 99.6453 186.76C99.9786 187.373 100.419 187.833 100.965 188.14C101.512 188.433 102.112 188.58 102.765 188.58ZM112.598 180.82C112.918 180.193 113.372 179.707 113.958 179.36C114.558 179.013 115.285 178.84 116.138 178.84V180.72H115.658C113.618 180.72 112.598 181.827 112.598 184.04V190H110.778V179.04H112.598V180.82ZM137.511 178.72C138.898 178.72 139.998 179.14 140.811 179.98C141.638 180.82 142.051 181.987 142.051 183.48V190H138.651V183.94C138.651 183.22 138.458 182.667 138.071 182.28C137.698 181.88 137.178 181.68 136.511 181.68C135.845 181.68 135.318 181.88 134.931 182.28C134.558 182.667 134.371 183.22 134.371 183.94V190H130.971V183.94C130.971 183.22 130.778 182.667 130.391 182.28C130.018 181.88 129.498 181.68 128.831 181.68C128.165 181.68 127.638 181.88 127.251 182.28C126.878 182.667 126.691 183.22 126.691 183.94V190H123.271V178.84H126.691V180.24C127.038 179.773 127.491 179.407 128.051 179.14C128.611 178.86 129.245 178.72 129.951 178.72C130.791 178.72 131.538 178.9 132.191 179.26C132.858 179.62 133.378 180.133 133.751 180.8C134.138 180.187 134.665 179.687 135.331 179.3C135.998 178.913 136.725 178.72 137.511 178.72ZM149.523 190.16C148.43 190.16 147.443 189.927 146.563 189.46C145.696 188.993 145.01 188.327 144.503 187.46C144.01 186.593 143.763 185.58 143.763 184.42C143.763 183.273 144.016 182.267 144.523 181.4C145.03 180.52 145.723 179.847 146.603 179.38C147.483 178.913 148.47 178.68 149.563 178.68C150.656 178.68 151.643 178.913 152.523 179.38C153.403 179.847 154.096 180.52 154.603 181.4C155.11 182.267 155.363 183.273 155.363 184.42C155.363 185.567 155.103 186.58 154.583 187.46C154.076 188.327 153.376 188.993 152.483 189.46C151.603 189.927 150.616 190.16 149.523 190.16ZM149.523 187.2C150.176 187.2 150.73 186.96 151.183 186.48C151.65 186 151.883 185.313 151.883 184.42C151.883 183.527 151.656 182.84 151.203 182.36C150.763 181.88 150.216 181.64 149.563 181.64C148.896 181.64 148.343 181.88 147.903 182.36C147.463 182.827 147.243 183.513 147.243 184.42C147.243 185.313 147.456 186 147.883 186.48C148.323 186.96 148.87 187.2 149.523 187.2ZM160.598 180.7C160.998 180.087 161.498 179.607 162.098 179.26C162.698 178.9 163.364 178.72 164.098 178.72V182.34H163.158C162.304 182.34 161.664 182.527 161.238 182.9C160.811 183.26 160.598 183.9 160.598 184.82V190H157.178V178.84H160.598V180.7ZM176.252 184.24C176.252 184.56 176.232 184.893 176.192 185.24H168.452C168.506 185.933 168.726 186.467 169.112 186.84C169.512 187.2 169.999 187.38 170.572 187.38C171.426 187.38 172.019 187.02 172.352 186.3H175.992C175.806 187.033 175.466 187.693 174.972 188.28C174.492 188.867 173.886 189.327 173.152 189.66C172.419 189.993 171.599 190.16 170.692 190.16C169.599 190.16 168.626 189.927 167.772 189.46C166.919 188.993 166.252 188.327 165.772 187.46C165.292 186.593 165.052 185.58 165.052 184.42C165.052 183.26 165.286 182.247 165.752 181.38C166.232 180.513 166.899 179.847 167.752 179.38C168.606 178.913 169.586 178.68 170.692 178.68C171.772 178.68 172.732 178.907 173.572 179.36C174.412 179.813 175.066 180.46 175.532 181.3C176.012 182.14 176.252 183.12 176.252 184.24ZM172.752 183.34C172.752 182.753 172.552 182.287 172.152 181.94C171.752 181.593 171.252 181.42 170.652 181.42C170.079 181.42 169.592 181.587 169.192 181.92C168.806 182.253 168.566 182.727 168.472 183.34H172.752ZM185.715 180.42C186.035 179.9 186.495 179.48 187.095 179.16C187.695 178.84 188.381 178.68 189.155 178.68C190.075 178.68 190.908 178.913 191.655 179.38C192.401 179.847 192.988 180.513 193.415 181.38C193.855 182.247 194.075 183.253 194.075 184.4C194.075 185.547 193.855 186.56 193.415 187.44C192.988 188.307 192.401 188.98 191.655 189.46C190.908 189.927 190.075 190.16 189.155 190.16C188.368 190.16 187.681 190.007 187.095 189.7C186.508 189.38 186.048 188.96 185.715 188.44V190H182.295V175.2H185.715V180.42ZM190.595 184.4C190.595 183.547 190.355 182.88 189.875 182.4C189.408 181.907 188.828 181.66 188.135 181.66C187.455 181.66 186.875 181.907 186.395 182.4C185.928 182.893 185.695 183.567 185.695 184.42C185.695 185.273 185.928 185.947 186.395 186.44C186.875 186.933 187.455 187.18 188.135 187.18C188.815 187.18 189.395 186.933 189.875 186.44C190.355 185.933 190.595 185.253 190.595 184.4ZM206.389 184.24C206.389 184.56 206.369 184.893 206.329 185.24H198.589C198.642 185.933 198.862 186.467 199.249 186.84C199.649 187.2 200.136 187.38 200.709 187.38C201.562 187.38 202.156 187.02 202.489 186.3H206.129C205.942 187.033 205.602 187.693 205.109 188.28C204.629 188.867 204.022 189.327 203.289 189.66C202.556 189.993 201.736 190.16 200.829 190.16C199.736 190.16 198.762 189.927 197.909 189.46C197.056 188.993 196.389 188.327 195.909 187.46C195.429 186.593 195.189 185.58 195.189 184.42C195.189 183.26 195.422 182.247 195.889 181.38C196.369 180.513 197.036 179.847 197.889 179.38C198.742 178.913 199.722 178.68 200.829 178.68C201.909 178.68 202.869 178.907 203.709 179.36C204.549 179.813 205.202 180.46 205.669 181.3C206.149 182.14 206.389 183.12 206.389 184.24ZM202.889 183.34C202.889 182.753 202.689 182.287 202.289 181.94C201.889 181.593 201.389 181.42 200.789 181.42C200.216 181.42 199.729 181.587 199.329 181.92C198.942 182.253 198.702 182.727 198.609 183.34H202.889ZM214.993 178.72C216.3 178.72 217.34 179.147 218.113 180C218.9 180.84 219.293 182 219.293 183.48V190H215.893V183.94C215.893 183.193 215.7 182.613 215.313 182.2C214.926 181.787 214.406 181.58 213.753 181.58C213.1 181.58 212.58 181.787 212.193 182.2C211.806 182.613 211.613 183.193 211.613 183.94V190H208.193V178.84H211.613V180.32C211.96 179.827 212.426 179.44 213.013 179.16C213.6 178.867 214.26 178.72 214.993 178.72ZM232.19 184.24C232.19 184.56 232.17 184.893 232.13 185.24H224.39C224.443 185.933 224.663 186.467 225.05 186.84C225.45 187.2 225.936 187.38 226.51 187.38C227.363 187.38 227.956 187.02 228.29 186.3H231.93C231.743 187.033 231.403 187.693 230.91 188.28C230.43 188.867 229.823 189.327 229.09 189.66C228.356 189.993 227.536 190.16 226.63 190.16C225.536 190.16 224.563 189.927 223.71 189.46C222.856 188.993 222.19 188.327 221.71 187.46C221.23 186.593 220.99 185.58 220.99 184.42C220.99 183.26 221.223 182.247 221.69 181.38C222.17 180.513 222.836 179.847 223.69 179.38C224.543 178.913 225.523 178.68 226.63 178.68C227.71 178.68 228.67 178.907 229.51 179.36C230.35 179.813 231.003 180.46 231.47 181.3C231.95 182.14 232.19 183.12 232.19 184.24ZM228.69 183.34C228.69 182.753 228.49 182.287 228.09 181.94C227.69 181.593 227.19 181.42 226.59 181.42C226.016 181.42 225.53 181.587 225.13 181.92C224.743 182.253 224.503 182.727 224.41 183.34H228.69ZM239.594 181.68H237.754V190H234.334V181.68H233.094V178.84H234.334V178.52C234.334 177.147 234.727 176.107 235.514 175.4C236.301 174.68 237.454 174.32 238.974 174.32C239.227 174.32 239.414 174.327 239.534 174.34V177.24C238.881 177.2 238.421 177.293 238.154 177.52C237.887 177.747 237.754 178.153 237.754 178.74V178.84H239.594V181.68ZM242.921 177.68C242.321 177.68 241.828 177.507 241.441 177.16C241.068 176.8 240.881 176.36 240.881 175.84C240.881 175.307 241.068 174.867 241.441 174.52C241.828 174.16 242.321 173.98 242.921 173.98C243.508 173.98 243.988 174.16 244.361 174.52C244.748 174.867 244.941 175.307 244.941 175.84C244.941 176.36 244.748 176.8 244.361 177.16C243.988 177.507 243.508 177.68 242.921 177.68ZM244.621 178.84V190H241.201V178.84H244.621ZM253.319 187.1V190H251.579C250.339 190 249.373 189.7 248.679 189.1C247.986 188.487 247.639 187.493 247.639 186.12V181.68H246.279V178.84H247.639V176.12H251.059V178.84H253.299V181.68H251.059V186.16C251.059 186.493 251.139 186.733 251.299 186.88C251.459 187.027 251.726 187.1 252.099 187.1H253.319ZM259.764 190.16C258.791 190.16 257.924 189.993 257.164 189.66C256.404 189.327 255.804 188.873 255.364 188.3C254.924 187.713 254.678 187.06 254.624 186.34H258.004C258.044 186.727 258.224 187.04 258.544 187.28C258.864 187.52 259.258 187.64 259.724 187.64C260.151 187.64 260.478 187.56 260.704 187.4C260.944 187.227 261.064 187.007 261.064 186.74C261.064 186.42 260.898 186.187 260.564 186.04C260.231 185.88 259.691 185.707 258.944 185.52C258.144 185.333 257.478 185.14 256.944 184.94C256.411 184.727 255.951 184.4 255.564 183.96C255.178 183.507 254.984 182.9 254.984 182.14C254.984 181.5 255.158 180.92 255.504 180.4C255.864 179.867 256.384 179.447 257.064 179.14C257.758 178.833 258.578 178.68 259.524 178.68C260.924 178.68 262.024 179.027 262.824 179.72C263.638 180.413 264.104 181.333 264.224 182.48H261.064C261.011 182.093 260.838 181.787 260.544 181.56C260.264 181.333 259.891 181.22 259.424 181.22C259.024 181.22 258.718 181.3 258.504 181.46C258.291 181.607 258.184 181.813 258.184 182.08C258.184 182.4 258.351 182.64 258.684 182.8C259.031 182.96 259.564 183.12 260.284 183.28C261.111 183.493 261.784 183.707 262.304 183.92C262.824 184.12 263.278 184.453 263.664 184.92C264.064 185.373 264.271 185.987 264.284 186.76C264.284 187.413 264.098 188 263.724 188.52C263.364 189.027 262.838 189.427 262.144 189.72C261.464 190.013 260.671 190.16 259.764 190.16Z" fill="black"/>
</g>
<defs>
<clipPath id="clip0_646_10">
<rect width="350" height="319" fill="white"/>
</clipPath>
</defs>
</svg>
